SplineFontDB: 3.0
FontName: Caudex-Bold
FullName: Caudex Bold
FamilyName: Caudex
Weight: Bold
Copyright: Copyright (c) 2011 Hjort Nidudsson
Version: 1.01
ItalicAngle: 0
UnderlinePosition: -100
UnderlineWidth: 30
Ascent: 1638
Descent: 410
LayerCount: 2
Layer: 0 1 "Back"  1
Layer: 1 1 "Fore"  0
NeedsXUIDChange: 1
XUID: [1021 997 1545580258 12644143]
FSType: 0
OS2Version: 0
OS2_WeightWidthSlopeOnly: 0
OS2_UseTypoMetrics: 1
CreationTime: 936868149
ModificationTime: 1304824205
PfmFamily: 17
TTFWeight: 700
TTFWidth: 5
LineGap: 0
VLineGap: 0
Panose: 2 4 5 2 5 5 5 3 3 4
OS2TypoAscent: 2034
OS2TypoAOffset: 0
OS2TypoDescent: -606
OS2TypoDOffset: 0
OS2TypoLinegap: 0
OS2WinAscent: 2034
OS2WinAOffset: 0
OS2WinDescent: 606
OS2WinDOffset: 0
HheadAscent: 2034
HheadAOffset: 0
HheadDescent: -606
HheadDOffset: 0
OS2SubXSize: 1285
OS2SubYSize: 1230
OS2SubXOff: 0
OS2SubYOff: 0
OS2SupXSize: 655
OS2SupYSize: 860
OS2SupXOff: 0
OS2SupYOff: 550
OS2StrikeYSize: 100
OS2StrikeYPos: 530
OS2FamilyClass: 260
OS2Vendor: 'PfEd'
Lookup: 258 0 0 "'kern' Horizontal Kerning in Latin lookup 0"  {"'kern' Horizontal Kerning in Latin lookup 0 subtable"  } ['kern' ('latn' <'dflt' > ) ]
MarkAttachClasses: 1
DEI: 91125
KernClass2: 17 19 "'kern' Horizontal Kerning in Latin lookup 0 subtable" 
 134 A Aacute Agrave Acirc Auml Atilde Abreve Aring Aringacute Amacr Aogon Adotbl Ahook uni1EA4 uni1EA6 uni1EA8 uni1EAA uni1EAC Abreveacute
 14 F uni03DC Fdot
 49 L Lacute Lcommaaccent Ldot Ldotbl Lbrk Lhighstrok
 42 P Rho Pacute Pdot Pbardes Pflour Psquirrel
 40 R Racute Rcommaaccent Rcaron Rdot Rdotbl
 33 T Tcommaaccent Tcaron Tdot Tdotbl
 53 V W Wcirc Vdotbl Wgrave Wacute Wuml Wdot Wdotbl YYlig
 62 Y Ycirc Yuml Ymacr Upsilondieresis Ygrave Ydotbl Yhook uni1EF8
 21 r rcommaaccent rdotbl
 65 v w wcirc vscap wscap vdotbl wgrave wacute wuml wdot wdotbl yylig
 46 y ycirc ydot yring ygrave ydotbl yhook uni1EF9
 8 ldquolow
 5 lsquo
 5 rsquo
 5 ldquo
 8 lsquolow
 5 space
 12 comma period
 6 hyphen
 10 colon semi
 5 rdquo

StartChar: .notdef
Encoding: 65536 -1 0
Width: 772
Flags: W
LayerCount: 2
Fore
SplineSet
0 1404 m 1,0,-1
 772 1404 l 1,1,-1
 772 0 l 1,2,-1
 0 0 l 1,3,-1
 0 1404 l 1,0,-1
272 244 m 2,5,-1
 272 175 l 2,6,7
 272 102 272 102 364 102 c 256,8,9
 456 102 456 102 456 175 c 2,10,-1
 456 244 l 2,11,12
 456 317 456 317 364 317 c 256,13,4
 272 317 272 317 272 244 c 2,5,-1
399 504 m 2,14,-1
 402 653 l 2,15,16
 403 713 403 713 420 744 c 0,17,18
 436 773 436 773 487 805 c 0,19,20
 508 819 508 819 524 829 c 0,21,22
 668 917 668 917 668 1059 c 0,23,24
 668 1172 668 1172 593 1237 c 0,25,26
 517 1302 517 1302 383 1302 c 0,27,28
 253 1302 253 1302 179 1235 c 1,29,30
 104 1169 104 1169 104 1054 c 0,31,32
 104 1028 104 1028 118 1016 c 0,33,34
 132 1005 132 1005 162 1005 c 0,35,36
 188 1005 188 1005 206 1016 c 0,37,38
 221 1026 221 1026 223 1046 c 0,39,40
 232 1162 232 1162 264 1204 c 1,41,42
 295 1248 295 1248 363 1248 c 0,43,44
 440 1248 440 1248 480 1201 c 1,45,46
 518 1154 518 1154 518 1059 c 0,47,48
 518 971 518 971 478 908 c 1,49,50
 436 844 436 844 331 771 c 1,51,-1
 331 505 l 2,52,53
 331 464 331 464 341 436 c 0,54,55
 349 411 349 411 364 411 c 0,56,57
 381 411 381 411 390 433 c 256,58,59
 399 455 399 455 399 504 c 2,14,-1
EndSplineSet
Validated: 1
EndChar

StartChar: excl
Encoding: 33 33 4
Width: 498
GlyphClass: 2
Flags: W
LayerCount: 2
Fore
SplineSet
319 374 m 1,0,1
 319 331 319 331 269 331 c 2,2,-1
 248 331 l 2,3,4
 199 331 199 331 199 374 c 1,5,-1
 129 1329 l 1,6,-1
 129 1340 l 2,7,8
 129 1424 129 1424 227 1424 c 2,9,-1
 290 1424 l 2,10,11
 389 1424 389 1424 389 1339 c 2,12,-1
 389 1329 l 1,13,-1
 319 374 l 1,0,1
259 250 m 256,14,15
 394 250 394 250 394 143 c 2,16,-1
 394 61 l 2,17,18
 394 -45 394 -45 259 -45 c 256,19,20
 124 -45 124 -45 124 61 c 2,21,-1
 124 143 l 2,22,23
 124 250 124 250 259 250 c 256,14,15
EndSplineSet
Validated: 1
EndChar

StartChar: quot
Encoding: 34 34 5
Width: 834
GlyphClass: 2
Flags: W
LayerCount: 2
Fore
SplineSet
247 968 m 1,0,1
 247 937 247 937 203 937 c 2,2,-1
 188 937 l 2,3,4
 145 937 145 937 145 968 c 1,5,-1
 93 1408 l 1,6,-1
 93 1413 l 2,7,8
 93 1463 93 1463 172 1463 c 2,9,-1
 219 1463 l 2,10,11
 298 1463 298 1463 298 1414 c 2,12,-1
 298 1408 l 1,13,-1
 247 968 l 1,0,1
619 968 m 1,14,15
 619 937 619 937 576 937 c 2,16,-1
 561 937 l 2,17,18
 518 937 518 937 518 968 c 1,19,-1
 466 1408 l 1,20,-1
 466 1413 l 2,21,22
 466 1463 466 1463 545 1463 c 2,23,-1
 592 1463 l 2,24,25
 671 1463 671 1463 671 1412 c 2,26,-1
 671 1408 l 1,27,-1
 619 968 l 1,14,15
EndSplineSet
Validated: 1
EndChar

StartChar: numbersign
Encoding: 35 35 6
Width: 1128
GlyphClass: 2
Flags: W
LayerCount: 2
Fore
SplineSet
358 18 m 2,0,-1
 358 361 l 1,1,-1
 104 361 l 2,2,3
 65 361 65 361 65 391 c 2,4,-1
 65 476 l 2,5,6
 65 506 65 506 104 506 c 2,7,-1
 358 506 l 1,8,-1
 358 741 l 1,9,-1
 104 741 l 2,10,11
 65 741 65 741 65 771 c 2,12,-1
 65 856 l 2,13,14
 65 886 65 886 104 886 c 2,15,-1
 358 886 l 1,16,-1
 358 1229 l 2,17,18
 358 1266 358 1266 393 1266 c 2,19,-1
 478 1266 l 2,20,21
 513 1266 513 1266 513 1229 c 2,22,-1
 513 886 l 1,23,-1
 650 886 l 1,24,-1
 650 1229 l 2,25,26
 650 1266 650 1266 686 1266 c 2,27,-1
 770 1266 l 2,28,29
 806 1266 806 1266 806 1229 c 2,30,-1
 806 886 l 1,31,-1
 1059 886 l 2,32,33
 1099 886 1099 886 1099 856 c 2,34,-1
 1099 771 l 2,35,36
 1099 741 1099 741 1059 741 c 2,37,-1
 806 741 l 1,38,-1
 806 506 l 1,39,-1
 1059 506 l 2,40,41
 1099 506 1099 506 1099 476 c 2,42,-1
 1099 391 l 2,43,44
 1099 361 1099 361 1059 361 c 2,45,-1
 806 361 l 1,46,-1
 806 18 l 2,47,48
 806 -20 806 -20 770 -20 c 2,49,-1
 686 -20 l 2,50,51
 650 -20 650 -20 650 18 c 2,52,-1
 650 361 l 1,53,-1
 513 361 l 1,54,-1
 513 18 l 2,55,56
 513 -20 513 -20 478 -20 c 2,57,-1
 393 -20 l 2,58,59
 358 -20 358 -20 358 18 c 2,0,-1
513 741 m 1,60,-1
 513 506 l 1,61,-1
 650 506 l 1,62,-1
 650 741 l 1,63,-1
 513 741 l 1,60,-1
EndSplineSet
Validated: 1
EndChar

StartChar: dollar
Encoding: 36 36 7
Width: 1024
GlyphClass: 2
Flags: W
LayerCount: 2
Fore
SplineSet
467 1524 m 2,0,-1
 513 1524 l 2,1,2
 561 1524 561 1524 561 1481 c 2,3,-1
 561 1377 l 1,4,5
 747 1377 747 1377 925 1262 c 1,6,-1
 901 1054 l 2,7,8
 897 1018 897 1018 861 1018 c 0,9,10
 853 1018 853 1018 849 1019 c 0,11,12
 825 1021 825 1021 808 1058 c 0,13,14
 770 1138 770 1138 698.5 1193.5 c 128,-1,15
 627 1249 627 1249 561 1251 c 1,16,-1
 561 786 l 1,17,18
 592 781 592 781 648.5 772 c 128,-1,19
 705 763 705 763 759 747 c 0,20,21
 857 717 857 717 910 661 c 1,22,23
 949 618 949 618 969 570 c 0,24,25
 996 507 996 507 996 428 c 0,26,27
 996 219 996 219 826 80 c 0,28,29
 737 7 737 7 630 -27 c 0,30,31
 588 -40 588 -40 561 -45 c 1,32,-1
 561 -213 l 2,33,34
 561 -256 561 -256 513 -256 c 2,35,-1
 467 -256 l 2,36,37
 419 -256 419 -256 419 -213 c 2,38,-1
 419 -59 l 1,39,-1
 416 -59 l 2,40,41
 269 -59 269 -59 134 -17 c 1,42,-1
 41 243 l 1,43,-1
 43 270 l 1,44,45
 49 305 49 305 88 305 c 2,46,-1
 93 305 l 1,47,48
 119 300 119 300 137 265 c 1,49,50
 189 153 189 153 259.5 110 c 128,-1,51
 330 67 330 67 419 67 c 1,52,-1
 419 597 l 1,53,54
 385 603 385 603 332 615.5 c 128,-1,55
 279 628 279 628 228 653 c 1,56,57
 138 695 138 695 94.5 777 c 128,-1,58
 51 859 51 859 51 953 c 0,59,60
 51 1135 51 1135 181 1256 c 0,61,62
 280 1347 280 1347 419 1368 c 1,63,-1
 419 1481 l 2,64,65
 419 1524 419 1524 467 1524 c 2,0,-1
561 573 m 1,66,-1
 561 76 l 1,67,68
 673 92 673 92 742 201 c 1,69,70
 783 268 783 268 783 364 c 2,71,-1
 783 373 l 1,72,73
 781 469 781 469 712 519 c 0,74,75
 678 543 678 543 633 556 c 0,76,77
 590 568 590 568 561 573 c 1,66,-1
419 811 m 1,78,-1
 419 1237 l 2,79,80
 419 1236 419 1236 391 1224 c 1,81,82
 353 1206 353 1206 329 1179 c 1,83,84
 307 1157 307 1157 289 1120 c 0,85,86
 274 1087 274 1087 267 1052 c 0,87,88
 261 1024 261 1024 261 998 c 0,89,90
 261 965 261 965 271 935 c 0,91,92
 288 879 288 879 331 848 c 0,93,94
 363 824 363 824 402 815 c 0,95,96
 408 813 408 813 419 811 c 1,78,-1
EndSplineSet
Validated: 1
EndChar

StartChar: percnt
Encoding: 37 37 8
Width: 1024
GlyphClass: 2
Flags: W
LayerCount: 2
Fore
SplineSet
763 581 m 0,0,1
 688 580 688 580 673.5 513 c 128,-1,2
 659 446 659 446 659 396 c 2,3,-1
 659 202 l 2,4,5
 659 151 659 151 675 84 c 128,-1,6
 691 17 691 17 763 17 c 0,7,8
 811 17 811 17 839 69 c 128,-1,9
 867 121 867 121 867 202 c 2,10,-1
 867 396 l 2,11,12
 867 476 867 476 841.5 528.5 c 128,-1,13
 816 581 816 581 763 581 c 0,0,1
763 658 m 0,14,15
 887 658 887 658 952 582.5 c 128,-1,16
 1017 507 1017 507 1017 407 c 2,17,-1
 1017 190 l 2,18,19
 1017 87 1017 87 943 14 c 128,-1,20
 869 -59 869 -59 763 -59 c 0,21,22
 630 -59 630 -59 569 15 c 128,-1,23
 508 89 508 89 508 190 c 2,24,-1
 508 407 l 2,25,26
 508 508 508 508 574.5 583 c 128,-1,27
 641 658 641 658 763 658 c 0,14,15
274 1301 m 1,28,29
 199 1299 199 1299 184.5 1232 c 128,-1,30
 170 1165 170 1165 170 1115 c 2,31,-1
 170 921 l 2,32,33
 170 870 170 870 186 803 c 128,-1,34
 202 736 202 736 274 736 c 0,35,36
 322 736 322 736 350 788 c 128,-1,37
 378 840 378 840 378 921 c 2,38,-1
 378 1115 l 2,39,40
 378 1196 378 1196 353 1248.5 c 128,-1,41
 328 1301 328 1301 274 1301 c 1,28,29
274 1377 m 0,42,43
 399 1377 399 1377 464 1302 c 128,-1,44
 529 1227 529 1227 529 1127 c 2,45,-1
 529 909 l 2,46,47
 529 807 529 807 454.5 733 c 128,-1,48
 380 659 380 659 274 659 c 0,49,50
 142 659 142 659 81 734 c 128,-1,51
 20 809 20 809 20 909 c 2,52,-1
 20 1127 l 2,53,54
 20 1228 20 1228 86 1302.5 c 128,-1,55
 152 1377 152 1377 274 1377 c 0,42,43
914 1420 m 1,56,-1
 1058 1420 l 1,57,-1
 123 -20 l 1,58,-1
 -21 -20 l 1,59,-1
 914 1420 l 1,56,-1
EndSplineSet
Validated: 1
EndChar

StartChar: amp
Encoding: 38 38 9
Width: 1292
GlyphClass: 2
Flags: W
LayerCount: 2
Fore
SplineSet
906 303 m 1,0,-1
 1017 165 l 1,1,2
 1063 106 1063 106 1164 58 c 1,3,4
 1198 43 1198 43 1210 24 c 1,5,6
 1213 13 1213 13 1213 4 c 1,7,8
 1211 0 1211 0 1211 -4 c 1,9,10
 1193 -22 1193 -22 1172 -22 c 2,11,-1
 928 -22 l 2,12,13
 878 -22 878 -22 828 57 c 1,14,15
 795 107 795 107 782 122 c 1,16,17
 719 44 719 44 623 -4 c 0,18,19
 525 -52 525 -52 403 -52 c 0,20,21
 255 -52 255 -52 166 37 c 1,22,23
 88 117 88 117 88 240 c 0,24,25
 88 253 88 253 89 265 c 0,26,27
 95 389 95 389 165 488 c 1,28,29
 230 583 230 583 371 676 c 1,30,31
 319 746 319 746 284 829 c 0,32,33
 253 901 253 901 253 982 c 0,34,35
 253 996 253 996 254 1010 c 0,36,37
 259 1148 259 1148 347 1235 c 0,38,39
 434 1322 434 1322 575 1322 c 0,40,41
 713 1322 713 1322 788 1251 c 0,42,43
 857 1185 857 1185 857 1079 c 2,44,-1
 857 1062 l 1,45,46
 850 951 850 951 785 865 c 0,47,48
 718 776 718 776 599 701 c 1,49,-1
 830 398 l 1,50,-1
 923 571 l 1,51,52
 929 585 929 585 931 599 c 0,53,54
 932 604 932 604 932 608 c 0,55,56
 932 616 932 616 930 621 c 0,57,58
 927 631 927 631 920.5 639 c 128,-1,59
 914 647 914 647 910 660 c 0,60,61
 908 666 908 666 908 671 c 2,62,-1
 908 674 l 2,63,64
 908 677 908 677 911 686 c 0,65,66
 923 720 923 720 956 720 c 2,67,-1
 1214 720 l 2,68,69
 1237 720 1237 720 1249 706 c 0,70,71
 1255 700 1255 700 1255 690 c 2,72,-1
 1255 688 l 2,73,74
 1255 683 1255 683 1253 675 c 1,75,76
 1243 656 1243 656 1208 639 c 0,77,78
 1192 632 1192 632 1175 624 c 128,-1,79
 1158 616 1158 616 1143 606 c 0,80,81
 1073 561 1073 561 1022 485 c 128,-1,82
 971 409 971 409 906 303 c 1,0,-1
534 788 m 1,83,84
 598 826 598 826 638 890 c 1,85,86
 676 953 676 953 683 1052 c 1,87,-1
 683 1066 l 2,88,89
 683 1130 683 1130 660 1176 c 0,90,91
 639 1216 639 1216 568 1216 c 0,92,93
 513 1216 513 1216 482 1180 c 0,94,95
 446 1137 446 1137 442 1061 c 0,96,97
 441 1050 441 1050 441 1041 c 0,98,99
 441 906 441 906 534 788 c 1,83,84
712 214 m 1,100,-1
 432 584 l 1,101,102
 306 492 306 492 298 336 c 0,103,104
 297 326 297 326 297 316 c 0,105,106
 297 220 297 220 349 152 c 0,107,108
 403 82 403 82 484 82 c 0,109,110
 556 82 556 82 614.5 122.5 c 128,-1,111
 673 163 673 163 712 214 c 1,100,-1
EndSplineSet
Validated: 1
EndChar

StartChar: apos
Encoding: 39 39 10
Width: 426
GlyphClass: 2
Flags: W
LayerCount: 2
Fore
SplineSet
247 968 m 1,0,1
 247 937 247 937 203 937 c 2,2,-1
 188 937 l 2,3,4
 145 937 145 937 145 968 c 1,5,-1
 93 1408 l 1,6,-1
 93 1413 l 2,7,8
 93 1463 93 1463 172 1463 c 2,9,-1
 219 1463 l 2,10,11
 298 1463 298 1463 298 1414 c 2,12,-1
 298 1408 l 1,13,-1
 247 968 l 1,0,1
EndSplineSet
Validated: 1
EndChar

StartChar: lpar
Encoding: 40 40 11
Width: 682
GlyphClass: 2
Flags: W
LayerCount: 2
Fore
SplineSet
114 757 m 2,0,1
 114 896 114 896 132.5 1024.5 c 128,-1,2
 151 1153 151 1153 215 1252 c 0,3,4
 247 1303 247 1303 280 1345.5 c 128,-1,5
 313 1388 313 1388 368 1421 c 0,6,7
 475 1487 475 1487 580 1487 c 0,8,9
 627 1487 627 1487 627 1437 c 0,10,11
 627 1410 627 1410 621 1404 c 1,12,13
 612 1390 612 1390 556 1377 c 128,-1,14
 500 1364 500 1364 441 1304 c 1,15,16
 376 1240 376 1240 348 1113 c 0,17,18
 320 985 320 985 320 640 c 2,19,-1
 320 497 l 2,20,21
 320 150 320 150 348 22 c 0,22,23
 376 -103 376 -103 442 -168 c 1,24,25
 477 -201 477 -201 506 -218 c 256,26,27
 535 -235 535 -235 582 -249 c 1,28,29
 617 -261 617 -261 626 -275 c 1,30,31
 626 -281 626 -281 627 -300 c 1,32,-1
 627 -305 l 2,33,34
 627 -326 627 -326 617 -338 c 1,35,36
 603 -352 603 -352 576 -352 c 0,37,38
 498 -352 498 -352 416 -312 c 0,39,40
 331 -271 331 -271 257 -176 c 128,-1,41
 183 -81 183 -81 153 19 c 0,42,43
 114 150 114 150 114 377 c 2,44,-1
 114 757 l 2,0,1
EndSplineSet
Validated: 1
EndChar

StartChar: rpar
Encoding: 41 41 12
Width: 682
GlyphClass: 2
Flags: W
LayerCount: 2
Fore
SplineSet
627 757 m 2,0,-1
 627 377 l 2,1,2
 627 145 627 145 588 18 c 0,3,4
 557 -81 557 -81 483.5 -176 c 128,-1,5
 410 -271 410 -271 326 -312 c 0,6,7
 243 -352 243 -352 166 -352 c 0,8,9
 139 -352 139 -352 126 -339 c 1,10,11
 113 -328 113 -328 113 -304 c 2,12,-1
 113 -300 l 1,13,14
 115 -270 115 -270 119 -267 c 1,15,16
 121 -263 121 -263 159 -249 c 1,17,18
 204 -236 204 -236 237 -217 c 0,19,20
 267 -199 267 -199 299 -168 c 0,21,22
 365 -103 365 -103 393 22 c 0,23,24
 422 155 422 155 422 497 c 2,25,-1
 422 640 l 2,26,27
 422 981 422 981 393 1113 c 0,28,29
 365 1239 365 1239 299 1306 c 1,30,31
 240 1364 240 1364 183 1377.5 c 128,-1,32
 126 1391 126 1391 119 1406 c 0,33,34
 114 1415 114 1415 114 1437 c 0,35,36
 114 1487 114 1487 161 1487 c 0,37,38
 265 1487 265 1487 373 1421 c 0,39,40
 428 1388 428 1388 461 1345.5 c 128,-1,41
 494 1303 494 1303 527 1252 c 0,42,43
 589 1153 589 1153 608 1024.5 c 128,-1,44
 627 896 627 896 627 757 c 2,0,-1
EndSplineSet
Validated: 1
EndChar

StartChar: ast
Encoding: 42 42 13
Width: 1024
GlyphClass: 2
Flags: W
LayerCount: 2
Fore
SplineSet
285 859 m 2,0,-1
 454 762 l 1,1,-1
 454 963 l 2,2,3
 454 1020 454 1020 506 1020 c 2,4,-1
 558 1020 l 2,5,6
 610 1020 610 1020 610 963 c 2,7,-1
 610 762 l 1,8,-1
 779 859 l 2,9,10
 799 871 799 871 818 871 c 0,11,12
 847 871 847 871 861 847 c 2,13,-1
 888 801 l 2,14,15
 893 791 893 791 893 781 c 0,16,17
 893 755 893 755 860 736 c 2,18,-1
 680 632 l 1,19,-1
 861 527 l 1,20,21
 893 507 893 507 893 482 c 0,22,23
 893 472 893 472 888 462 c 2,24,-1
 861 416 l 2,25,26
 847 392 847 392 818 392 c 0,27,28
 799 392 799 392 779 404 c 2,29,-1
 610 501 l 1,30,-1
 610 300 l 2,31,32
 610 243 610 243 558 243 c 2,33,-1
 506 243 l 2,34,35
 454 243 454 243 454 300 c 2,36,-1
 454 501 l 1,37,-1
 286 404 l 1,38,39
 266 391 266 391 246 391 c 0,40,41
 217 391 217 391 203 416 c 2,42,-1
 177 462 l 2,43,44
 171 473 171 473 171 483 c 0,45,46
 171 508 171 508 203 527 c 2,47,-1
 384 632 l 1,48,-1
 204 736 l 2,49,50
 171 754 171 754 171 779 c 0,51,52
 171 790 171 790 177 801 c 2,53,-1
 203 847 l 2,54,55
 217 871 217 871 246 871 c 0,56,57
 265 871 265 871 285 859 c 2,0,-1
EndSplineSet
Validated: 1
EndChar

StartChar: plus
Encoding: 43 43 14
Width: 1024
GlyphClass: 2
Flags: W
LayerCount: 2
Fore
SplineSet
200 704 m 2,0,-1
 454 704 l 1,1,-1
 454 963 l 2,2,3
 454 1020 454 1020 506 1020 c 2,4,-1
 558 1020 l 2,5,6
 610 1020 610 1020 610 963 c 2,7,-1
 610 704 l 1,8,-1
 864 704 l 2,9,10
 926 704 926 704 926 658 c 2,11,-1
 926 605 l 2,12,13
 926 559 926 559 864 559 c 2,14,-1
 610 559 l 1,15,-1
 610 300 l 2,16,17
 610 243 610 243 558 243 c 2,18,-1
 506 243 l 2,19,20
 454 243 454 243 454 300 c 2,21,-1
 454 559 l 1,22,-1
 200 559 l 2,23,24
 138 559 138 559 138 605 c 2,25,-1
 138 658 l 2,26,27
 138 704 138 704 200 704 c 2,0,-1
EndSplineSet
Validated: 1
EndChar

StartChar: comma
Encoding: 44 44 15
Width: 480
GlyphClass: 2
Flags: W
LayerCount: 2
Fore
SplineSet
251 250 m 256,0,1
 386 250 386 250 386 143 c 2,2,-1
 386 61 l 2,3,4
 386 37 386 37 376 8 c 128,-1,5
 366 -21 366 -21 360 -41 c 1,6,7
 317 -159 317 -159 199 -240 c 1,8,9
 154 -268 154 -268 123 -268 c 0,10,11
 96 -268 96 -268 81 -253 c 0,12,13
 67 -239 67 -239 67 -224 c 256,14,15
 67 -209 67 -209 81 -193 c 0,16,17
 98 -174 98 -174 126 -158 c 0,18,19
 211 -106 211 -106 223 -45 c 1,20,-1
 251 -45 l 2,21,22
 116 -45 116 -45 116 61 c 2,23,-1
 116 143 l 2,24,25
 116 250 116 250 251 250 c 256,0,1
EndSplineSet
Validated: 1
EndChar

StartChar: hyphen
Encoding: 45 45 16
Width: 1024
GlyphClass: 2
Flags: W
LayerCount: 2
Fore
SplineSet
200 704 m 2,0,-1
 864 704 l 2,1,2
 926 704 926 704 926 658 c 2,3,-1
 926 605 l 2,4,5
 926 559 926 559 864 559 c 2,6,-1
 200 559 l 2,7,8
 138 559 138 559 138 605 c 2,9,-1
 138 658 l 2,10,11
 138 704 138 704 200 704 c 2,0,-1
EndSplineSet
Validated: 1
EndChar

StartChar: period
Encoding: 46 46 17
Width: 480
GlyphClass: 2
Flags: W
LayerCount: 2
Fore
SplineSet
257 250 m 256,0,1
 392 250 392 250 392 143 c 2,2,-1
 392 61 l 2,3,4
 392 -45 392 -45 257 -45 c 256,5,6
 122 -45 122 -45 122 61 c 2,7,-1
 122 143 l 2,8,9
 122 250 122 250 257 250 c 256,0,1
EndSplineSet
Validated: 1
EndChar

StartChar: sol
Encoding: 47 47 18
Width: 1024
GlyphClass: 2
Flags: W
LayerCount: 2
Fore
SplineSet
-38 -90 m 1,0,-1
 827 1494 l 1,1,-1
 1021 1494 l 1,2,-1
 157 -90 l 1,3,-1
 -38 -90 l 1,0,-1
EndSplineSet
Validated: 1
EndChar

StartChar: zero
Encoding: 48 48 19
Width: 1100
GlyphClass: 2
Flags: W
LayerCount: 2
Fore
SplineSet
549 1316 m 1,0,1
 387 1313 387 1313 357 1175.5 c 128,-1,2
 327 1038 327 1038 327 939 c 2,3,-1
 327 441 l 2,4,5
 327 342 327 342 360 203.5 c 128,-1,6
 393 65 393 65 549 65 c 0,7,8
 656 65 656 65 713.5 173 c 128,-1,9
 771 281 771 281 771 441 c 2,10,-1
 771 939 l 2,11,12
 771 1099 771 1099 717 1213 c 1,13,14
 667 1316 667 1316 551 1316 c 2,15,-1
 549 1316 l 1,0,1
549 1426 m 0,16,17
 775 1426 775 1426 894 1287.5 c 128,-1,18
 1013 1149 1013 1149 1013 962 c 2,19,-1
 1013 419 l 2,20,21
 1013 229 1013 229 877 92.5 c 128,-1,22
 741 -44 741 -44 549 -44 c 0,23,24
 308 -44 308 -44 196.5 93 c 128,-1,25
 85 230 85 230 85 419 c 2,26,-1
 85 962 l 2,27,28
 85 1151 85 1151 206.5 1288.5 c 128,-1,29
 328 1426 328 1426 549 1426 c 0,16,17
EndSplineSet
Validated: 1
EndChar

StartChar: one
Encoding: 49 49 20
Width: 1000
GlyphClass: 2
Flags: W
LayerCount: 2
Fore
SplineSet
350 -20 m 2,0,1
 305 -20 305 -20 305 20 c 0,2,3
 305 57 305 57 353.5 74.5 c 128,-1,4
 402 92 402 92 402 142 c 2,5,-1
 402 1197 l 1,6,-1
 204 1197 l 1,7,-1
 204 1263 l 2,8,9
 204 1306 204 1306 267.5 1329.5 c 128,-1,10
 331 1353 331 1353 419 1377 c 0,11,12
 470 1390 470 1390 517 1403 c 128,-1,13
 564 1416 564 1416 627 1435 c 1,14,-1
 627 142 l 2,15,16
 627 92 627 92 675.5 74.5 c 128,-1,17
 724 57 724 57 724 20 c 0,18,19
 724 -20 724 -20 679 -20 c 2,20,-1
 350 -20 l 2,0,1
EndSplineSet
Validated: 1
EndChar

StartChar: two
Encoding: 50 50 21
Width: 1100
GlyphClass: 2
Flags: W
LayerCount: 2
Fore
SplineSet
147 -20 m 1,0,-1
 147 80 l 2,1,2
 147 168 147 168 200 234 c 0,3,4
 250 297 250 297 360 415 c 1,5,6
 424 477 424 477 487 546.5 c 128,-1,7
 550 616 550 616 607 685 c 0,8,9
 688 781 688 781 725 880 c 1,10,11
 752 948 752 948 752 1006 c 0,12,13
 752 1059 752 1059 729 1102 c 0,14,15
 682 1191 682 1191 593 1226 c 0,16,17
 543 1245 543 1245 487 1245 c 0,18,19
 444 1245 444 1245 398 1234 c 0,20,21
 292 1207 292 1207 222 1106 c 0,22,23
 196 1068 196 1068 185 1003 c 1,24,-1
 137 1179 l 1,25,26
 147 1207 147 1207 159 1230 c 1,27,28
 203 1300 203 1300 279 1354.5 c 128,-1,29
 355 1409 355 1409 463 1426 c 0,30,31
 506 1432 506 1432 548 1432 c 0,32,33
 685 1432 685 1432 809 1362 c 0,34,35
 972 1270 972 1270 975 1060 c 1,36,-1
 975 1056 l 2,37,38
 975 919 975 919 902 797 c 256,39,40
 829 675 829 675 730 565.5 c 128,-1,41
 631 456 631 456 531 357.5 c 128,-1,42
 431 259 431 259 394 195 c 1,43,-1
 715 195 l 2,44,45
 835 195 835 195 979 247 c 1,46,-1
 979 31 l 1,47,48
 908 -13 908 -13 840 -16.5 c 128,-1,49
 772 -20 772 -20 715 -20 c 2,50,-1
 147 -20 l 1,0,-1
EndSplineSet
Validated: 1
EndChar

StartChar: three
Encoding: 51 51 22
Width: 1100
GlyphClass: 2
Flags: W
LayerCount: 2
Fore
SplineSet
722 48 m 1,0,1
 617 -27 617 -27 447 -47 c 0,2,3
 422 -50 422 -50 397 -50 c 0,4,5
 261 -50 261 -50 155 33 c 1,6,-1
 149 319 l 1,7,8
 248 125 248 125 379 91 c 0,9,10
 429 78 429 78 473 78 c 0,11,12
 546 78 546 78 606 111 c 1,13,14
 699 159 699 159 732 251 c 0,15,16
 751 303 751 303 751 354 c 0,17,18
 751 397 751 397 738 439 c 0,19,20
 709 532 709 532 617 600.5 c 128,-1,21
 525 669 525 669 344 672 c 1,22,-1
 342 733 l 1,23,24
 423 759 423 759 505 795.5 c 128,-1,25
 587 832 587 832 630 905 c 0,26,27
 665 965 665 965 665 1025 c 0,28,29
 665 1042 665 1042 662 1060 c 0,30,31
 649 1135 649 1135 600 1186 c 0,32,33
 544 1244 544 1244 457 1253 c 1,34,-1
 439 1253 l 2,35,36
 349 1253 349 1253 287 1184 c 0,37,38
 237 1129 237 1129 216 1071 c 1,39,-1
 180 1253 l 1,40,41
 270 1353 270 1353 362 1389.5 c 128,-1,42
 454 1426 454 1426 541 1426 c 1,43,44
 784 1423 784 1423 861 1233 c 0,45,46
 883 1179 883 1179 883 1125 c 0,47,48
 883 994 883 994 747 865 c 0,49,50
 713 833 713 833 706 828 c 1,51,52
 824 770 824 770 891 654 c 1,53,54
 947 554 947 554 947 448 c 0,55,56
 947 427 947 427 946 415 c 0,57,58
 928 199 928 199 722 48 c 1,0,1
EndSplineSet
Validated: 1
EndChar

StartChar: four
Encoding: 52 52 23
Width: 1100
GlyphClass: 2
Flags: W
LayerCount: 2
Fore
SplineSet
621 383 m 1,0,-1
 56 383 l 1,1,-1
 56 520 l 1,2,-1
 631 1385 l 1,3,-1
 846 1385 l 1,4,-1
 846 560 l 1,5,-1
 1042 560 l 1,6,-1
 1042 383 l 1,7,-1
 846 383 l 1,8,-1
 846 142 l 2,9,10
 846 94 846 94 915 76.5 c 128,-1,11
 984 59 984 59 984 20 c 0,12,13
 984 -20 984 -20 939 -20 c 2,14,-1
 528 -20 l 2,15,16
 482 -20 482 -20 482 20 c 0,17,18
 482 59 482 59 551.5 76.5 c 128,-1,19
 621 94 621 94 621 142 c 2,20,-1
 621 383 l 1,0,-1
621 560 m 1,21,-1
 621 1130 l 1,22,-1
 246 560 l 1,23,-1
 621 560 l 1,21,-1
EndSplineSet
Validated: 1
EndChar

StartChar: five
Encoding: 53 53 24
Width: 1100
GlyphClass: 2
Flags: W
LayerCount: 2
Fore
SplineSet
255 1175 m 1,0,-1
 255 779 l 1,1,2
 256 779 256 779 297.5 803.5 c 128,-1,3
 339 828 339 828 388 847 c 0,4,5
 483 885 483 885 593 885 c 0,6,7
 609 885 609 885 626 884 c 0,8,9
 783 872 783 872 897 734 c 1,10,11
 1004 595 1004 595 1004 425 c 2,12,-1
 1004 419 l 1,13,14
 1001 243 1001 243 856 98 c 0,15,16
 715 -43 715 -43 501 -43 c 2,17,-1
 492 -43 l 1,18,19
 362 -40 362 -40 290 -20 c 128,-1,20
 218 0 218 0 145 32 c 1,21,22
 89 54 89 54 86 101 c 0,23,24
 84 124 84 124 84 144 c 0,25,26
 84 212 84 212 110 238 c 1,27,28
 137 263 137 263 158 263 c 0,29,30
 174 263 174 263 184 253 c 1,31,32
 224 205 224 205 291 149 c 1,33,34
 349 99 349 99 455 99 c 2,35,-1
 463 99 l 2,36,37
 553 99 553 99 628 154.5 c 128,-1,38
 703 210 703 210 740 297 c 0,39,40
 765 357 765 357 765 425 c 0,41,42
 765 471 765 471 754 522 c 0,43,44
 726 642 726 642 624 699 c 1,45,46
 550 739 550 739 488 739 c 0,47,48
 460 739 460 739 435 732 c 0,49,50
 347 705 347 705 290 655 c 0,51,52
 256 626 256 626 227 621 c 1,53,54
 209 616 209 616 190 616 c 0,55,56
 181 616 181 616 175 617 c 1,57,58
 161 617 161 617 136 619 c 128,-1,59
 111 621 111 621 111 668 c 2,60,-1
 111 1320 l 2,61,62
 111 1362 111 1362 121 1373.5 c 128,-1,63
 131 1385 131 1385 181 1385 c 2,64,-1
 661 1385 l 2,65,66
 716 1385 716 1385 782 1381.5 c 128,-1,67
 848 1378 848 1378 918 1335 c 1,68,-1
 918 1125 l 1,69,70
 782 1175 782 1175 661 1175 c 2,71,-1
 255 1175 l 1,0,-1
EndSplineSet
Validated: 1
EndChar

StartChar: six
Encoding: 54 54 25
Width: 1100
GlyphClass: 2
Flags: W
LayerCount: 2
Fore
SplineSet
537 862 m 1,0,1
 430 856 430 856 349.5 735.5 c 128,-1,2
 269 615 269 615 269 446 c 256,3,4
 269 277 269 277 352 164 c 0,5,6
 426 62 426 62 526 62 c 2,7,-1
 537 62 l 1,8,9
 643 67 643 67 723.5 188 c 128,-1,10
 804 309 804 309 804 478 c 0,11,12
 804 646 804 646 721 760 c 0,13,14
 647 862 647 862 547 862 c 2,15,-1
 537 862 l 1,0,1
364 946 m 1,16,17
 395 964 395 964 525 964 c 0,18,19
 558 964 558 964 593 960 c 0,20,21
 764 941 764 941 875 840 c 1,22,23
 1040 685 1040 685 1042 462 c 1,24,25
 1042 254 1042 254 896 103 c 0,26,27
 752 -46 752 -46 552 -46 c 2,28,-1
 539 -46 l 1,29,30
 324 -40 324 -40 188 108 c 0,31,32
 57 250 57 250 57 453 c 2,33,-1
 57 462 l 1,34,35
 60 778 60 778 197 1002.5 c 128,-1,36
 334 1227 334 1227 579 1395 c 2,37,-1
 608 1415 l 1,38,39
 639 1431 639 1431 677 1431 c 2,40,-1
 680 1431 l 1,41,42
 713 1430 713 1430 743 1430 c 0,43,44
 810 1430 810 1430 810 1401 c 0,45,46
 810 1385 810 1385 785 1372 c 1,47,48
 625 1260 625 1260 520.5 1152 c 128,-1,49
 416 1044 416 1044 364 946 c 1,16,17
EndSplineSet
Validated: 1
EndChar

StartChar: seven
Encoding: 55 55 26
Width: 1100
GlyphClass: 2
Flags: W
LayerCount: 2
Fore
SplineSet
405 142 m 0,0,1
 371 74 371 74 347 -20 c 1,2,-1
 139 -19 l 1,3,4
 136 12 136 12 136 25 c 0,5,6
 136 77 136 77 157 126 c 0,7,8
 183 184 183 184 208 233 c 1,9,10
 332 464 332 464 495 742.5 c 128,-1,11
 658 1021 658 1021 750 1175 c 1,12,-1
 402 1175 l 2,13,14
 280 1175 280 1175 145 1125 c 1,15,-1
 145 1335 l 1,16,17
 214 1378 214 1378 280 1381.5 c 128,-1,18
 346 1385 346 1385 402 1385 c 2,19,-1
 882 1385 l 2,20,21
 930 1385 930 1385 941 1374 c 128,-1,22
 952 1363 952 1363 952 1320 c 1,23,24
 950 1248 950 1248 920 1187 c 0,25,26
 791 926 791 926 662.5 664.5 c 128,-1,27
 534 403 534 403 405 142 c 0,0,1
EndSplineSet
Validated: 1
EndChar

StartChar: eight
Encoding: 56 56 27
Width: 1100
GlyphClass: 2
Flags: W
LayerCount: 2
Fore
SplineSet
558 715 m 0,0,1
 447 715 447 715 368 642.5 c 128,-1,2
 289 570 289 570 289 394 c 0,3,4
 289 216 289 216 358.5 144 c 128,-1,5
 428 72 428 72 558 72 c 0,6,7
 687 72 687 72 756 141.5 c 128,-1,8
 825 211 825 211 825 394 c 0,9,10
 825 576 825 576 746.5 645.5 c 128,-1,11
 668 715 668 715 558 715 c 0,0,1
590 1428 m 1,12,13
 806 1425 806 1425 910 1321 c 0,14,15
 1009 1223 1009 1223 1009 1070 c 2,16,-1
 1009 1058 l 1,17,18
 1003 814 1003 814 813 773 c 1,19,20
 874 757 874 757 964 657.5 c 128,-1,21
 1054 558 1054 558 1060 392 c 1,22,-1
 1060 375 l 2,23,24
 1060 171 1060 171 919 69 c 0,25,26
 773 -37 773 -37 541 -39 c 1,27,-1
 533 -39 l 2,28,29
 307 -39 307 -39 173 72 c 0,30,31
 38 184 38 184 38 391 c 0,32,33
 38 553 38 553 132.5 655 c 128,-1,34
 227 757 227 757 299 775 c 1,35,36
 114 819 114 819 114 1072 c 2,37,-1
 114 1076 l 2,38,39
 114 1251 114 1251 247 1342 c 0,40,41
 373 1428 373 1428 576 1428 c 2,42,-1
 590 1428 l 1,12,13
563 1325 m 256,43,44
 448 1325 448 1325 397 1252.5 c 128,-1,45
 346 1180 346 1180 346 1073 c 0,46,47
 346 964 346 964 389.5 893 c 128,-1,48
 433 822 433 822 563 822 c 0,49,50
 692 822 692 822 736 893 c 128,-1,51
 780 964 780 964 780 1073 c 0,52,53
 780 1180 780 1180 729 1252.5 c 128,-1,54
 678 1325 678 1325 563 1325 c 256,43,44
EndSplineSet
Validated: 1
EndChar

StartChar: nine
Encoding: 57 57 28
Width: 1100
GlyphClass: 2
Flags: W
LayerCount: 2
Fore
SplineSet
561 523 m 1,0,1
 668 528 668 528 748.5 648.5 c 128,-1,2
 829 769 829 769 829 938 c 0,3,4
 828 1107 828 1107 745 1220 c 0,5,6
 671 1322 671 1322 573 1322 c 2,7,-1
 562 1322 l 1,8,9
 454 1317 454 1317 375 1198 c 0,10,11
 294 1077 294 1077 294 911 c 2,12,-1
 294 907 l 2,13,14
 294 738 294 738 377 625 c 1,15,16
 449 523 449 523 549 523 c 2,17,-1
 561 523 l 1,0,1
734 438 m 1,18,19
 703 420 703 420 573 420 c 0,20,21
 539 420 539 420 505 424 c 0,22,23
 333 443 333 443 223 545 c 0,24,25
 57 699 57 699 57 923 c 2,26,-1
 57 929 l 2,27,28
 57 1132 57 1132 201 1282 c 0,29,30
 345 1431 345 1431 546 1431 c 2,31,-1
 559 1431 l 1,32,33
 774 1425 774 1425 910 1277 c 0,34,35
 1042 1133 1042 1133 1042 929 c 2,36,-1
 1042 923 l 1,37,38
 1038 605 1038 605 901 381 c 128,-1,39
 764 157 764 157 520 -10 c 0,40,41
 511 -16 511 -16 504.5 -20 c 128,-1,42
 498 -24 498 -24 490 -30 c 1,43,44
 459 -46 459 -46 421 -46 c 0,45,46
 407 -46 407 -46 406 -45 c 1,47,-1
 355 -45 l 2,48,49
 287 -45 287 -45 287 -16 c 0,50,51
 287 0 287 0 313 13 c 1,52,53
 472 124 472 124 577 232 c 128,-1,54
 682 340 682 340 734 438 c 1,18,19
EndSplineSet
Validated: 1
EndChar

StartChar: colon
Encoding: 58 58 29
Width: 512
GlyphClass: 2
Flags: W
LayerCount: 2
Fore
SplineSet
257 968 m 256,0,1
 392 968 392 968 392 861 c 2,2,-1
 392 779 l 2,3,4
 392 672 392 672 257 672 c 256,5,6
 122 672 122 672 122 779 c 2,7,-1
 122 861 l 2,8,9
 122 968 122 968 257 968 c 256,0,1
257 250 m 256,10,11
 392 250 392 250 392 143 c 2,12,-1
 392 61 l 2,13,14
 392 -45 392 -45 257 -45 c 256,15,16
 122 -45 122 -45 122 61 c 2,17,-1
 122 143 l 2,18,19
 122 250 122 250 257 250 c 256,10,11
EndSplineSet
Validated: 1
EndChar

StartChar: semi
Encoding: 59 59 30
Width: 512
GlyphClass: 2
Flags: W
LayerCount: 2
Fore
SplineSet
257 968 m 256,0,1
 392 968 392 968 392 861 c 2,2,-1
 392 779 l 2,3,4
 392 672 392 672 257 672 c 256,5,6
 122 672 122 672 122 779 c 2,7,-1
 122 861 l 2,8,9
 122 968 122 968 257 968 c 256,0,1
257 250 m 256,10,11
 392 250 392 250 392 143 c 2,12,-1
 392 61 l 2,13,14
 392 37 392 37 382 8 c 128,-1,15
 372 -21 372 -21 365 -41 c 0,16,17
 324 -159 324 -159 205 -240 c 0,18,19
 161 -269 161 -269 129 -269 c 0,20,21
 101 -269 101 -269 85 -251 c 0,22,23
 73 -239 73 -239 73 -224 c 256,24,25
 73 -209 73 -209 87 -193 c 0,26,27
 104 -174 104 -174 132 -158 c 0,28,29
 217 -106 217 -106 229 -45 c 1,30,-1
 257 -45 l 1,31,32
 122 -43 122 -43 122 61 c 2,33,-1
 122 143 l 2,34,35
 122 250 122 250 257 250 c 256,10,11
EndSplineSet
Validated: 1
EndChar

StartChar: lt
Encoding: 60 60 31
Width: 1024
GlyphClass: 2
Flags: W
LayerCount: 2
Fore
SplineSet
169 595 m 2,0,1
 153 610 153 610 153 629 c 0,2,3
 153 652 153 652 180 678 c 2,4,-1
 797 1281 l 2,5,6
 825 1307 825 1307 852 1307 c 0,7,8
 876 1307 876 1307 894 1289 c 2,9,-1
 942 1240 l 1,10,11
 956 1224 956 1224 956 1206 c 0,12,13
 956 1182 956 1182 931 1158 c 2,14,-1
 393 631 l 1,15,-1
 932 105 l 1,16,17
 956 80 956 80 956 56 c 0,18,19
 956 39 956 39 942 23 c 1,20,-1
 892 -27 l 2,21,22
 876 -43 876 -43 852 -43 c 0,23,24
 825 -43 825 -43 797 -17 c 2,25,-1
 169 595 l 2,0,1
EndSplineSet
Validated: 1
EndChar

StartChar: equals
Encoding: 61 61 32
Width: 1024
GlyphClass: 2
Flags: W
LayerCount: 2
Fore
SplineSet
204 557 m 2,0,-1
 867 557 l 2,1,2
 929 557 929 557 929 510 c 2,3,-1
 929 458 l 2,4,5
 929 411 929 411 867 411 c 2,6,-1
 204 411 l 2,7,8
 142 411 142 411 142 458 c 2,9,-1
 142 510 l 2,10,11
 142 557 142 557 204 557 c 2,0,-1
204 852 m 2,12,-1
 867 852 l 2,13,14
 929 852 929 852 929 805 c 2,15,-1
 929 753 l 2,16,17
 929 706 929 706 867 706 c 2,18,-1
 204 706 l 2,19,20
 142 706 142 706 142 753 c 2,21,-1
 142 805 l 2,22,23
 142 852 142 852 204 852 c 2,12,-1
EndSplineSet
Validated: 1
EndChar

StartChar: gt
Encoding: 62 62 33
Width: 1024
GlyphClass: 2
Flags: W
LayerCount: 2
Fore
SplineSet
941 668 m 2,0,1
 957 653 957 653 957 634 c 0,2,3
 957 611 957 611 931 586 c 2,4,-1
 313 -17 l 2,5,6
 285 -43 285 -43 257 -43 c 0,7,8
 234 -43 234 -43 218 -27 c 2,9,-1
 170 21 l 2,10,11
 153 38 153 38 153 57 c 0,12,13
 153 80 153 80 180 106 c 2,14,-1
 718 632 l 1,15,-1
 180 1157 l 2,16,17
 153 1182 153 1182 153 1206 c 0,18,19
 153 1223 153 1223 168 1240 c 1,20,-1
 216 1289 l 2,21,22
 234 1307 234 1307 257 1307 c 0,23,24
 285 1307 285 1307 313 1281 c 2,25,-1
 941 668 l 2,0,1
EndSplineSet
Validated: 1
EndChar

StartChar: quest
Encoding: 63 63 34
Width: 784
GlyphClass: 2
Flags: W
LayerCount: 2
Fore
SplineSet
444 441 m 1,0,1
 444 386 444 386 433 352 c 1,2,3
 416 312 416 312 379 312 c 0,4,5
 343 312 343 312 328 357 c 1,6,7
 316 388 316 388 316 442 c 2,8,-1
 316 758 l 1,9,10
 445 849 445 849 489 918 c 0,11,12
 533 988 533 988 533 1083 c 0,13,14
 533 1186 533 1186 492 1237 c 0,15,16
 455 1282 455 1282 378 1282 c 0,17,18
 313 1282 313 1282 284 1242 c 0,19,20
 250 1194 250 1194 240 1068 c 0,21,22
 237 1036 237 1036 211 1019 c 1,23,24
 186 1001 186 1001 144 1001 c 0,25,26
 100 1001 100 1001 75 1020 c 1,27,28
 53 1039 53 1039 53 1077 c 0,29,30
 53 1217 53 1217 147 1301 c 256,31,32
 241 1385 241 1385 401 1385 c 0,33,34
 566 1385 566 1385 662 1304 c 1,35,36
 756 1223 756 1223 756 1084 c 0,37,38
 756 910 756 910 579 800 c 0,39,40
 561 789 561 789 536 774 c 0,41,42
 481 739 481 739 467 710 c 1,43,44
 451 682 451 682 448 613 c 1,45,-1
 444 441 l 1,0,1
379 243 m 0,46,47
 511 243 511 243 511 139 c 2,48,-1
 511 59 l 2,49,50
 511 -44 511 -44 379 -44 c 0,51,52
 248 -44 248 -44 248 59 c 2,53,-1
 248 139 l 2,54,55
 248 243 248 243 379 243 c 0,46,47
EndSplineSet
Validated: 1
EndChar

StartChar: commat
Encoding: 64 64 35
Width: 1560
GlyphClass: 2
Flags: W
LayerCount: 2
Fore
SplineSet
899 524 m 1,0,1
 905 574 905 574 915 616 c 0,2,3
 930 683 930 683 945 762 c 1,4,5
 963 864 963 864 972 893 c 0,6,7
 974 901 974 901 974 909 c 0,8,9
 974 919 974 919 970 926 c 0,10,11
 922 992 922 992 860 1015 c 1,12,13
 824 1027 824 1027 792 1027 c 0,14,15
 776 1027 776 1027 760 1024 c 0,16,17
 711 1014 711 1014 689 999 c 0,18,19
 642 966 642 966 611.5 908 c 128,-1,20
 581 850 581 850 568 788 c 0,21,22
 558 745 558 745 558 709 c 0,23,24
 558 631 558 631 601 576 c 0,25,26
 652 509 652 509 760 505 c 1,27,-1
 767 505 l 2,28,29
 795 505 795 505 831 524 c 1,30,31
 853 537 853 537 869 537 c 0,32,33
 891 537 891 537 899 524 c 1,0,1
1090 1040 m 1,34,35
 1094 1041 1094 1041 1101 1045 c 0,36,37
 1137 1065 1137 1065 1160 1065 c 0,38,39
 1174 1065 1174 1065 1185 1058 c 1,40,41
 1204 1042 1204 1042 1204 1026 c 2,42,-1
 1204 1022 l 1,43,44
 1199 1000 1199 1000 1158 903 c 128,-1,45
 1117 806 1117 806 1102 759 c 0,46,47
 1066 643 1066 643 1059 568.5 c 128,-1,48
 1052 494 1052 494 1052 464 c 0,49,50
 1052 374 1052 374 1121 374 c 0,51,52
 1179 374 1179 374 1240 429 c 1,53,54
 1303 488 1303 488 1346 598 c 1,55,56
 1389 711 1389 711 1389 851 c 0,57,58
 1389 1096 1389 1096 1240 1213 c 1,59,60
 1090 1328 1090 1328 875 1328 c 0,61,62
 714 1328 714 1328 557 1247 c 1,63,64
 398 1167 398 1167 301 1001 c 1,65,66
 201 834 201 834 201 620 c 0,67,68
 201 451 201 451 267 318 c 0,69,70
 332 185 332 185 458 111 c 0,71,72
 581 38 581 38 756 38 c 0,73,74
 903 38 903 38 1036 90 c 0,75,76
 1155 137 1155 137 1251 217 c 1,77,78
 1262 224 1262 224 1274 224 c 0,79,80
 1288 224 1288 224 1303 212 c 1,81,82
 1314 201 1314 201 1314 186 c 0,83,84
 1314 177 1314 177 1310 165 c 1,85,86
 1298 144 1298 144 1286 133 c 0,87,88
 1173 27 1173 27 1028.5 -18 c 128,-1,89
 884 -63 884 -63 723 -63 c 0,90,91
 414 -63 414 -63 219 129 c 0,92,93
 22 323 22 323 22 621 c 0,94,95
 22 956 22 956 266 1189 c 1,96,97
 512 1421 512 1421 868 1421 c 0,98,99
 1153 1421 1153 1421 1344 1266 c 1,100,101
 1532 1110 1532 1110 1532 853 c 0,102,103
 1532 631 1532 631 1394 455 c 1,104,105
 1254 269 1254 269 1078 269 c 0,106,107
 1000 269 1000 269 943 328 c 0,108,109
 893 379 893 379 893 446 c 2,110,-1
 893 459 l 2,111,112
 893 466 893 466 894 473 c 1,113,114
 880 451 880 451 807 409 c 1,115,116
 757 379 757 379 687 379 c 0,117,118
 642 379 642 379 588 392 c 1,119,120
 488 413 488 413 433 485.5 c 128,-1,121
 378 558 378 558 368 652 c 0,122,123
 366 670 366 670 366 688 c 0,124,125
 366 758 366 758 393 833 c 0,126,127
 426 928 426 928 506 1009 c 0,128,129
 606 1112 606 1112 765 1130 c 0,130,131
 795 1133 795 1133 826 1133 c 0,132,133
 948 1133 948 1133 1047 1074 c 1,134,135
 1075 1056 1075 1056 1090 1041 c 1,136,-1
 1090 1040 l 1,34,35
EndSplineSet
Validated: 1
EndChar

StartChar: A
Encoding: 65 65 36
Width: 1593
GlyphClass: 2
Flags: W
LayerCount: 2
Fore
SplineSet
856 1447 m 1,0,1
 912 1315 912 1315 985.5 1144 c 128,-1,2
 1059 973 1059 973 1137.5 792 c 128,-1,3
 1216 611 1216 611 1289.5 440 c 128,-1,4
 1363 269 1363 269 1414 152 c 0,5,6
 1427 120 1427 120 1465 94 c 1,7,8
 1486 81 1486 81 1508.5 71 c 128,-1,9
 1531 61 1531 61 1547 50 c 0,10,11
 1562 39 1562 39 1567 28 c 0,12,13
 1571 21 1571 21 1571 13 c 0,14,15
 1571 6 1571 6 1566 -3 c 0,16,17
 1558 -20 1558 -20 1532 -20 c 2,18,-1
 1194 -20 l 2,19,20
 1176 -20 1176 -20 1160 -9 c 0,21,22
 1143 3 1143 3 1140 14 c 1,23,24
 1137 19 1137 19 1137 27 c 0,25,26
 1137 44 1137 44 1155 59 c 0,27,28
 1165 68 1165 68 1176 76.5 c 128,-1,29
 1187 85 1187 85 1191 97 c 0,30,31
 1193 103 1193 103 1193 110 c 0,32,33
 1193 124 1193 124 1186 141 c 2,34,-1
 1044 469 l 1,35,-1
 497 469 l 1,36,37
 467 397 467 397 431.5 311.5 c 128,-1,38
 396 226 396 226 360 141 c 0,39,40
 352 123 352 123 351 109 c 0,41,42
 350 103 350 103 350 97 c 0,43,44
 350 89 350 89 352 82 c 0,45,46
 355 72 355 72 361.5 64 c 128,-1,47
 368 56 368 56 373 42 c 1,48,49
 374 32 374 32 374 28 c 0,50,51
 374 21 374 21 371 15 c 0,52,53
 359 -20 359 -20 325 -20 c 2,54,-1
 67 -20 l 2,55,56
 42 -20 42 -20 28 1 c 1,57,58
 28 3 28 3 26 7 c 1,59,60
 26 15 26 15 29 26 c 1,61,62
 39 48 39 48 75 64 c 0,63,64
 89 71 89 71 106 79 c 128,-1,65
 123 87 123 87 139 98 c 0,66,67
 171 121 171 121 185 153 c 2,68,-1
 758 1447 l 1,69,-1
 856 1447 l 1,0,1
992 590 m 1,70,-1
 766 1117 l 1,71,72
 726 1020 726 1020 662.5 868 c 128,-1,73
 599 716 599 716 547 590 c 1,74,-1
 992 590 l 1,70,-1
EndSplineSet
Validated: 1
EndChar

StartChar: B
Encoding: 66 66 37
Width: 1240
GlyphClass: 2
Flags: W
LayerCount: 2
Fore
SplineSet
704 1424 m 2,0,1
 807 1424 807 1424 920.5 1387.5 c 128,-1,2
 1034 1351 1034 1351 1095 1243 c 0,3,4
 1143 1159 1143 1159 1143 1041 c 1,5,6
 1141 928 1141 928 1078 839 c 0,7,8
 1031 771 1031 771 980 748 c 1,9,10
 1083 715 1083 715 1154 594 c 1,11,12
 1206 501 1206 501 1206 372 c 1,13,14
 1204 248 1204 248 1135 150 c 0,15,16
 1074 64 1074 64 963.5 22 c 128,-1,17
 853 -20 853 -20 761 -20 c 2,18,-1
 134 -20 l 2,19,20
 88 -20 88 -20 88 21 c 0,21,22
 88 59 88 59 138 77 c 128,-1,23
 188 95 188 95 188 146 c 2,24,-1
 188 1258 l 2,25,26
 188 1308 188 1308 138 1326 c 128,-1,27
 88 1344 88 1344 88 1383 c 0,28,29
 88 1424 88 1424 134 1424 c 2,30,-1
 704 1424 l 2,0,1
418 667 m 1,31,-1
 418 93 l 1,32,-1
 619 93 l 2,33,34
 688 93 688 93 757 113 c 128,-1,35
 826 133 826 133 876 182 c 0,36,37
 953 257 953 257 953 383 c 0,38,39
 953 504 953 504 872 584 c 1,40,41
 786 667 786 667 640 667 c 2,42,-1
 418 667 l 1,31,-1
418 794 m 1,43,-1
 667 794 l 1,44,45
 774 806 774 806 840 869 c 0,46,47
 909 936 909 936 909 1050 c 0,48,49
 909 1161 909 1161 836 1231 c 0,50,51
 759 1305 759 1305 629 1305 c 2,52,-1
 418 1305 l 1,53,-1
 418 794 l 1,43,-1
EndSplineSet
Validated: 1
EndChar

StartChar: C
Encoding: 67 67 38
Width: 1400
GlyphClass: 2
Flags: W
LayerCount: 2
Fore
SplineSet
848 -57 m 0,0,1
 531 -57 531 -57 286.5 145 c 128,-1,2
 42 347 42 347 42 701 c 0,3,4
 42 1046 42 1046 279.5 1255.5 c 128,-1,5
 517 1465 517 1465 848 1465 c 0,6,7
 966 1465 966 1465 1099.5 1438.5 c 128,-1,8
 1233 1412 1233 1412 1365 1328 c 1,9,-1
 1340 1106 l 1,10,11
 1332 1071 1332 1071 1295 1071 c 2,12,-1
 1291 1071 l 1,13,14
 1263 1073 1263 1073 1243 1112 c 1,15,16
 1181 1244 1181 1244 1091 1287 c 128,-1,17
 1001 1330 1001 1330 848 1330 c 0,18,19
 636 1330 636 1330 469 1181.5 c 128,-1,20
 302 1033 302 1033 302 701 c 0,21,22
 302 489 302 489 459 292.5 c 128,-1,23
 616 96 616 96 849 85 c 0,24,25
 873 84 873 84 894 84 c 0,26,27
 1015 84 1015 84 1093 120 c 1,28,29
 1181 162 1181 162 1243 295 c 1,30,31
 1262 331 1262 331 1290 336 c 1,32,-1
 1297 336 l 2,33,34
 1334 336 1334 336 1340 300 c 1,35,-1
 1343 272 l 1,36,-1
 1252 17 l 1,37,38
 1143 -28 1143 -28 1041 -42.5 c 128,-1,39
 939 -57 939 -57 848 -57 c 0,0,1
EndSplineSet
Validated: 1
EndChar

StartChar: D
Encoding: 68 68 39
Width: 1585
GlyphClass: 2
Flags: W
LayerCount: 2
Fore
SplineSet
1525 792 m 0,0,1
 1527 758 1527 758 1527 727 c 0,2,3
 1527 558 1527 558 1464 422 c 0,4,5
 1388 260 1388 260 1252 155 c 0,6,7
 1021 -23 1021 -23 689 -27 c 1,8,-1
 609 -27 l 2,9,10
 551 -27 551 -27 500 -26 c 1,11,-1
 383 -26 l 2,12,13
 299 -26 299 -26 256 -23 c 1,14,-1
 233 -23 l 2,15,16
 194 -23 194 -23 130 -29 c 1,17,18
 83 -29 83 -29 83 13 c 0,19,20
 83 51 83 51 133 69 c 128,-1,21
 183 87 183 87 183 139 c 2,22,-1
 183 1262 l 2,23,24
 183 1313 183 1313 133 1330.5 c 128,-1,25
 83 1348 83 1348 83 1387 c 0,26,27
 83 1428 83 1428 129 1428 c 1,28,29
 171 1427 171 1427 214 1427 c 0,30,31
 256 1427 256 1427 299 1428 c 0,32,33
 385 1431 385 1431 468 1433 c 1,34,-1
 527 1433 l 2,35,36
 681 1433 681 1433 837 1425 c 1,37,38
 1025 1414 1025 1414 1177 1349 c 1,39,40
 1321 1285 1321 1285 1415.5 1154 c 128,-1,41
 1510 1023 1510 1023 1525 792 c 0,0,1
424 1297 m 1,42,-1
 424 116 l 1,43,44
 526 97 526 97 637 97 c 0,45,46
 680 97 680 97 721 100 c 0,47,48
 868 111 868 111 981 171 c 0,49,50
 1115 241 1115 241 1193 388 c 0,51,52
 1265 524 1265 524 1265 736 c 2,53,-1
 1265 769 l 1,54,55
 1261 927 1261 927 1209.5 1033 c 128,-1,56
 1158 1139 1158 1139 1074 1201 c 0,57,58
 951 1293 951 1293 775 1309 c 0,59,60
 714 1314 714 1314 651 1314 c 0,61,62
 530 1314 530 1314 424 1297 c 1,42,-1
EndSplineSet
Validated: 1
EndChar

StartChar: E
Encoding: 69 69 40
Width: 1251
GlyphClass: 2
Flags: W
LayerCount: 2
Fore
SplineSet
461 114 m 1,0,-1
 863 114 l 2,1,2
 943 114 943 114 1003.5 181 c 128,-1,3
 1064 248 1064 248 1097 288 c 0,4,5
 1123 319 1123 319 1146 319 c 0,6,7
 1192 319 1192 319 1192 278 c 0,8,9
 1192 263 1192 263 1189 253 c 2,10,-1
 1112 -20 l 1,11,-1
 173 -20 l 2,12,13
 130 -20 130 -20 130 21 c 0,14,15
 130 59 130 59 180 76.5 c 128,-1,16
 230 94 230 94 230 146 c 2,17,-1
 230 1257 l 2,18,19
 230 1309 230 1309 180 1326.5 c 128,-1,20
 130 1344 130 1344 130 1383 c 0,21,22
 130 1424 130 1424 176 1424 c 2,23,-1
 1129 1424 l 1,24,-1
 1129 1147 l 2,25,26
 1129 1106 1129 1106 1083 1106 c 0,27,28
 1058 1106 1058 1106 1024 1156 c 1,29,30
 975 1224 975 1224 943 1257.5 c 128,-1,31
 911 1291 911 1291 863 1291 c 2,32,-1
 461 1291 l 1,33,-1
 461 788 l 1,34,-1
 665 788 l 2,35,36
 711 788 711 788 731 839.5 c 128,-1,37
 751 891 751 891 795 891 c 0,38,39
 840 891 840 891 840 850 c 2,40,-1
 840 596 l 2,41,42
 840 555 840 555 795 555 c 0,43,44
 752 555 752 555 729 606 c 128,-1,45
 706 657 706 657 659 657 c 2,46,-1
 461 657 l 1,47,-1
 461 114 l 1,0,-1
EndSplineSet
Validated: 1
EndChar

StartChar: F
Encoding: 70 70 41
Width: 1139
GlyphClass: 2
Flags: W
LayerCount: 2
Fore
SplineSet
174 -20 m 2,0,1
 130 -20 130 -20 130 21 c 0,2,3
 130 43 130 43 161 62 c 1,4,5
 175 72 175 72 193.5 83.5 c 128,-1,6
 212 95 212 95 222 112 c 1,7,8
 230 128 230 128 230 146 c 2,9,-1
 230 1257 l 2,10,11
 230 1309 230 1309 180 1326.5 c 128,-1,12
 130 1344 130 1344 130 1383 c 0,13,14
 130 1424 130 1424 176 1424 c 2,15,-1
 1129 1424 l 1,16,-1
 1129 1147 l 2,17,18
 1129 1106 1129 1106 1083 1106 c 0,19,20
 1058 1106 1058 1106 1024 1156 c 1,21,22
 975 1224 975 1224 943 1257.5 c 128,-1,23
 911 1291 911 1291 863 1291 c 2,24,-1
 461 1291 l 1,25,-1
 461 788 l 1,26,-1
 665 788 l 2,27,28
 694 788 694 788 718 816 c 0,29,30
 735 836 735 836 748.5 863.5 c 128,-1,31
 762 891 762 891 795 891 c 0,32,33
 840 891 840 891 840 850 c 2,34,-1
 840 596 l 2,35,36
 840 555 840 555 795 555 c 0,37,38
 760 555 760 555 745 586 c 128,-1,39
 730 617 730 617 711 638 c 1,40,41
 691 658 691 658 665 658 c 2,42,-1
 461 658 l 1,43,-1
 461 146 l 2,44,45
 461 122 461 122 471 106 c 1,46,47
 481 92 481 92 496.5 82 c 128,-1,48
 512 72 512 72 527 63 c 0,49,50
 560 43 560 43 560 21 c 0,51,52
 560 13 560 13 558 5 c 1,53,54
 543 -20 543 -20 515 -20 c 2,55,-1
 174 -20 l 2,0,1
EndSplineSet
Validated: 1
EndChar

StartChar: G
Encoding: 71 71 42
Width: 1563
GlyphClass: 2
Flags: W
LayerCount: 2
Fore
SplineSet
848 -57 m 0,0,1
 531 -57 531 -57 286.5 145 c 128,-1,2
 42 347 42 347 42 701 c 0,3,4
 42 1046 42 1046 279.5 1255.5 c 128,-1,5
 517 1465 517 1465 848 1465 c 0,6,7
 966 1465 966 1465 1099.5 1438.5 c 128,-1,8
 1233 1412 1233 1412 1365 1328 c 1,9,-1
 1340 1106 l 1,10,11
 1332 1071 1332 1071 1295 1071 c 2,12,-1
 1291 1071 l 1,13,14
 1263 1073 1263 1073 1243 1112 c 1,15,16
 1181 1244 1181 1244 1091 1287 c 128,-1,17
 1001 1330 1001 1330 848 1330 c 0,18,19
 636 1330 636 1330 469 1181.5 c 128,-1,20
 302 1033 302 1033 302 701 c 0,21,22
 302 489 302 489 459 292.5 c 128,-1,23
 616 96 616 96 849 85 c 0,24,25
 873 84 873 84 894 84 c 0,26,27
 1002 84 1002 84 1075 112 c 0,28,29
 1160 145 1160 145 1217 244 c 1,30,-1
 1217 428 l 1,31,32
 1216 448 1216 448 1196 459 c 0,33,34
 1171 473 1171 473 1112.5 497 c 128,-1,35
 1054 521 1054 521 1054 554 c 0,36,37
 1054 595 1054 595 1100 595 c 2,38,-1
 1501 595 l 2,39,40
 1547 595 1547 595 1547 554 c 0,41,42
 1547 515 1547 515 1497 497 c 128,-1,43
 1447 479 1447 479 1447 428 c 2,44,-1
 1447 20 l 1,45,46
 1272 12 1272 12 1132 -23 c 1,47,48
 1058 -43 1058 -43 986 -50 c 128,-1,49
 914 -57 914 -57 848 -57 c 0,0,1
EndSplineSet
Validated: 1
EndChar

StartChar: H
Encoding: 72 72 43
Width: 1638
GlyphClass: 2
Flags: W
LayerCount: 2
Fore
SplineSet
460 1257 m 2,0,-1
 460 809 l 1,1,-1
 1255 809 l 1,2,-1
 1255 1257 l 2,3,4
 1255 1308 1255 1308 1205 1326 c 128,-1,5
 1155 1344 1155 1344 1155 1383 c 0,6,7
 1155 1424 1155 1424 1201 1424 c 2,8,-1
 1540 1424 l 2,9,10
 1586 1424 1586 1424 1586 1383 c 0,11,12
 1586 1344 1586 1344 1535.5 1326 c 128,-1,13
 1485 1308 1485 1308 1485 1257 c 2,14,-1
 1485 146 l 2,15,16
 1485 94 1485 94 1535.5 76.5 c 128,-1,17
 1586 59 1586 59 1586 21 c 0,18,19
 1586 -20 1586 -20 1540 -20 c 2,20,-1
 1201 -20 l 2,21,22
 1155 -20 1155 -20 1155 21 c 0,23,24
 1155 59 1155 59 1205 76.5 c 128,-1,25
 1255 94 1255 94 1255 146 c 2,26,-1
 1255 677 l 1,27,-1
 460 677 l 1,28,-1
 460 146 l 2,29,30
 460 94 460 94 510 76.5 c 128,-1,31
 560 59 560 59 560 21 c 0,32,33
 560 -20 560 -20 515 -20 c 2,34,-1
 176 -20 l 2,35,36
 130 -20 130 -20 130 21 c 0,37,38
 130 59 130 59 180 76.5 c 128,-1,39
 230 94 230 94 230 146 c 2,40,-1
 230 1257 l 2,41,42
 230 1308 230 1308 180 1326 c 128,-1,43
 130 1344 130 1344 130 1383 c 0,44,45
 130 1424 130 1424 176 1424 c 2,46,-1
 515 1424 l 2,47,48
 560 1424 560 1424 560 1383 c 0,49,50
 560 1344 560 1344 510 1326 c 128,-1,51
 460 1308 460 1308 460 1257 c 2,0,-1
EndSplineSet
Validated: 1
EndChar

StartChar: I
Encoding: 73 73 44
Width: 690
GlyphClass: 2
Flags: W
LayerCount: 2
Fore
SplineSet
460 1257 m 2,0,-1
 460 147 l 2,1,2
 460 94 460 94 510 76.5 c 128,-1,3
 560 59 560 59 560 21 c 0,4,5
 560 -20 560 -20 514 -20 c 2,6,-1
 175 -20 l 2,7,8
 130 -20 130 -20 130 21 c 0,9,10
 130 59 130 59 180 76.5 c 128,-1,11
 230 94 230 94 230 146 c 2,12,-1
 230 1257 l 2,13,14
 230 1309 230 1309 180 1326.5 c 128,-1,15
 130 1344 130 1344 130 1383 c 0,16,17
 130 1424 130 1424 176 1424 c 2,18,-1
 514 1424 l 2,19,20
 560 1424 560 1424 560 1383 c 0,21,22
 560 1344 560 1344 510 1326.5 c 128,-1,23
 460 1309 460 1309 460 1257 c 2,0,-1
EndSplineSet
Validated: 1
EndChar

StartChar: J
Encoding: 74 74 45
Width: 682
GlyphClass: 2
Flags: W
LayerCount: 2
Fore
SplineSet
455 180 m 2,0,1
 455 -19 455 -19 427.5 -118 c 128,-1,2
 400 -217 400 -217 332 -289 c 1,3,4
 237 -386 237 -386 85 -427 c 1,5,-1
 85 -339 l 1,6,7
 131 -311 131 -311 162.5 -276.5 c 128,-1,8
 194 -242 194 -242 212 -185 c 1,9,10
 223 -146 223 -146 223.5 -73 c 128,-1,11
 224 0 224 0 224 174 c 2,12,-1
 224 1258 l 2,13,14
 224 1309 224 1309 174 1327 c 128,-1,15
 124 1345 124 1345 124 1384 c 0,16,17
 124 1424 124 1424 170 1424 c 2,18,-1
 509 1424 l 2,19,20
 555 1424 555 1424 555 1384 c 0,21,22
 555 1345 555 1345 505 1327 c 128,-1,23
 455 1309 455 1309 455 1258 c 2,24,-1
 455 180 l 2,0,1
EndSplineSet
Validated: 1
EndChar

StartChar: K
Encoding: 75 75 46
Width: 1487
GlyphClass: 2
Flags: W
LayerCount: 2
Fore
SplineSet
460 800 m 1,0,-1
 939 1254 l 2,1,2
 1017 1327 1017 1327 1071 1379 c 1,3,4
 1114 1423 1114 1423 1162 1423 c 0,5,6
 1187 1423 1187 1423 1211 1411 c 2,7,-1
 1318 1359 l 1,8,9
 1346 1342 1346 1342 1346 1318 c 0,10,11
 1346 1309 1346 1309 1342 1299 c 2,12,-1
 1282 1130 l 1,13,-1
 1186 1170 l 2,14,15
 1152 1184 1152 1184 1125 1184 c 0,16,17
 1085 1184 1085 1184 1053 1153 c 2,18,-1
 663 772 l 1,19,-1
 1402 91 l 1,20,21
 1420 73 1420 73 1448 60.5 c 128,-1,22
 1476 48 1476 48 1476 21 c 0,23,24
 1476 -20 1476 -20 1431 -20 c 2,25,-1
 1092 -20 l 2,26,27
 1046 -20 1046 -20 1046 21 c 0,28,29
 1046 36 1046 36 1064 52 c 0,30,31
 1076 63 1076 63 1077 67 c 1,32,33
 1077 72 1077 72 1048 98 c 2,34,-1
 460 640 l 1,35,-1
 460 146 l 2,36,37
 460 94 460 94 510 76.5 c 128,-1,38
 560 59 560 59 560 21 c 0,39,40
 560 -20 560 -20 515 -20 c 2,41,-1
 176 -20 l 2,42,43
 130 -20 130 -20 130 21 c 0,44,45
 130 59 130 59 180 76.5 c 128,-1,46
 230 94 230 94 230 146 c 2,47,-1
 230 1257 l 2,48,49
 230 1308 230 1308 180 1326 c 128,-1,50
 130 1344 130 1344 130 1383 c 0,51,52
 130 1424 130 1424 176 1424 c 2,53,-1
 515 1424 l 2,54,55
 560 1424 560 1424 560 1383 c 0,56,57
 560 1344 560 1344 510 1326 c 128,-1,58
 460 1308 460 1308 460 1257 c 2,59,-1
 460 800 l 1,0,-1
EndSplineSet
Validated: 1
EndChar

StartChar: L
Encoding: 76 76 47
Width: 1251
GlyphClass: 2
Flags: W
LayerCount: 2
Fore
SplineSet
461 114 m 1,0,-1
 863 114 l 2,1,2
 943 114 943 114 1003.5 181 c 128,-1,3
 1064 248 1064 248 1097 288 c 0,4,5
 1123 319 1123 319 1146 319 c 0,6,7
 1192 319 1192 319 1192 278 c 0,8,9
 1192 263 1192 263 1189 253 c 2,10,-1
 1112 -20 l 1,11,-1
 176 -20 l 2,12,13
 130 -20 130 -20 130 21 c 0,14,15
 130 59 130 59 180 76.5 c 128,-1,16
 230 94 230 94 230 146 c 2,17,-1
 230 1257 l 2,18,19
 230 1308 230 1308 180 1326 c 128,-1,20
 130 1344 130 1344 130 1383 c 0,21,22
 130 1424 130 1424 176 1424 c 2,23,-1
 515 1424 l 2,24,25
 560 1424 560 1424 560 1383 c 0,26,27
 560 1344 560 1344 510 1326 c 128,-1,28
 460 1308 460 1308 460 1257 c 2,29,-1
 461 114 l 1,0,-1
EndSplineSet
Validated: 1
EndChar

StartChar: M
Encoding: 77 77 48
Width: 1908
GlyphClass: 2
Flags: W
LayerCount: 2
Fore
SplineSet
1722 1257 m 2,0,-1
 1722 146 l 2,1,2
 1722 94 1722 94 1772.5 76.5 c 128,-1,3
 1823 59 1823 59 1823 21 c 0,4,5
 1823 -20 1823 -20 1777 -20 c 2,6,-1
 1438 -20 l 2,7,8
 1392 -20 1392 -20 1392 21 c 0,9,10
 1392 59 1392 59 1442 76.5 c 128,-1,11
 1492 94 1492 94 1492 146 c 2,12,-1
 1492 1106 l 1,13,-1
 957 -50 l 1,14,-1
 884 -50 l 1,15,-1
 355 1061 l 1,16,-1
 355 146 l 2,17,18
 355 94 355 94 405 76.5 c 128,-1,19
 455 59 455 59 455 21 c 0,20,21
 455 -20 455 -20 409 -20 c 2,22,-1
 155 -20 l 2,23,24
 109 -20 109 -20 109 21 c 0,25,26
 109 59 109 59 159 76.5 c 128,-1,27
 209 94 209 94 209 146 c 2,28,-1
 209 1257 l 2,29,30
 209 1308 209 1308 159 1326 c 128,-1,31
 109 1344 109 1344 109 1383 c 0,32,33
 109 1424 109 1424 155 1424 c 2,34,-1
 438 1424 l 1,35,-1
 968 338 l 1,36,-1
 1481 1424 l 1,37,-1
 1777 1424 l 2,38,39
 1823 1424 1823 1424 1823 1383 c 0,40,41
 1823 1344 1823 1344 1772.5 1326 c 128,-1,42
 1722 1308 1722 1308 1722 1257 c 2,0,-1
EndSplineSet
Validated: 1
EndChar

StartChar: N
Encoding: 78 78 49
Width: 1644
GlyphClass: 2
Flags: W
LayerCount: 2
Fore
SplineSet
1344 271 m 1,0,-1
 1344 1257 l 2,1,2
 1344 1308 1344 1308 1294.5 1326 c 128,-1,3
 1245 1344 1245 1344 1245 1383 c 0,4,5
 1245 1424 1245 1424 1290 1424 c 2,6,-1
 1545 1424 l 2,7,8
 1591 1424 1591 1424 1591 1383 c 0,9,10
 1591 1344 1591 1344 1541 1326 c 128,-1,11
 1491 1308 1491 1308 1491 1257 c 2,12,-1
 1490 -70 l 1,13,-1
 1272 -17 l 1,14,-1
 355 1121 l 1,15,-1
 355 146 l 2,16,17
 355 94 355 94 405 76.5 c 128,-1,18
 455 59 455 59 455 21 c 0,19,20
 455 -20 455 -20 409 -20 c 2,21,-1
 155 -20 l 2,22,23
 109 -20 109 -20 109 21 c 0,24,25
 109 59 109 59 159 76.5 c 128,-1,26
 209 94 209 94 209 146 c 2,27,-1
 209 1257 l 2,28,29
 209 1308 209 1308 159 1326 c 128,-1,30
 109 1344 109 1344 109 1383 c 0,31,32
 109 1424 109 1424 155 1424 c 2,33,-1
 426 1424 l 1,34,-1
 1344 271 l 1,0,-1
EndSplineSet
Validated: 1
EndChar

StartChar: O
Encoding: 79 79 50
Width: 1610
GlyphClass: 2
Flags: W
LayerCount: 2
Fore
SplineSet
808 1338 m 0,0,1
 516 1337 516 1337 399 1152 c 128,-1,2
 282 967 282 967 282 702 c 256,3,4
 282 437 282 437 429.5 252.5 c 128,-1,5
 577 68 577 68 808 66 c 1,6,-1
 813 66 l 2,7,8
 1038 66 1038 66 1185 260 c 1,9,10
 1333 457 1333 457 1333 696 c 2,11,-1
 1333 702 l 1,12,13
 1331 946 1331 946 1208 1142 c 128,-1,14
 1085 1338 1085 1338 808 1338 c 0,0,1
808 1466 m 1,15,-1
 818 1466 l 2,16,17
 1152 1466 1152 1466 1382 1261 c 0,18,19
 1595 1070 1595 1070 1595 760 c 0,20,21
 1595 732 1595 732 1593 704 c 0,22,23
 1572 353 1572 353 1347.5 158 c 128,-1,24
 1123 -37 1123 -37 807 -55 c 0,25,26
 784 -56 784 -56 760 -56 c 0,27,28
 471 -56 471 -56 249 143 c 0,29,30
 23 345 23 345 23 669 c 0,31,32
 23 687 23 687 24 706 c 0,33,34
 36 1053 36 1053 251 1257.5 c 128,-1,35
 466 1462 466 1462 808 1466 c 1,15,-1
EndSplineSet
Validated: 1
EndChar

StartChar: P
Encoding: 80 80 51
Width: 1237
GlyphClass: 2
Flags: W
LayerCount: 2
Fore
SplineSet
439 146 m 2,0,1
 439 94 439 94 489 76.5 c 128,-1,2
 539 59 539 59 539 21 c 0,3,4
 539 -20 539 -20 494 -20 c 2,5,-1
 155 -20 l 2,6,7
 109 -20 109 -20 109 21 c 0,8,9
 109 59 109 59 158 76.5 c 128,-1,10
 207 94 207 94 207 146 c 2,11,-1
 209 1257 l 2,12,13
 209 1308 209 1308 159 1326 c 128,-1,14
 109 1344 109 1344 109 1383 c 0,15,16
 109 1424 109 1424 155 1424 c 2,17,-1
 745 1424 l 2,18,19
 853 1424 853 1424 971.5 1385.5 c 128,-1,20
 1090 1347 1090 1347 1156 1234 c 1,21,22
 1206 1145 1206 1145 1206 1022 c 1,23,24
 1204 904 1204 904 1138 809 c 0,25,26
 1080 727 1080 727 974 687 c 128,-1,27
 868 647 868 647 781 647 c 2,28,-1
 439 647 l 1,29,-1
 439 146 l 2,0,1
439 1301 m 1,30,-1
 439 757 l 1,31,-1
 646 757 l 2,32,33
 711 757 711 757 776.5 775.5 c 128,-1,34
 842 794 842 794 889 841 c 1,35,36
 963 912 963 912 963 1032 c 0,37,38
 963 1147 963 1147 886 1223 c 1,39,40
 805 1301 805 1301 666 1301 c 2,41,-1
 439 1301 l 1,30,-1
EndSplineSet
Validated: 1
EndChar

StartChar: Q
Encoding: 81 81 52
Width: 1610
GlyphClass: 2
Flags: W
LayerCount: 2
Fore
SplineSet
808 1338 m 0,0,1
 516 1337 516 1337 399 1152 c 128,-1,2
 282 967 282 967 282 702 c 256,3,4
 282 437 282 437 429.5 252.5 c 128,-1,5
 577 68 577 68 808 66 c 1,6,-1
 813 66 l 2,7,8
 1038 66 1038 66 1185 260 c 1,9,10
 1333 457 1333 457 1333 696 c 2,11,-1
 1333 702 l 1,12,13
 1331 946 1331 946 1208 1142 c 128,-1,14
 1085 1338 1085 1338 808 1338 c 0,0,1
628 -47 m 1,15,16
 407 -25 407 -25 209 183 c 0,17,18
 23 377 23 377 23 669 c 0,19,20
 23 687 23 687 24 706 c 0,21,22
 36 1053 36 1053 251 1257.5 c 128,-1,23
 466 1462 466 1462 808 1466 c 1,24,-1
 818 1466 l 2,25,26
 1152 1466 1152 1466 1382 1261 c 0,27,28
 1595 1070 1595 1070 1595 760 c 0,29,30
 1595 732 1595 732 1593 704 c 0,31,32
 1573 368 1573 368 1366 174 c 128,-1,33
 1159 -20 1159 -20 948 -42 c 1,34,-1
 996 -66 l 1,35,36
 1209 -164 1209 -164 1304 -164 c 0,37,38
 1334 -164 1334 -164 1429 -137 c 1,39,-1
 1429 -225 l 1,40,41
 1325 -285 1325 -285 1273 -342 c 1,42,43
 1187 -330 1187 -330 1120 -311 c 1,44,45
 1052 -290 1052 -290 935 -242 c 0,46,47
 736 -161 736 -161 675 -161 c 0,48,49
 664 -161 664 -161 644 -169 c 0,50,51
 618 -179 618 -179 500 -257 c 1,52,-1
 500 -144 l 1,53,54
 615 -55 615 -55 628 -47 c 1,15,16
EndSplineSet
Validated: 1
EndChar

StartChar: R
Encoding: 82 82 53
Width: 1368
GlyphClass: 2
Flags: W
LayerCount: 2
Fore
SplineSet
1283 84 m 1,0,1
 1302 68 1302 68 1339 65 c 1,2,3
 1389 59 1389 59 1389 24 c 2,4,-1
 1389 20 l 1,5,6
 1383 -20 1383 -20 1343 -20 c 2,7,-1
 1076 -20 l 2,8,9
 1053 -20 1053 -20 990 63 c 128,-1,10
 927 146 927 146 849 254 c 128,-1,11
 771 362 771 362 689.5 475 c 128,-1,12
 608 588 608 588 560 647 c 1,13,-1
 439 647 l 1,14,-1
 439 146 l 2,15,16
 439 94 439 94 489 76.5 c 128,-1,17
 539 59 539 59 539 21 c 0,18,19
 539 -20 539 -20 494 -20 c 2,20,-1
 155 -20 l 2,21,22
 109 -20 109 -20 109 21 c 0,23,24
 109 59 109 59 159 76.5 c 128,-1,25
 209 94 209 94 209 146 c 2,26,-1
 209 1257 l 2,27,28
 209 1308 209 1308 159 1326 c 128,-1,29
 109 1344 109 1344 109 1383 c 0,30,31
 109 1424 109 1424 155 1424 c 2,32,-1
 745 1424 l 2,33,34
 853 1424 853 1424 971.5 1385.5 c 128,-1,35
 1090 1347 1090 1347 1156 1234 c 1,36,37
 1206 1145 1206 1145 1206 1022 c 1,38,39
 1204 904 1204 904 1138 809 c 0,40,41
 1084 733 1084 733 989.5 693 c 128,-1,42
 895 653 895 653 850 651 c 1,43,-1
 1283 84 l 1,0,1
439 1301 m 1,44,-1
 439 757 l 1,45,-1
 646 757 l 2,46,47
 711 757 711 757 776.5 775.5 c 128,-1,48
 842 794 842 794 889 841 c 1,49,50
 963 912 963 912 963 1032 c 0,51,52
 963 1147 963 1147 886 1223 c 1,53,54
 805 1301 805 1301 666 1301 c 2,55,-1
 439 1301 l 1,44,-1
EndSplineSet
Validated: 1
EndChar

StartChar: S
Encoding: 83 83 54
Width: 1099
GlyphClass: 2
Flags: W
LayerCount: 2
Fore
SplineSet
533 75 m 0,0,1
 608 80 608 80 677 114.5 c 128,-1,2
 746 149 746 149 788 216 c 0,3,4
 832 287 832 287 832 388 c 2,5,-1
 832 399 l 1,6,7
 829 503 829 503 754 557 c 1,8,9
 720 583 720 583 671 597 c 0,10,11
 567 625 567 625 455.5 637.5 c 128,-1,12
 344 650 344 650 240 700 c 1,13,14
 144 745 144 745 97.5 831.5 c 128,-1,15
 51 918 51 918 51 1018 c 0,16,17
 51 1213 51 1213 188 1338 c 1,18,19
 330 1469 330 1469 545 1469 c 2,20,-1
 576 1469 l 1,21,22
 807 1459 807 1459 980 1347 c 1,23,-1
 955 1126 l 2,24,25
 951 1090 951 1090 911 1090 c 2,26,-1
 906 1090 l 1,27,28
 876 1092 876 1092 858 1131 c 0,29,30
 818 1217 818 1217 741.5 1276 c 128,-1,31
 665 1335 665 1335 579 1339 c 1,32,-1
 564 1339 l 2,33,34
 478 1339 478 1339 413 1309 c 1,35,36
 370 1287 370 1287 345 1261 c 0,37,38
 321 1235 321 1235 302 1197 c 0,39,40
 287 1166 287 1166 279 1124 c 1,41,42
 272 1093 272 1093 272 1066 c 0,43,44
 272 1030 272 1030 283 999 c 1,45,46
 302 938 302 938 348 906 c 1,47,48
 382 880 382 880 423 870 c 0,49,50
 448 863 448 863 483 857 c 128,-1,51
 518 851 518 851 557 845 c 0,52,53
 614 836 614 836 678.5 826 c 128,-1,54
 743 816 743 816 805 798 c 1,55,56
 912 763 912 763 965 706 c 1,57,58
 1003 662 1003 662 1028 610 c 1,59,60
 1056 541 1056 541 1056 459 c 0,61,62
 1056 237 1056 237 875 89 c 0,63,64
 781 12 781 12 667 -25 c 0,65,66
 575 -54 575 -54 471 -58 c 0,67,68
 449 -59 449 -59 427 -59 c 0,69,70
 284 -59 284 -59 140 -15 c 1,71,-1
 42 258 l 2,72,73
 39 266 39 266 39 274 c 0,74,75
 39 289 39 289 49 303 c 1,76,77
 64 327 64 327 96 327 c 1,78,79
 123 320 123 320 140 285 c 0,80,81
 201 152 201 152 291 109 c 0,82,83
 365 73 365 73 481 73 c 0,84,85
 506 73 506 73 533 75 c 0,0,1
EndSplineSet
Validated: 1
EndChar

StartChar: T
Encoding: 84 84 55
Width: 1255
GlyphClass: 2
Flags: W
LayerCount: 2
Fore
SplineSet
1240 1147 m 2,0,1
 1240 1106 1240 1106 1194 1106 c 0,2,3
 1171 1106 1171 1106 1134 1156 c 0,4,5
 1084 1224 1084 1224 1052 1257.5 c 128,-1,6
 1020 1291 1020 1291 972 1291 c 2,7,-1
 746 1291 l 1,8,-1
 746 146 l 2,9,10
 746 94 746 94 796 76 c 128,-1,11
 846 58 846 58 846 20 c 0,12,13
 846 -20 846 -20 801 -20 c 2,14,-1
 462 -20 l 2,15,16
 416 -20 416 -20 416 20 c 0,17,18
 416 58 416 58 466 76 c 128,-1,19
 516 94 516 94 516 146 c 2,20,-1
 516 1291 l 1,21,-1
 286 1291 l 2,22,23
 238 1291 238 1291 205 1257.5 c 128,-1,24
 172 1224 172 1224 123 1156 c 0,25,26
 88 1106 88 1106 64 1106 c 0,27,28
 18 1106 18 1106 18 1147 c 2,29,-1
 18 1332 l 2,30,31
 18 1396 18 1396 45 1412.5 c 128,-1,32
 72 1429 72 1429 157 1429 c 2,33,-1
 1101 1429 l 2,34,35
 1193 1429 1193 1429 1216.5 1413.5 c 128,-1,36
 1240 1398 1240 1398 1240 1332 c 2,37,-1
 1240 1147 l 2,0,1
EndSplineSet
Validated: 1
EndChar

StartChar: U
Encoding: 85 85 56
Width: 1554
GlyphClass: 2
Flags: W
LayerCount: 2
Fore
SplineSet
209 588 m 2,0,-1
 209 1258 l 2,1,2
 209 1309 209 1309 159 1326.5 c 128,-1,3
 109 1344 109 1344 109 1383 c 0,4,5
 109 1424 109 1424 155 1424 c 2,6,-1
 494 1424 l 2,7,8
 539 1424 539 1424 539 1383 c 0,9,10
 539 1344 539 1344 490 1327.5 c 128,-1,11
 441 1311 441 1311 441 1260 c 2,12,-1
 441 721 l 2,13,14
 441 569 441 569 451 452.5 c 128,-1,15
 461 336 461 336 501 258 c 0,16,17
 539 183 539 183 617.5 144.5 c 128,-1,18
 696 106 696 106 839 106 c 0,19,20
 1086 106 1086 106 1173 301 c 1,21,22
 1239 443 1239 443 1239 721 c 2,23,-1
 1239 1257 l 2,24,25
 1239 1308 1239 1308 1189 1326 c 128,-1,26
 1139 1344 1139 1344 1139 1383 c 0,27,28
 1139 1424 1139 1424 1185 1424 c 2,29,-1
 1440 1424 l 2,30,31
 1485 1424 1485 1424 1485 1383 c 0,32,33
 1485 1344 1485 1344 1435.5 1326 c 128,-1,34
 1386 1308 1386 1308 1386 1257 c 2,35,-1
 1386 588 l 1,36,37
 1385 437 1385 437 1358 311 c 128,-1,38
 1331 185 1331 185 1257 97 c 1,39,40
 1122 -59 1122 -59 839 -59 c 0,41,42
 664 -59 664 -59 538 -25.5 c 128,-1,43
 412 8 412 8 335 98 c 0,44,45
 209 244 209 244 209 588 c 2,0,-1
EndSplineSet
Validated: 1
EndChar

StartChar: V
Encoding: 86 86 57
Width: 1479
GlyphClass: 2
Flags: W
LayerCount: 2
Fore
SplineSet
416 1269 m 1,0,-1
 819 237 l 1,1,-1
 1247 1114 l 2,2,3
 1258 1137 1258 1137 1258 1154 c 0,4,5
 1258 1167 1258 1167 1252 1177 c 0,6,7
 1233 1206 1233 1206 1194 1253 c 1,8,-1
 1133 1324 l 1,9,-1
 1272 1429 l 1,10,11
 1287 1442 1287 1442 1307 1442 c 256,12,13
 1327 1442 1327 1442 1348 1425 c 1,14,-1
 1431 1340 l 2,15,16
 1462 1308 1462 1308 1462 1262 c 0,17,18
 1462 1238 1462 1238 1453 1210 c 0,19,20
 1429 1138 1429 1138 1381 1041 c 1,21,-1
 892 26 l 1,22,23
 884 7 884 7 873 -7 c 1,24,25
 856 -20 856 -20 838 -20 c 2,26,-1
 687 -20 l 2,27,28
 663 -20 663 -20 650 -3 c 0,29,30
 645 2 645 2 637 24 c 128,-1,31
 629 46 629 46 626 55 c 2,32,-1
 248 1105 l 1,33,34
 208 1210 208 1210 190 1251 c 0,35,36
 175 1284 175 1284 139 1310 c 1,37,38
 118 1323 118 1323 95 1332.5 c 128,-1,39
 72 1342 72 1342 57 1353 c 1,40,41
 41 1362 41 1362 37 1375 c 1,42,43
 32 1382 32 1382 32 1392 c 0,44,45
 32 1400 32 1400 38 1409 c 0,46,47
 48 1424 48 1424 71 1424 c 2,48,-1
 410 1424 l 2,49,50
 428 1424 428 1424 445 1412 c 1,51,52
 459 1400 459 1400 464 1389 c 1,53,54
 466 1382 466 1382 466 1378 c 0,55,56
 466 1361 466 1361 449 1345 c 0,57,58
 438 1336 438 1336 427.5 1327 c 128,-1,59
 417 1318 417 1318 412 1306 c 0,60,61
 410 1300 410 1300 410 1292 c 0,62,63
 410 1281 410 1281 416 1269 c 1,0,-1
EndSplineSet
Validated: 1
EndChar

StartChar: W
Encoding: 87 87 58
Width: 2048
GlyphClass: 2
Flags: W
LayerCount: 2
Fore
SplineSet
374 1269 m 1,0,-1
 777 237 l 1,1,-1
 992 677 l 1,2,-1
 837 1105 l 2,3,4
 819 1155 819 1155 804.5 1191 c 128,-1,5
 790 1227 790 1227 780 1252 c 1,6,7
 765 1284 765 1284 729 1310 c 1,8,9
 708 1323 708 1323 685 1332.5 c 128,-1,10
 662 1342 662 1342 646 1354 c 1,11,12
 634 1361 634 1361 625 1378 c 1,13,14
 623 1387 623 1387 623 1391 c 0,15,16
 623 1397 623 1397 625 1404 c 1,17,18
 635 1424 635 1424 661 1424 c 2,19,-1
 1000 1424 l 2,20,21
 1019 1424 1019 1424 1034 1413 c 256,22,23
 1049 1402 1049 1402 1054 1388 c 0,24,25
 1056 1382 1056 1382 1056 1378 c 0,26,27
 1056 1361 1056 1361 1039 1345 c 0,28,29
 1028 1336 1028 1336 1017.5 1327 c 128,-1,30
 1007 1318 1007 1318 1002 1306 c 0,31,32
 1000 1300 1000 1300 1000 1292 c 0,33,34
 1000 1281 1000 1281 1006 1269 c 1,35,-1
 1128 957 l 1,36,-1
 1205 1114 l 2,37,38
 1215 1136 1215 1136 1215 1154 c 0,39,40
 1215 1168 1215 1168 1210 1177 c 0,41,42
 1190 1206 1190 1206 1152 1253 c 1,43,-1
 1090 1324 l 1,44,-1
 1230 1429 l 1,45,46
 1245 1442 1245 1442 1265 1442 c 256,47,48
 1285 1442 1285 1442 1306 1425 c 1,49,-1
 1389 1340 l 2,50,51
 1420 1308 1420 1308 1420 1262 c 0,52,53
 1420 1238 1420 1238 1411 1210 c 0,54,55
 1387 1138 1387 1138 1339 1041 c 1,56,-1
 1204 761 l 1,57,-1
 1409 237 l 1,58,-1
 1837 1114 l 2,59,60
 1847 1136 1847 1136 1847 1154 c 0,61,62
 1847 1168 1847 1168 1842 1177 c 0,63,64
 1823 1206 1823 1206 1783 1253 c 2,65,-1
 1722 1324 l 1,66,-1
 1861 1429 l 1,67,68
 1876 1442 1876 1442 1896 1442 c 0,69,70
 1917 1442 1917 1442 1938 1425 c 1,71,-1
 2021 1340 l 2,72,73
 2052 1308 2052 1308 2052 1262 c 0,74,75
 2052 1238 2052 1238 2043 1210 c 0,76,77
 2019 1138 2019 1138 1971 1041 c 1,78,-1
 1482 26 l 1,79,80
 1473 5 1473 5 1461 -8 c 0,81,82
 1449 -20 1449 -20 1427 -20 c 2,83,-1
 1277 -20 l 2,84,85
 1251 -20 1251 -20 1241 -4 c 1,86,87
 1235 0 1235 0 1227 23 c 128,-1,88
 1219 46 1219 46 1216 55 c 2,89,-1
 1066 473 l 1,90,-1
 850 26 l 1,91,92
 841 5 841 5 829 -8 c 0,93,94
 817 -20 817 -20 795 -20 c 2,95,-1
 645 -20 l 2,96,97
 619 -20 619 -20 609 -4 c 1,98,99
 603 0 603 0 595 23 c 128,-1,100
 587 46 587 46 584 55 c 2,101,-1
 148 1252 l 1,102,103
 136 1282 136 1282 97 1310 c 1,104,105
 76 1323 76 1323 53 1332.5 c 128,-1,106
 30 1342 30 1342 14 1354 c 1,107,108
 2 1361 2 1361 -7 1378 c 1,109,110
 -9 1387 -9 1387 -9 1391 c 0,111,112
 -9 1397 -9 1397 -7 1404 c 1,113,114
 3 1424 3 1424 29 1424 c 2,115,-1
 368 1424 l 2,116,117
 386 1424 386 1424 403 1412 c 1,118,119
 417 1400 417 1400 422 1389 c 1,120,121
 424 1382 424 1382 424 1378 c 0,122,123
 424 1361 424 1361 407 1345 c 0,124,125
 396 1336 396 1336 385.5 1327 c 128,-1,126
 375 1318 375 1318 370 1306 c 0,127,128
 368 1300 368 1300 368 1292 c 0,129,130
 368 1281 368 1281 374 1269 c 1,0,-1
EndSplineSet
Validated: 1
EndChar

StartChar: X
Encoding: 88 88 59
Width: 1366
GlyphClass: 2
Flags: W
LayerCount: 2
Fore
SplineSet
357 80 m 1,0,-1
 366 41 l 1,1,2
 366 22 366 22 350.5 1 c 128,-1,3
 335 -20 335 -20 307 -20 c 2,4,-1
 49 -20 l 2,5,6
 15 -20 15 -20 11 5 c 1,7,-1
 11 11 l 2,8,9
 11 39 11 39 57 59 c 1,10,-1
 109 80 l 1,11,12
 177 109 177 109 211 156 c 2,13,-1
 599 698 l 1,14,-1
 242 1249 l 1,15,16
 207 1301 207 1301 124 1332 c 1,17,18
 97 1340 97 1340 81 1350 c 0,19,20
 46 1370 46 1370 46 1394 c 2,21,-1
 46 1399 l 1,22,23
 50 1424 50 1424 81 1424 c 2,24,-1
 420 1424 l 2,25,26
 450 1424 450 1424 467 1404 c 128,-1,27
 484 1384 484 1384 484 1372 c 256,28,29
 484 1360 484 1360 474.5 1349 c 128,-1,30
 465 1338 465 1338 457.5 1329.5 c 128,-1,31
 450 1321 450 1321 449 1313 c 1,32,-1
 449 1308 l 2,33,34
 449 1290 449 1290 462 1272 c 1,35,-1
 722 873 l 1,36,-1
 966 1214 l 2,37,38
 1036 1311 1036 1311 1088 1370.5 c 128,-1,39
 1140 1430 1140 1430 1195 1430 c 0,40,41
 1209 1430 1209 1430 1224 1426 c 2,42,-1
 1324 1394 l 1,43,44
 1356 1381 1356 1381 1356 1364 c 0,45,46
 1356 1346 1356 1346 1353 1337 c 2,47,-1
 1306 1146 l 1,48,-1
 1215 1167 l 2,49,50
 1164 1178 1164 1178 1134 1180 c 1,51,-1
 1132 1180 l 2,52,53
 1115 1180 1115 1180 1090 1144 c 2,54,-1
 807 742 l 1,55,-1
 1188 155 l 2,56,57
 1217 110 1217 110 1307 72 c 0,58,59
 1333 61 1333 61 1348 52 c 0,60,61
 1385 31 1385 31 1385 6 c 0,62,63
 1385 -20 1385 -20 1349 -20 c 2,64,-1
 1010 -20 l 2,65,66
 994 -20 994 -20 976 -11 c 0,67,68
 946 5 946 5 946 25 c 0,69,70
 946 44 946 44 963 64.5 c 128,-1,71
 980 85 980 85 981 92 c 1,72,-1
 981 98 l 2,73,74
 981 114 981 114 970 132 c 2,75,-1
 684 567 l 1,76,-1
 383 137 l 2,77,78
 357 101 357 101 357 80 c 1,0,-1
EndSplineSet
Validated: 1
EndChar

StartChar: Y
Encoding: 89 89 60
Width: 1366
GlyphClass: 2
Flags: W
LayerCount: 2
Fore
SplineSet
566 669 m 2,0,-1
 218 1249 l 1,1,2
 198 1279 198 1279 149 1309 c 1,3,4
 123 1322 123 1322 97 1332 c 128,-1,5
 71 1342 71 1342 53 1353 c 0,6,7
 38 1361 38 1361 29 1373 c 1,8,9
 22 1384 22 1384 22 1394 c 2,10,-1
 22 1399 l 1,11,12
 26 1424 26 1424 57 1424 c 2,13,-1
 396 1424 l 2,14,15
 415 1424 415 1424 431 1414 c 1,16,17
 445 1404 445 1404 454 1392 c 1,18,19
 460 1382 460 1382 460 1373 c 0,20,21
 460 1360 460 1360 449 1347 c 0,22,23
 442 1338 442 1338 434 1329.5 c 128,-1,24
 426 1321 426 1321 425 1313 c 1,25,-1
 425 1308 l 2,26,27
 425 1291 425 1291 438 1272 c 2,28,-1
 753 773 l 1,29,-1
 990 1133 l 2,30,31
 1017 1174 1017 1174 1021 1203 c 0,32,33
 1022 1206 1022 1206 1022 1210 c 0,34,35
 1022 1236 1022 1236 1001 1279 c 2,36,-1
 958 1365 l 1,37,-1
 1120 1436 l 2,38,39
 1133 1441 1133 1441 1145 1441 c 0,40,41
 1173 1441 1173 1441 1191 1414 c 1,42,-1
 1252 1312 l 2,43,44
 1265 1289 1265 1289 1265 1266 c 0,45,46
 1265 1225 1265 1225 1226 1185 c 0,47,48
 1174 1130 1174 1130 1115 1045 c 2,49,-1
 849 657 l 2,50,51
 833 633 833 633 828 586.5 c 128,-1,52
 823 540 823 540 823 497 c 2,53,-1
 823 146 l 2,54,55
 823 94 823 94 873 76.5 c 128,-1,56
 923 59 923 59 923 21 c 0,57,58
 923 -20 923 -20 877 -20 c 2,59,-1
 538 -20 l 2,60,61
 492 -20 492 -20 492 21 c 0,62,63
 492 59 492 59 542 76.5 c 128,-1,64
 592 94 592 94 592 146 c 2,65,-1
 592 573 l 2,66,67
 592 627 592 627 566 669 c 2,0,-1
EndSplineSet
Validated: 1
EndChar

StartChar: Z
Encoding: 90 90 61
Width: 1366
GlyphClass: 2
Flags: W
LayerCount: 2
Fore
SplineSet
27 71 m 2,0,-1
 975 1292 l 1,1,-1
 412 1291 l 2,2,3
 364 1291 364 1291 331.5 1257.5 c 128,-1,4
 299 1224 299 1224 250 1156 c 0,5,6
 215 1106 215 1106 190 1106 c 0,7,8
 144 1106 144 1106 144 1147 c 2,9,-1
 144 1332 l 2,10,11
 144 1396 144 1396 171.5 1412.5 c 128,-1,12
 199 1429 199 1429 283 1429 c 2,13,-1
 1207 1429 l 2,14,15
 1300 1429 1300 1429 1326 1405 c 0,16,17
 1339 1392 1339 1392 1339 1374 c 0,18,19
 1339 1353 1339 1353 1321 1322 c 1,20,-1
 362 118 l 1,21,-1
 1098 119 l 2,22,23
 1146 119 1146 119 1178.5 152 c 128,-1,24
 1211 185 1211 185 1261 254 c 0,25,26
 1297 303 1297 303 1320 303 c 0,27,28
 1366 303 1366 303 1366 262 c 2,29,-1
 1366 77 l 2,30,31
 1366 9 1366 9 1342 -5.5 c 128,-1,32
 1318 -20 1318 -20 1228 -20 c 2,33,-1
 157 -20 l 2,34,35
 68 -20 68 -20 36 -10 c 0,36,37
 5 -1 5 -1 5 25 c 0,38,39
 5 44 5 44 27 71 c 2,0,-1
EndSplineSet
Validated: 1
EndChar

StartChar: lsqb
Encoding: 91 91 62
Width: 682
GlyphClass: 2
Flags: W
LayerCount: 2
Fore
SplineSet
483 -347 m 2,0,1
 525 -347 525 -347 525 -394 c 0,2,3
 525 -440 525 -440 488 -440 c 2,4,-1
 241 -440 l 2,5,6
 195 -440 195 -440 195 -400 c 2,7,-1
 195 1436 l 2,8,9
 195 1486 195 1486 241 1486 c 2,10,-1
 488 1486 l 2,11,12
 525 1486 525 1486 525 1438 c 0,13,14
 525 1389 525 1389 483 1389 c 2,15,-1
 363 1389 l 1,16,-1
 363 -347 l 1,17,-1
 483 -347 l 2,0,1
EndSplineSet
Validated: 1
EndChar

StartChar: bsol
Encoding: 92 92 63
Width: 1024
GlyphClass: 2
Flags: W
LayerCount: 2
Fore
SplineSet
1027 -90 m 1,0,-1
 832 -90 l 1,1,-1
 -33 1494 l 1,2,-1
 162 1494 l 1,3,-1
 1027 -90 l 1,0,-1
EndSplineSet
Validated: 1
EndChar

StartChar: rsqb
Encoding: 93 93 64
Width: 682
GlyphClass: 2
Flags: W
LayerCount: 2
Fore
SplineSet
237 -347 m 2,0,-1
 358 -347 l 1,1,-1
 358 1389 l 1,2,-1
 237 1389 l 2,3,4
 195 1389 195 1389 195 1438 c 0,5,6
 195 1486 195 1486 233 1486 c 2,7,-1
 480 1486 l 2,8,9
 526 1486 526 1486 526 1436 c 0,10,11
 526 1266 526 1266 525.5 1021.5 c 128,-1,12
 525 777 525 777 525 517 c 2,13,-1
 525 13 l 2,14,15
 525 -231 525 -231 526 -400 c 0,16,17
 526 -440 526 -440 480 -440 c 2,18,-1
 233 -440 l 2,19,20
 195 -440 195 -440 195 -394 c 0,21,22
 195 -347 195 -347 237 -347 c 2,0,-1
EndSplineSet
Validated: 1
EndChar

StartChar: circ
Encoding: 94 94 65
Width: 1024
GlyphClass: 2
Flags: W
LayerCount: 2
Fore
SplineSet
463 1450 m 1,0,-1
 602 1450 l 1,1,-1
 939 892 l 1,2,-1
 829 892 l 1,3,-1
 532 1274 l 1,4,-1
 234 892 l 1,5,-1
 126 892 l 1,6,-1
 463 1450 l 1,0,-1
EndSplineSet
Validated: 1
EndChar

StartChar: lowbar
Encoding: 95 95 66
Width: 1024
GlyphClass: 2
Flags: W
LayerCount: 2
Fore
SplineSet
-25 -198 m 1,0,-1
 1046 -198 l 1,1,-1
 1046 -356 l 1,2,-1
 -25 -356 l 1,3,-1
 -25 -198 l 1,0,-1
EndSplineSet
Validated: 1
EndChar

StartChar: grave
Encoding: 96 96 67
Width: 1024
GlyphClass: 2
Flags: W
LayerCount: 2
Fore
SplineSet
577 1089 m 2,0,-1
 275 1277 l 2,1,2
 251 1292 251 1292 227 1316 c 128,-1,3
 203 1340 203 1340 203 1375 c 0,4,5
 203 1435 203 1435 256 1458 c 0,6,7
 278 1467 278 1467 301 1467 c 0,8,9
 330 1467 330 1467 358 1451 c 1,10,11
 385 1434 385 1434 450 1366 c 128,-1,12
 515 1298 515 1298 540 1273 c 2,13,-1
 660 1149 l 2,14,15
 700 1107 700 1107 700 1087 c 0,16,17
 700 1063 700 1063 672 1060 c 1,18,19
 668 1058 668 1058 660 1058 c 0,20,21
 627 1058 627 1058 577 1089 c 2,0,-1
EndSplineSet
Validated: 1
EndChar

StartChar: a
Encoding: 97 97 68
Width: 1155
GlyphClass: 2
Flags: W
LayerCount: 2
Fore
SplineSet
772 56 m 1,0,-1
 532 -32 l 2,1,2
 495 -45 495 -45 469 -45 c 2,3,-1
 427 -45 l 1,4,5
 273 -37 273 -37 165 77 c 0,6,7
 56 193 56 193 41 358 c 0,8,9
 37 400 37 400 37 440 c 0,10,11
 37 493 37 493 44 543 c 0,12,13
 57 632 57 632 113 720 c 1,14,15
 140 767 140 767 207 818 c 1,16,17
 232 835 232 835 262 848 c 1,18,19
 343 878 343 878 423.5 908 c 128,-1,20
 504 938 504 938 585 968 c 0,21,22
 607 976 607 976 627 976 c 2,23,-1
 633 976 l 1,24,25
 701 973 701 973 797 942 c 0,26,27
 807 939 807 939 809 937 c 1,28,29
 829 929 829 929 860 919 c 0,30,31
 868 916 868 916 875 916 c 0,32,33
 881 916 881 916 885 919 c 0,34,35
 904 935 904 935 911 945 c 0,36,37
 924 962 924 962 946 962 c 0,38,39
 957 962 957 962 966 958 c 0,40,41
 1003 945 1003 945 1003 920 c 2,42,-1
 1003 146 l 2,43,44
 1003 94 1003 94 1053 76.5 c 128,-1,45
 1103 59 1103 59 1103 21 c 0,46,47
 1103 -20 1103 -20 1057 -20 c 2,48,-1
 814 -20 l 2,49,50
 772 -20 772 -20 772 13 c 2,51,-1
 772 56 l 1,0,-1
772 762 m 1,52,53
 740 792 740 792 677.5 822 c 128,-1,54
 615 852 615 852 569 854 c 1,55,-1
 566 854 l 2,56,57
 552 854 552 854 536 848 c 0,58,59
 500 835 500 835 464.5 821.5 c 128,-1,60
 429 808 429 808 393 795 c 1,61,62
 374 787 374 787 363 775 c 0,63,64
 305 713 305 713 285 624 c 1,65,66
 268 554 268 554 268 486 c 0,67,68
 268 465 268 465 270 442 c 0,69,70
 281 303 281 303 345 217 c 1,71,72
 407 130 407 130 499 105 c 0,73,74
 533 95 533 95 568 95 c 0,75,76
 579 95 579 95 590 96 c 0,77,78
 608 98 608 98 635 107 c 0,79,80
 658 115 658 115 707 133.5 c 128,-1,81
 756 152 756 152 772 158 c 1,82,-1
 772 762 l 1,52,53
EndSplineSet
Validated: 1
EndChar

StartChar: b
Encoding: 98 98 69
Width: 1139
GlyphClass: 2
Flags: W
LayerCount: 2
Fore
SplineSet
368 168 m 1,0,1
 399 137 399 137 461 107 c 128,-1,2
 523 77 523 77 570 76 c 1,3,-1
 576 76 l 2,4,5
 587 76 587 76 603 82 c 0,6,7
 641 96 641 96 676 108.5 c 128,-1,8
 711 121 711 121 747 135 c 0,9,10
 763 141 763 141 777 155 c 0,11,12
 834 216 834 216 855 305 c 0,13,14
 871 377 871 377 871 448 c 0,15,16
 871 469 871 469 870 488 c 0,17,18
 859 626 859 626 797 711 c 0,19,20
 733 798 733 798 641 825 c 0,21,22
 604 835 604 835 568 835 c 0,23,24
 558 835 558 835 549 834 c 0,25,26
 530 832 530 832 504 823 c 0,27,28
 481 814 481 814 432 796 c 128,-1,29
 383 778 383 778 368 772 c 1,30,-1
 368 168 l 1,0,1
330 -7 m 0,31,32
 310 1 310 1 279 11 c 0,33,34
 270 14 270 14 263 14 c 0,35,36
 258 14 258 14 255 11 c 0,37,38
 235 -6 235 -6 228 -14 c 1,39,40
 216 -31 216 -31 194 -31 c 0,41,42
 183 -31 183 -31 174 -27 c 0,43,44
 137 -14 137 -14 137 11 c 2,45,-1
 137 1257 l 2,46,47
 137 1308 137 1308 87 1326 c 128,-1,48
 37 1344 37 1344 37 1383 c 0,49,50
 37 1424 37 1424 82 1424 c 1,51,52
 144 1427 144 1427 206.5 1443.5 c 128,-1,53
 269 1460 269 1460 368 1493 c 1,54,-1
 368 874 l 1,55,-1
 608 963 l 2,56,57
 641 975 641 975 669 977 c 0,58,59
 680 977 680 977 690.5 976.5 c 128,-1,60
 701 976 701 976 713 976 c 0,61,62
 867 968 867 968 976 852 c 1,63,64
 1082 736 1082 736 1098 572 c 0,65,66
 1102 530 1102 530 1102 489 c 0,67,68
 1102 436 1102 436 1095 386 c 0,69,70
 1082 297 1082 297 1027 210 c 0,71,72
 996 160 996 160 933 112 c 0,73,74
 907 93 907 93 875 81 c 0,75,76
 795 52 795 52 715 22 c 128,-1,77
 635 -8 635 -8 554 -37 c 0,78,79
 531 -45 531 -45 511 -45 c 2,80,-1
 506 -45 l 1,81,82
 439 -42 439 -42 343 -13 c 0,83,84
 333 -9 333 -9 330 -7 c 0,31,32
EndSplineSet
Validated: 1
EndChar

StartChar: c
Encoding: 99 99 70
Width: 925
GlyphClass: 2
Flags: W
LayerCount: 2
Fore
SplineSet
554 976 m 1,0,-1
 576 976 l 2,1,2
 748 976 748 976 902 877 c 1,3,-1
 884 697 l 1,4,5
 879 666 879 666 846 666 c 2,6,-1
 842 666 l 1,7,8
 814 669 814 669 801 700 c 1,9,10
 764 781 764 781 705 816 c 0,11,12
 648 850 648 850 564 850 c 2,13,-1
 541 850 l 1,14,15
 443 845 443 845 390 794 c 0,16,17
 341 746 341 746 317 677 c 0,18,19
 292 606 292 606 292 519 c 0,20,21
 292 490 292 490 295 459 c 0,22,23
 305 315 305 315 372 224 c 1,24,25
 460 107 460 107 564 92 c 0,26,27
 580 89 580 89 598 89 c 0,28,29
 680 89 680 89 783 146 c 1,30,31
 847 180 847 180 874 180 c 0,32,33
 888 180 888 180 900 172 c 1,34,35
 909 163 909 163 909 150 c 0,36,37
 909 135 909 135 895 105 c 0,38,39
 879 71 879 71 855 50 c 0,40,41
 795 -4 795 -4 706.5 -24.5 c 128,-1,42
 618 -45 618 -45 540 -45 c 0,43,44
 344 -44 344 -44 210.5 64 c 128,-1,45
 77 172 77 172 59 371 c 0,46,47
 55 415 55 415 55 458 c 0,48,49
 55 513 55 513 62 565 c 0,50,51
 76 657 76 657 133 748 c 0,52,53
 193 845 193 845 302.5 907.5 c 128,-1,54
 412 970 412 970 554 976 c 1,0,-1
EndSplineSet
Validated: 1
EndChar

StartChar: d
Encoding: 100 100 71
Width: 1231
GlyphClass: 2
Flags: W
LayerCount: 2
Fore
SplineSet
792 56 m 1,0,-1
 552 -32 l 2,1,2
 515 -45 515 -45 489 -45 c 2,3,-1
 447 -45 l 1,4,5
 293 -37 293 -37 185 77 c 0,6,7
 76 193 76 193 61 358 c 0,8,9
 57 400 57 400 57 440 c 0,10,11
 57 493 57 493 64 543 c 0,12,13
 77 632 77 632 133 720 c 1,14,15
 160 767 160 767 227 818 c 1,16,17
 252 835 252 835 282 848 c 1,18,19
 363 878 363 878 443.5 908 c 128,-1,20
 524 938 524 938 605 968 c 0,21,22
 627 976 627 976 647 976 c 2,23,-1
 653 976 l 1,24,25
 721 973 721 973 817 942 c 1,26,-1
 819 942 l 1,27,28
 819 943 819 943 792 956 c 1,29,-1
 792 1257 l 2,30,31
 792 1308 792 1308 742 1326 c 128,-1,32
 692 1344 692 1344 692 1383 c 0,33,34
 692 1424 692 1424 737 1424 c 1,35,36
 799 1427 799 1427 861.5 1443.5 c 128,-1,37
 924 1460 924 1460 1023 1493 c 1,38,-1
 1023 146 l 2,39,40
 1023 94 1023 94 1073 76.5 c 128,-1,41
 1123 59 1123 59 1123 21 c 0,42,43
 1123 -20 1123 -20 1077 -20 c 2,44,-1
 834 -20 l 2,45,46
 792 -20 792 -20 792 13 c 2,47,-1
 792 56 l 1,0,-1
792 763 m 1,48,49
 756 795 756 795 695 823.5 c 128,-1,50
 634 852 634 852 589 854 c 1,51,-1
 586 854 l 2,52,53
 572 854 572 854 556 848 c 0,54,55
 520 835 520 835 484.5 821.5 c 128,-1,56
 449 808 449 808 413 795 c 1,57,58
 394 787 394 787 383 775 c 0,59,60
 325 713 325 713 305 624 c 1,61,62
 288 554 288 554 288 486 c 0,63,64
 288 465 288 465 290 442 c 0,65,66
 301 303 301 303 365 217 c 1,67,68
 427 130 427 130 519 105 c 0,69,70
 553 95 553 95 588 95 c 0,71,72
 599 95 599 95 610 96 c 0,73,74
 628 98 628 98 655 107 c 0,75,76
 678 115 678 115 727 133.5 c 128,-1,77
 776 152 776 152 792 158 c 1,78,-1
 792 763 l 1,48,49
EndSplineSet
Validated: 1
EndChar

StartChar: e
Encoding: 101 101 72
Width: 1004
GlyphClass: 2
Flags: W
LayerCount: 2
Fore
SplineSet
50 555 m 4,0,1
 79 746 79 746 205 863 c 132,-1,2
 331 980 331 980 537 982 c 5,3,-1
 541 982 l 6,4,5
 750 982 750 982 862 862 c 5,6,7
 971 742 971 742 971 553 c 5,8,9
 970 512 970 512 967 486 c 132,-1,10
 964 460 964 460 902 460 c 6,11,-1
 290 460 l 5,12,13
 293 323 293 323 367.5 222.5 c 132,-1,14
 442 122 442 122 552 100 c 4,15,16
 584 93 584 93 617 93 c 4,17,18
 705 93 705 93 800 145 c 4,19,20
 864 179 864 179 891 179 c 4,21,22
 905 179 905 179 917 171 c 5,23,24
 927 161 927 161 927 148 c 4,25,26
 927 131 927 131 912 104 c 5,27,28
 899 77 899 77 890.5 68 c 132,-1,29
 882 59 882 59 875 52 c 4,30,31
 758 -49 758 -49 560 -49 c 5,32,33
 284 -47 284 -47 147 127 c 4,34,35
 41 261 41 261 41 443 c 4,36,37
 41 497 41 497 50 555 c 4,0,1
291 573 m 5,38,-1
 767 573 l 5,39,40
 767 671 767 671 714 769 c 4,41,42
 668 854 668 854 543 854 c 6,43,-1
 532 854 l 5,44,45
 407 850 407 850 350.5 759.5 c 132,-1,46
 294 669 294 669 291 573 c 5,38,-1
EndSplineSet
Validated: 1
EndChar

StartChar: f
Encoding: 102 102 73
Width: 683
GlyphClass: 2
Flags: W
LayerCount: 2
Fore
SplineSet
413 1027 m 2,0,-1
 413 969 l 1,1,-1
 626 973 l 1,2,-1
 627 973 l 2,3,4
 667 973 667 973 667 927 c 0,5,6
 667 912 667 912 663 890 c 0,7,8
 649 826 649 826 593 826 c 2,9,-1
 413 827 l 1,10,-1
 413 146 l 2,11,12
 413 94 413 94 463 76.5 c 128,-1,13
 513 59 513 59 513 21 c 0,14,15
 513 -20 513 -20 467 -20 c 2,16,-1
 128 -20 l 2,17,18
 82 -20 82 -20 82 21 c 0,19,20
 82 59 82 59 132 76.5 c 128,-1,21
 182 94 182 94 182 146 c 2,22,-1
 182 824 l 1,23,24
 170 824 170 824 94 820 c 1,25,-1
 88 820 l 2,26,27
 45 820 45 820 43 860 c 1,28,-1
 43 862 l 2,29,30
 43 889 43 889 75 904 c 0,31,32
 94 913 94 913 156 947 c 0,33,34
 172 955 172 955 189 962 c 0,35,36
 192 963 192 963 192 964 c 256,37,38
 192 965 192 965 182 965 c 1,39,-1
 182 1027 l 2,40,41
 182 1156 182 1156 206 1238 c 0,42,43
 222 1293 222 1293 252 1330 c 0,44,45
 269 1352 269 1352 301 1363 c 2,46,-1
 556 1458 l 2,47,48
 569 1463 569 1463 599 1465 c 1,49,-1
 604 1465 l 2,50,51
 634 1465 634 1465 661 1448 c 1,52,53
 692 1426 692 1426 703 1408 c 1,54,55
 711 1392 711 1392 711 1368 c 0,56,57
 711 1359 711 1359 710 1350 c 0,58,59
 707 1290 707 1290 676 1281 c 1,60,-1
 669 1281 l 2,61,62
 649 1281 649 1281 621 1301 c 1,63,64
 580 1327 580 1327 542 1327 c 0,65,66
 520 1327 520 1327 498 1318 c 0,67,68
 427 1288 427 1288 418 1197 c 0,69,70
 414 1160 414 1160 413.5 1116.5 c 128,-1,71
 413 1073 413 1073 413 1027 c 2,0,-1
EndSplineSet
Validated: 1
EndChar

StartChar: g
Encoding: 103 103 74
Width: 1103
GlyphClass: 2
Flags: W
LayerCount: 2
Fore
SplineSet
772 219 m 1,0,-1
 772 762 l 1,1,2
 740 792 740 792 677.5 822 c 128,-1,3
 615 852 615 852 569 854 c 1,4,-1
 566 854 l 2,5,6
 552 854 552 854 536 848 c 0,7,8
 500 835 500 835 464.5 821.5 c 128,-1,9
 429 808 429 808 393 795 c 1,10,11
 374 787 374 787 363 775 c 0,12,13
 305 713 305 713 285 624 c 1,14,15
 268 554 268 554 268 486 c 0,16,17
 268 465 268 465 270 442 c 0,18,19
 281 303 281 303 345 217 c 1,20,21
 407 130 407 130 499 105 c 0,22,23
 533 95 533 95 568 95 c 0,24,25
 579 95 579 95 590 96 c 0,26,27
 608 98 608 98 635 107 c 0,28,29
 658 115 658 115 706.5 133 c 128,-1,30
 755 151 755 151 771 157 c 1,31,-1
 771 219 l 1,32,-1
 772 219 l 1,0,-1
771 56 m 1,33,-1
 532 -32 l 2,34,35
 495 -45 495 -45 469 -45 c 2,36,-1
 427 -45 l 1,37,38
 273 -37 273 -37 165 77 c 0,39,40
 56 193 56 193 41 358 c 0,41,42
 37 400 37 400 37 440 c 0,43,44
 37 493 37 493 44 543 c 0,45,46
 57 632 57 632 113 720 c 1,47,48
 140 767 140 767 207 818 c 1,49,50
 232 835 232 835 262 848 c 1,51,52
 343 878 343 878 423.5 908 c 128,-1,53
 504 938 504 938 585 968 c 0,54,55
 607 976 607 976 627 976 c 2,56,-1
 633 976 l 1,57,58
 701 973 701 973 797 942 c 0,59,60
 807 939 807 939 809 937 c 1,61,62
 829 929 829 929 860 919 c 0,63,64
 868 916 868 916 875 916 c 0,65,66
 881 916 881 916 885 919 c 0,67,68
 904 935 904 935 911 945 c 0,69,70
 924 962 924 962 946 962 c 0,71,72
 957 962 957 962 966 958 c 0,73,74
 1003 945 1003 945 1003 920 c 2,75,-1
 1003 -180 l 2,76,77
 1003 -353 1003 -353 951 -398.5 c 128,-1,78
 899 -444 899 -444 807 -477 c 1,79,-1
 532 -580 l 2,80,81
 495 -593 495 -593 469 -593 c 0,82,83
 442 -593 442 -593 426 -592 c 0,84,85
 274 -587 274 -587 163 -468 c 0,86,87
 106 -406 106 -406 67 -305 c 1,88,89
 174 -263 174 -263 291 -220 c 1,90,91
 316 -291 316 -291 345 -330 c 0,92,93
 408 -416 408 -416 499 -442 c 0,94,95
 533 -451 533 -451 566 -451 c 0,96,97
 579 -451 579 -451 590 -450 c 0,98,99
 609 -448 609 -448 635 -440 c 1,100,101
 646 -435 646 -435 665.5 -428 c 128,-1,102
 685 -421 685 -421 705 -413 c 1,103,104
 742 -395 742 -395 757 -327 c 128,-1,105
 772 -259 772 -259 772 -237 c 2,106,-1
 771 56 l 1,33,-1
EndSplineSet
Validated: 1
EndChar

StartChar: h
Encoding: 104 104 75
Width: 1207
GlyphClass: 2
Flags: W
LayerCount: 2
Fore
SplineSet
387 146 m 2,0,1
 387 94 387 94 437 76.5 c 128,-1,2
 487 59 487 59 487 21 c 0,3,4
 487 -20 487 -20 442 -20 c 2,5,-1
 103 -20 l 2,6,7
 57 -20 57 -20 57 21 c 0,8,9
 57 59 57 59 107 76.5 c 128,-1,10
 157 94 157 94 157 146 c 2,11,-1
 157 1257 l 2,12,13
 157 1308 157 1308 107 1326 c 128,-1,14
 57 1344 57 1344 57 1383 c 0,15,16
 57 1424 57 1424 102 1424 c 1,17,18
 164 1427 164 1427 226.5 1443.5 c 128,-1,19
 289 1460 289 1460 387 1493 c 1,20,-1
 387 885 l 1,21,22
 407 892 407 892 449 908 c 128,-1,23
 491 924 491 924 529 937 c 0,24,25
 625 971 625 971 727 981 c 0,26,27
 741 982 741 982 755 982 c 0,28,29
 849 982 849 982 932 919 c 0,30,31
 1061 820 1061 820 1061 506 c 2,32,-1
 1061 146 l 2,33,34
 1061 94 1061 94 1111 76.5 c 128,-1,35
 1161 59 1161 59 1161 21 c 0,36,37
 1161 -20 1161 -20 1116 -20 c 2,38,-1
 873 -20 l 2,39,40
 831 -20 831 -20 831 13 c 2,41,-1
 831 506 l 2,42,43
 831 718 831 718 746 801 c 0,44,45
 695 851 695 851 623 851 c 0,46,47
 580 851 580 851 528 834 c 0,48,49
 506 826 506 826 472.5 813.5 c 128,-1,50
 439 801 439 801 414 791 c 1,51,52
 391 783 391 783 387 781 c 1,53,-1
 387 146 l 2,0,1
EndSplineSet
Validated: 1
EndChar

StartChar: i
Encoding: 105 105 76
Width: 593
GlyphClass: 2
Flags: W
LayerCount: 2
Fore
SplineSet
302 1420 m 256,0,1
 436 1420 436 1420 436 1290 c 0,2,3
 436 1159 436 1159 302 1159 c 256,4,5
 168 1159 168 1159 168 1290 c 0,6,7
 168 1420 168 1420 302 1420 c 256,0,1
417 146 m 2,8,9
 417 94 417 94 467 76.5 c 128,-1,10
 517 59 517 59 517 21 c 0,11,12
 517 -20 517 -20 472 -20 c 2,13,-1
 133 -20 l 2,14,15
 87 -20 87 -20 87 21 c 0,16,17
 87 59 87 59 137 76.5 c 128,-1,18
 187 94 187 94 187 146 c 2,19,-1
 187 786 l 2,20,21
 187 836 187 836 137 854 c 128,-1,22
 87 872 87 872 87 911 c 0,23,24
 87 952 87 952 132 952 c 1,25,26
 194 955 194 955 256.5 972 c 128,-1,27
 319 989 319 989 417 1022 c 1,28,-1
 417 146 l 2,8,9
EndSplineSet
Validated: 1
EndChar

StartChar: j
Encoding: 106 106 77
Width: 487
GlyphClass: 2
Flags: W
LayerCount: 2
Fore
SplineSet
252 1420 m 0,0,1
 387 1420 387 1420 387 1290 c 0,2,3
 387 1159 387 1159 252 1159 c 0,4,5
 118 1159 118 1159 118 1290 c 0,6,7
 118 1420 118 1420 252 1420 c 0,0,1
368 12 m 1,8,9
 367 -187 367 -187 340 -286 c 128,-1,10
 313 -385 313 -385 245 -457 c 1,11,12
 147 -557 147 -557 -3 -594 c 1,13,-1
 -3 -507 l 1,14,15
 95 -448 95 -448 125 -353 c 1,16,17
 136 -314 136 -314 136.5 -241 c 128,-1,18
 137 -168 137 -168 137 6 c 2,19,-1
 137 786 l 2,20,21
 137 836 137 836 87 854 c 128,-1,22
 37 872 37 872 37 911 c 0,23,24
 37 952 37 952 82 952 c 1,25,26
 144 955 144 955 206.5 972 c 128,-1,27
 269 989 269 989 368 1022 c 1,28,-1
 368 12 l 1,8,9
EndSplineSet
Validated: 1
EndChar

StartChar: k
Encoding: 107 107 78
Width: 1163
GlyphClass: 2
Flags: W
LayerCount: 2
Fore
SplineSet
407 434 m 1,0,-1
 407 146 l 2,1,2
 407 94 407 94 457 76.5 c 128,-1,3
 507 59 507 59 507 21 c 0,4,5
 507 -20 507 -20 462 -20 c 2,6,-1
 123 -20 l 2,7,8
 77 -20 77 -20 77 21 c 0,9,10
 77 59 77 59 127 76.5 c 128,-1,11
 177 94 177 94 177 146 c 2,12,-1
 177 1257 l 2,13,14
 177 1308 177 1308 127 1326 c 128,-1,15
 77 1344 77 1344 77 1383 c 0,16,17
 77 1424 77 1424 122 1424 c 1,18,19
 184 1427 184 1427 246.5 1443.5 c 128,-1,20
 309 1460 309 1460 407 1493 c 1,21,-1
 407 599 l 1,22,-1
 718 848 l 2,23,24
 781 899 781 899 829 929 c 1,25,26
 863 949 863 949 895 949 c 0,27,28
 920 949 920 949 944 936 c 1,29,-1
 1019 890 l 1,30,31
 1041 875 1041 875 1041 856 c 0,32,33
 1041 847 1041 847 1036 839 c 1,34,-1
 979 711 l 1,35,-1
 903 750 l 2,36,37
 879 762 879 762 858 762 c 0,38,39
 834 762 834 762 811 745 c 0,40,41
 666 637 666 637 572 563 c 1,42,-1
 905 238 l 2,43,44
 1010 136 1010 136 1038 123 c 0,45,46
 1056 115 1056 115 1073 115 c 0,47,48
 1080 115 1080 115 1088 116 c 1,49,50
 1098 119 1098 119 1109 119 c 0,51,52
 1146 119 1146 119 1160 90 c 1,53,54
 1163 80 1163 80 1163 74 c 0,55,56
 1163 52 1163 52 1140 42 c 2,57,-1
 1076 12 l 1,58,59
 1018 -14 1018 -14 967 -14 c 0,60,61
 932 -14 932 -14 901 -1 c 0,62,63
 831 27 831 27 774 83 c 2,64,-1
 412 435 l 1,65,66
 416 439 416 439 416 440 c 1,67,68
 415 440 415 440 407 434 c 1,0,-1
EndSplineSet
Validated: 1
EndChar

StartChar: l
Encoding: 108 108 79
Width: 597
GlyphClass: 2
Flags: W
LayerCount: 2
Fore
SplineSet
407 146 m 2,0,1
 407 94 407 94 457 76.5 c 128,-1,2
 507 59 507 59 507 21 c 0,3,4
 507 -20 507 -20 462 -20 c 2,5,-1
 123 -20 l 2,6,7
 77 -20 77 -20 77 21 c 0,8,9
 77 59 77 59 127 76.5 c 128,-1,10
 177 94 177 94 177 146 c 2,11,-1
 177 1257 l 2,12,13
 177 1308 177 1308 127 1326 c 128,-1,14
 77 1344 77 1344 77 1383 c 0,15,16
 77 1424 77 1424 122 1424 c 1,17,18
 184 1427 184 1427 246.5 1443.5 c 128,-1,19
 309 1460 309 1460 407 1493 c 1,20,-1
 407 146 l 2,0,1
EndSplineSet
Validated: 1
EndChar

StartChar: m
Encoding: 109 109 80
Width: 1797
GlyphClass: 2
Flags: W
LayerCount: 2
Fore
SplineSet
410 893 m 5,0,1
 422 897 422 897 459.5 911 c 132,-1,2
 497 925 497 925 531 937 c 4,3,4
 627 971 627 971 729 981 c 4,5,6
 743 982 743 982 757 982 c 4,7,8
 851 982 851 982 934 919 c 4,9,10
 963 896 963 896 969 889 c 5,11,12
 994 898 994 898 1030.5 911.5 c 132,-1,13
 1067 925 1067 925 1100 937 c 4,14,15
 1196 970 1196 970 1297 981 c 4,16,17
 1312 982 1312 982 1326 982 c 4,18,19
 1419 982 1419 982 1502 920 c 5,20,21
 1632 820 1632 820 1632 506 c 6,22,-1
 1632 146 l 6,23,24
 1632 94 1632 94 1682 76.5 c 132,-1,25
 1732 59 1732 59 1732 21 c 4,26,27
 1732 -20 1732 -20 1686 -20 c 6,28,-1
 1443 -20 l 6,29,30
 1402 -20 1402 -20 1402 13 c 6,31,-1
 1402 506 l 6,32,33
 1402 718 1402 718 1317 801 c 4,34,35
 1266 851 1266 851 1194 851 c 4,36,37
 1151 851 1151 851 1099 834 c 4,38,39
 1079 827 1079 827 1050.5 816.5 c 132,-1,40
 1022 806 1022 806 1020 805 c 5,41,42
 1063 716 1063 716 1063 506 c 6,43,-1
 1063 146 l 6,44,45
 1063 94 1063 94 1113 76.5 c 132,-1,46
 1163 59 1163 59 1163 21 c 4,47,48
 1163 -20 1163 -20 1118 -20 c 6,49,-1
 779 -20 l 6,50,51
 733 -20 733 -20 733 21 c 4,52,53
 733 59 733 59 783 76.5 c 132,-1,54
 833 94 833 94 833 146 c 6,55,-1
 833 506 l 6,56,57
 833 718 833 718 748 801 c 4,58,59
 697 851 697 851 625 851 c 4,60,61
 582 851 582 851 529 834 c 5,62,63
 495 822 495 822 461.5 809 c 132,-1,64
 428 796 428 796 410 789 c 5,65,-1
 410 146 l 6,66,67
 410 94 410 94 460 76.5 c 132,-1,68
 510 59 510 59 510 21 c 4,69,70
 510 -20 510 -20 465 -20 c 6,71,-1
 126 -20 l 6,72,73
 80 -20 80 -20 80 21 c 4,74,75
 80 59 80 59 130 76.5 c 132,-1,76
 180 94 180 94 180 146 c 6,77,-1
 180 786 l 6,78,79
 180 836 180 836 130 854 c 132,-1,80
 80 872 80 872 80 911 c 4,81,82
 80 952 80 952 125 952 c 5,83,84
 187 955 187 955 249.5 972 c 132,-1,85
 312 989 312 989 410 1022 c 5,86,-1
 410 893 l 5,0,1
EndSplineSet
Validated: 1
EndChar

StartChar: n
Encoding: 110 110 81
Width: 1191
GlyphClass: 2
Flags: W
LayerCount: 2
Fore
SplineSet
387 885 m 1,0,1
 407 892 407 892 449 908 c 128,-1,2
 491 924 491 924 529 937 c 0,3,4
 625 971 625 971 727 981 c 0,5,6
 741 982 741 982 755 982 c 0,7,8
 849 982 849 982 932 919 c 0,9,10
 1061 820 1061 820 1061 506 c 2,11,-1
 1061 146 l 2,12,13
 1061 94 1061 94 1111 76.5 c 128,-1,14
 1161 59 1161 59 1161 21 c 0,15,16
 1161 -20 1161 -20 1116 -20 c 2,17,-1
 873 -20 l 2,18,19
 831 -20 831 -20 831 13 c 2,20,-1
 831 506 l 2,21,22
 831 718 831 718 746 801 c 0,23,24
 695 851 695 851 623 851 c 0,25,26
 580 851 580 851 528 834 c 0,27,28
 506 826 506 826 472.5 813.5 c 128,-1,29
 439 801 439 801 414 791 c 1,30,31
 391 783 391 783 387 781 c 1,32,-1
 387 146 l 2,33,34
 387 94 387 94 437 76.5 c 128,-1,35
 487 59 487 59 487 21 c 0,36,37
 487 -20 487 -20 442 -20 c 2,38,-1
 103 -20 l 2,39,40
 57 -20 57 -20 57 21 c 0,41,42
 57 59 57 59 107 76.5 c 128,-1,43
 157 94 157 94 157 146 c 2,44,-1
 157 786 l 2,45,46
 157 836 157 836 107 854 c 128,-1,47
 57 872 57 872 57 911 c 0,48,49
 57 952 57 952 102 952 c 1,50,51
 164 955 164 955 226.5 972 c 128,-1,52
 289 989 289 989 387 1022 c 1,53,-1
 387 885 l 1,0,1
EndSplineSet
Validated: 1
EndChar

StartChar: o
Encoding: 111 111 82
Width: 1107
GlyphClass: 2
Flags: W
LayerCount: 2
Fore
SplineSet
578 976 m 1,0,1
 785 968 785 968 926 819 c 128,-1,2
 1067 670 1067 670 1070 465 c 1,3,-1
 1070 459 l 2,4,5
 1070 252 1070 252 923 108 c 0,6,7
 772 -39 772 -39 553 -45 c 1,8,-1
 537 -45 l 2,9,10
 333 -45 333 -45 186 105 c 0,11,12
 37 256 37 256 37 462 c 2,13,-1
 37 465 l 1,14,15
 38 691 38 691 208 846 c 0,16,17
 231 867 231 867 271 881 c 128,-1,18
 311 895 311 895 385 922 c 0,19,20
 429 938 429 938 482 957 c 0,21,22
 537 976 537 976 574 976 c 2,23,-1
 578 976 l 1,0,1
555 869 m 1,24,-1
 544 869 l 2,25,26
 441 869 441 869 364 766 c 0,27,28
 279 651 279 651 279 481 c 256,29,30
 279 311 279 311 361.5 189.5 c 128,-1,31
 444 68 444 68 555 63 c 1,32,-1
 568 63 l 2,33,34
 670 63 670 63 746 166 c 0,35,36
 831 280 831 280 831 450 c 256,37,38
 831 620 831 620 748 741.5 c 128,-1,39
 665 863 665 863 555 869 c 1,24,-1
EndSplineSet
Validated: 1
EndChar

StartChar: p
Encoding: 112 112 83
Width: 1197
GlyphClass: 2
Flags: W
LayerCount: 2
Fore
SplineSet
417 879 m 5,0,-1
 645 963 l 6,1,2
 678 975 678 975 706 977 c 4,3,4
 717 977 717 977 727 976.5 c 132,-1,5
 737 976 737 976 749 976 c 4,6,7
 902 969 902 969 1013 852 c 5,8,9
 1119 736 1119 736 1135 572 c 4,10,11
 1139 531 1139 531 1139 491 c 4,12,13
 1139 436 1139 436 1132 386 c 4,14,15
 1118 297 1118 297 1064 210 c 4,16,17
 1034 162 1034 162 969 112 c 4,18,19
 944 94 944 94 914 82 c 4,20,21
 738 16 738 16 591 -37 c 4,22,23
 569 -45 569 -45 548 -45 c 6,24,-1
 543 -45 l 5,25,26
 480 -42 480 -42 417 -23 c 5,27,-1
 417 -431 l 6,28,29
 417 -482 417 -482 467 -500 c 132,-1,30
 517 -518 517 -518 517 -557 c 4,31,32
 517 -597 517 -597 472 -597 c 6,33,-1
 133 -597 l 6,34,35
 87 -597 87 -597 87 -557 c 4,36,37
 87 -518 87 -518 137 -500 c 132,-1,38
 187 -482 187 -482 187 -431 c 6,39,-1
 187 786 l 6,40,41
 187 836 187 836 137 854 c 132,-1,42
 87 872 87 872 87 911 c 4,43,44
 87 952 87 952 132 952 c 5,45,46
 194 955 194 955 256.5 972 c 132,-1,47
 319 989 319 989 417 1022 c 5,48,-1
 417 879 l 5,0,-1
417 158 m 5,49,50
 450 130 450 130 507 103.5 c 132,-1,51
 564 77 564 77 607 76 c 5,52,-1
 613 76 l 6,53,54
 624 76 624 76 640 82 c 4,55,56
 676 95 676 95 711.5 108 c 132,-1,57
 747 121 747 121 783 135 c 4,58,59
 801 141 801 141 814 155 c 4,60,61
 870 216 870 216 891 306 c 4,62,63
 908 375 908 375 908 444 c 4,64,65
 908 466 908 466 906 488 c 4,66,67
 895 626 895 626 831 713 c 4,68,69
 768 799 768 799 677 825 c 4,70,71
 641 835 641 835 606 835 c 4,72,73
 595 835 595 835 586 834 c 4,74,75
 567 832 567 832 541 823 c 4,76,77
 520 815 520 815 477.5 799.5 c 132,-1,78
 435 784 435 784 417 777 c 5,79,-1
 417 158 l 5,49,50
EndSplineSet
Validated: 1
EndChar

StartChar: q
Encoding: 113 113 84
Width: 1173
GlyphClass: 2
Flags: W
LayerCount: 2
Fore
SplineSet
788 55 m 1,0,-1
 551 -32 l 2,1,2
 516 -45 516 -45 489 -45 c 2,3,-1
 446 -45 l 1,4,5
 291 -37 291 -37 183 79 c 0,6,7
 76 193 76 193 61 358 c 0,8,9
 57 401 57 401 57 442 c 0,10,11
 57 494 57 494 64 543 c 0,12,13
 76 632 76 632 132 720 c 0,14,15
 162 769 162 769 226 818 c 0,16,17
 251 836 251 836 282 848 c 0,18,19
 364 879 364 879 443.5 908.5 c 128,-1,20
 523 938 523 938 604 968 c 0,21,22
 627 976 627 976 648 976 c 2,23,-1
 653 976 l 1,24,25
 722 973 722 973 818 942 c 0,26,27
 820 941 820 941 821 940.5 c 128,-1,28
 822 940 822 940 843 940 c 1,29,-1
 843 930 l 1,30,31
 851 927 851 927 880 919 c 0,32,33
 888 916 888 916 892 916 c 0,34,35
 898 916 898 916 901 919 c 0,36,37
 920 935 920 935 927 945 c 0,38,39
 940 962 940 962 962 962 c 0,40,41
 973 962 973 962 982 958 c 0,42,43
 1019 945 1019 945 1019 920 c 2,44,-1
 1019 -431 l 2,45,46
 1019 -482 1019 -482 1069 -500 c 128,-1,47
 1119 -518 1119 -518 1119 -557 c 0,48,49
 1119 -597 1119 -597 1073 -597 c 2,50,-1
 734 -597 l 2,51,52
 688 -597 688 -597 688 -557 c 0,53,54
 688 -518 688 -518 738 -500 c 128,-1,55
 788 -482 788 -482 788 -431 c 2,56,-1
 788 55 l 1,0,-1
788 764 m 1,57,58
 755 793 755 793 694 822.5 c 128,-1,59
 633 852 633 852 588 854 c 1,60,-1
 585 854 l 2,61,62
 571 854 571 854 557 848 c 1,63,64
 520 835 520 835 484 821.5 c 128,-1,65
 448 808 448 808 412 795 c 0,66,67
 395 788 395 788 382 775 c 0,68,69
 324 713 324 713 304 624 c 1,70,71
 287 554 287 554 287 486 c 0,72,73
 287 465 287 465 289 442 c 0,74,75
 300 303 300 303 364 217 c 1,76,77
 425 131 425 131 518 105 c 0,78,79
 553 95 553 95 587 95 c 0,80,81
 599 95 599 95 609 96 c 0,82,83
 628 98 628 98 655 107 c 0,84,85
 676 115 676 115 723.5 132.5 c 128,-1,86
 771 150 771 150 788 157 c 1,87,-1
 788 764 l 1,57,58
EndSplineSet
Validated: 1
EndChar

StartChar: r
Encoding: 114 114 85
Width: 831
GlyphClass: 2
Flags: W
LayerCount: 2
Fore
SplineSet
428 595 m 1,0,-1
 428 146 l 2,1,2
 428 94 428 94 477.5 76.5 c 128,-1,3
 527 59 527 59 527 21 c 0,4,5
 527 -20 527 -20 482 -20 c 2,6,-1
 143 -20 l 2,7,8
 97 -20 97 -20 97 21 c 0,9,10
 97 59 97 59 147 76.5 c 128,-1,11
 197 94 197 94 197 146 c 2,12,-1
 197 786 l 2,13,14
 197 836 197 836 147 854 c 128,-1,15
 97 872 97 872 97 911 c 0,16,17
 97 952 97 952 142 952 c 1,18,19
 204 955 204 955 266.5 972 c 128,-1,20
 329 989 329 989 428 1022 c 1,21,-1
 428 892 l 1,22,-1
 532 931 l 2,23,24
 609 960 609 960 653 975 c 1,25,26
 671 980 671 980 693 980 c 0,27,28
 735 980 735 980 813 953 c 1,29,-1
 788 669 l 1,30,-1
 699 669 l 1,31,32
 660 815 660 815 569 815 c 0,33,34
 559 815 559 815 550 814 c 0,35,36
 489 807 489 807 460 745.5 c 128,-1,37
 431 684 431 684 428 595 c 1,0,-1
EndSplineSet
Validated: 1
EndChar

StartChar: s
Encoding: 115 115 86
Width: 884
GlyphClass: 2
Flags: W
LayerCount: 2
Fore
SplineSet
492 978 m 0,0,1
 646 970 646 970 794 878 c 1,2,-1
 772 692 l 1,3,4
 767 659 767 659 731 659 c 2,5,-1
 727 659 l 1,6,7
 698 661 698 661 682 696 c 0,8,9
 649 767 649 767 585.5 813 c 128,-1,10
 522 859 522 859 451 862 c 1,11,-1
 448 862 l 2,12,13
 393 862 393 862 340 834 c 0,14,15
 288 807 288 807 276 750 c 0,16,17
 271 729 271 729 271 713 c 0,18,19
 271 661 271 661 315 640 c 0,20,21
 383 606 383 606 474 585 c 0,22,23
 606 556 606 556 718.5 503.5 c 128,-1,24
 831 451 831 451 842 283 c 1,25,-1
 842 273 l 2,26,27
 842 194 842 194 781 115 c 0,28,29
 715 29 715 29 590 -14 c 0,30,31
 513 -40 513 -40 420 -43 c 1,32,-1
 392 -43 l 2,33,34
 265 -43 265 -43 137 -6 c 1,35,-1
 51 227 l 1,36,-1
 54 251 l 1,37,38
 56 284 56 284 97 284 c 2,39,-1
 102 284 l 1,40,41
 127 279 127 279 143 247 c 0,42,43
 187 153 187 153 247.5 115.5 c 128,-1,44
 308 78 308 78 401 75 c 1,45,-1
 413 75 l 2,46,47
 478 75 478 75 558 106 c 0,48,49
 637 137 637 137 640 218 c 1,50,-1
 640 224 l 2,51,52
 640 318 640 318 555 342 c 0,53,54
 449 372 449 372 369 395 c 1,55,56
 266 423 266 423 175 485 c 0,57,58
 80 549 80 549 80 672 c 2,59,-1
 80 677 l 1,60,61
 81 842 81 842 211 914 c 1,62,63
 326 979 326 979 466 979 c 0,64,65
 479 979 479 979 492 978 c 0,0,1
EndSplineSet
Validated: 1
EndChar

StartChar: t
Encoding: 116 116 87
Width: 682
GlyphClass: 2
Flags: W
LayerCount: 2
Fore
SplineSet
182 824 m 1,0,1
 170 824 170 824 94 820 c 1,2,-1
 88 820 l 2,3,4
 45 820 45 820 43 860 c 1,5,-1
 43 862 l 2,6,7
 43 889 43 889 75 904 c 0,8,9
 94 913 94 913 156 947 c 0,10,11
 172 955 172 955 189 962 c 0,12,13
 192 963 192 963 192 964 c 256,14,15
 192 965 192 965 182 965 c 1,16,-1
 182 1116 l 2,17,18
 182 1173 182 1173 207 1196.5 c 128,-1,19
 232 1220 232 1220 309 1257 c 0,20,21
 342 1273 342 1273 365 1273 c 0,22,23
 413 1273 413 1273 413 1227 c 2,24,-1
 413 969 l 1,25,-1
 626 973 l 1,26,-1
 627 973 l 2,27,28
 667 973 667 973 667 927 c 0,29,30
 667 912 667 912 663 890 c 0,31,32
 649 826 649 826 593 826 c 2,33,-1
 413 827 l 1,34,-1
 413 220 l 2,35,36
 413 138 413 138 469.5 98 c 128,-1,37
 526 58 526 58 585 50 c 1,38,-1
 585 -19 l 1,39,40
 407 -19 407 -19 294.5 12 c 128,-1,41
 182 43 182 43 182 250 c 2,42,-1
 182 824 l 1,0,1
EndSplineSet
Validated: 1
EndChar

StartChar: u
Encoding: 117 117 88
Width: 1239
GlyphClass: 2
Flags: W
LayerCount: 2
Fore
SplineSet
1065 146 m 2,0,1
 1065 94 1065 94 1115 76.5 c 128,-1,2
 1165 59 1165 59 1165 21 c 0,3,4
 1165 -20 1165 -20 1119 -20 c 2,5,-1
 876 -20 l 2,6,7
 834 -20 834 -20 834 13 c 2,8,-1
 834 46 l 1,9,10
 815 39 815 39 772 22.5 c 128,-1,11
 729 6 729 6 691 -7 c 0,12,13
 596 -39 596 -39 495 -49 c 0,14,15
 479 -50 479 -50 465 -50 c 0,16,17
 372 -50 372 -50 290 11 c 1,18,19
 160 110 160 110 160 425 c 2,20,-1
 160 786 l 2,21,22
 160 836 160 836 110 854 c 128,-1,23
 60 872 60 872 60 911 c 0,24,25
 60 952 60 952 105 952 c 1,26,27
 167 955 167 955 229.5 972 c 128,-1,28
 292 989 292 989 391 1022 c 1,29,-1
 391 425 l 2,30,31
 391 212 391 212 476 130 c 0,32,33
 527 80 527 80 599 80 c 0,34,35
 642 80 642 80 696 98 c 0,36,37
 715 104 715 104 749 117 c 128,-1,38
 783 130 783 130 806 139 c 0,39,40
 812 141 812 141 823 145 c 2,41,-1
 834 149 l 1,42,-1
 834 786 l 2,43,44
 834 836 834 836 784 854 c 128,-1,45
 734 872 734 872 734 911 c 0,46,47
 734 952 734 952 779 952 c 1,48,49
 841 955 841 955 903.5 972 c 128,-1,50
 966 989 966 989 1065 1022 c 1,51,-1
 1065 146 l 2,0,1
EndSplineSet
Validated: 1
EndChar

StartChar: v
Encoding: 118 118 89
Width: 1036
GlyphClass: 2
Flags: W
LayerCount: 2
Fore
SplineSet
379 811 m 2,0,-1
 617 229 l 1,1,-1
 823 723 l 2,2,3
 831 741 831 741 831 758 c 0,4,5
 831 787 831 787 807 815 c 2,6,-1
 763 868 l 1,7,-1
 867 949 l 1,8,9
 879 962 879 962 896 962 c 0,10,11
 915 962 915 962 931 946 c 2,12,-1
 987 889 l 2,13,14
 1009 866 1009 866 1009 833 c 0,15,16
 1009 816 1009 816 1002 794 c 0,17,18
 986 746 986 746 954 681 c 1,19,-1
 647 -5 l 2,20,21
 641 -17 641 -17 634 -26 c 1,22,23
 621 -39 621 -39 603 -39 c 2,24,-1
 519 -39 l 2,25,26
 497 -39 497 -39 487 -24 c 1,27,28
 482 -19 482 -19 477 -4.5 c 128,-1,29
 472 10 472 10 470 15 c 2,30,-1
 143 794 l 2,31,32
 129 826 129 826 102 844 c 0,33,34
 84 856 84 856 62.5 865.5 c 128,-1,35
 41 875 41 875 28 884 c 0,36,37
 17 891 17 891 8 907 c 1,38,39
 6 915 6 915 6 920 c 256,40,41
 6 925 6 925 8 933 c 1,42,43
 19 951 19 951 43 951 c 2,44,-1
 371 951 l 2,45,46
 386 951 386 951 403 941 c 1,47,48
 417 930 417 930 422 919 c 1,49,50
 424 912 424 912 424 908 c 0,51,52
 424 892 424 892 408 877 c 0,53,54
 378 850 378 850 376 844 c 256,55,56
 374 838 374 838 374 830 c 0,57,58
 374 821 374 821 379 811 c 2,0,-1
EndSplineSet
Validated: 1
EndChar

StartChar: w
Encoding: 119 119 90
Width: 1647
GlyphClass: 2
Flags: W
LayerCount: 2
Fore
SplineSet
990 811 m 2,0,-1
 1228 229 l 1,1,-1
 1434 723 l 2,2,3
 1442 741 1442 741 1442 758 c 0,4,5
 1442 787 1442 787 1418 815 c 2,6,-1
 1374 867 l 1,7,-1
 1476 949 l 1,8,9
 1488 961 1488 961 1507 961 c 0,10,11
 1525 961 1525 961 1541 947 c 1,12,-1
 1598 889 l 2,13,14
 1620 866 1620 866 1620 833 c 0,15,16
 1620 816 1620 816 1613 794 c 0,17,18
 1597 746 1597 746 1565 681 c 1,19,-1
 1258 -5 l 2,20,21
 1252 -17 1252 -17 1245 -26 c 1,22,23
 1232 -39 1232 -39 1214 -39 c 2,24,-1
 1130 -39 l 2,25,26
 1108 -39 1108 -39 1098 -24 c 1,27,28
 1093 -19 1093 -19 1088 -5 c 128,-1,29
 1083 9 1083 9 1080 14 c 2,30,-1
 875 504 l 1,31,-1
 647 -5 l 2,32,33
 641 -17 641 -17 634 -26 c 1,34,35
 621 -39 621 -39 603 -39 c 2,36,-1
 519 -39 l 2,37,38
 497 -39 497 -39 487 -24 c 1,39,40
 482 -19 482 -19 477 -4.5 c 128,-1,41
 472 10 472 10 470 15 c 2,42,-1
 143 794 l 2,43,44
 129 826 129 826 102 844 c 0,45,46
 84 856 84 856 62.5 865.5 c 128,-1,47
 41 875 41 875 28 884 c 0,48,49
 17 891 17 891 8 907 c 1,50,51
 6 915 6 915 6 920 c 256,52,53
 6 925 6 925 8 933 c 1,54,55
 19 951 19 951 43 951 c 2,56,-1
 371 951 l 2,57,58
 386 951 386 951 403 941 c 1,59,60
 417 930 417 930 422 919 c 1,61,62
 424 912 424 912 424 908 c 0,63,64
 424 892 424 892 408 877 c 0,65,66
 378 850 378 850 376 844 c 256,67,68
 374 838 374 838 374 830 c 0,69,70
 374 821 374 821 379 811 c 2,71,-1
 617 229 l 1,72,-1
 804 676 l 1,73,-1
 754 794 l 2,74,75
 740 826 740 826 713 844 c 0,76,77
 695 856 695 856 673.5 865.5 c 128,-1,78
 652 875 652 875 639 885 c 1,79,80
 623 895 623 895 619 909 c 0,81,82
 617 915 617 915 617 920 c 256,83,84
 617 925 617 925 619 933 c 1,85,86
 630 951 630 951 654 951 c 2,87,-1
 982 951 l 2,88,89
 997 951 997 951 1014 941 c 1,90,91
 1028 930 1028 930 1033 919 c 1,92,93
 1035 912 1035 912 1035 908 c 0,94,95
 1035 892 1035 892 1019 877 c 0,96,97
 989 850 989 850 987 844 c 256,98,99
 985 838 985 838 985 830 c 0,100,101
 985 821 985 821 990 811 c 2,0,-1
EndSplineSet
Validated: 1
EndChar

StartChar: x
Encoding: 120 120 91
Width: 1098
GlyphClass: 2
Flags: W
LayerCount: 2
Fore
SplineSet
142 108 m 2,0,-1
 420 448 l 1,1,-1
 162 823 l 2,2,3
 149 842 149 842 118 858 c 0,4,5
 99 868 99 868 80.5 875 c 128,-1,6
 62 882 62 882 49 890 c 0,7,8
 16 909 16 909 16 924 c 0,9,10
 16 949 16 949 56 949 c 2,11,-1
 378 949 l 2,12,13
 407 949 407 949 425 925 c 0,14,15
 431 916 431 916 431 906 c 0,16,17
 431 890 431 890 411 879 c 0,18,19
 406 876 406 876 406 868 c 0,20,21
 406 858 406 858 415 846 c 2,22,-1
 566 626 l 1,23,-1
 713 807 l 2,24,25
 805 919 805 919 832 942 c 1,26,27
 848 957 848 957 875 957 c 0,28,29
 906 957 906 957 951 934 c 2,30,-1
 1015 900 l 1,31,32
 1035 888 1035 888 1035 869 c 0,33,34
 1035 860 1035 860 1030 851 c 2,35,-1
 968 724 l 1,36,37
 906 757 906 757 875 772 c 0,38,39
 873 773 873 773 872 773 c 0,40,41
 862 773 862 773 841 747 c 2,42,-1
 646 509 l 1,43,-1
 924 106 l 2,44,45
 939 83 939 83 973 69 c 0,46,47
 988 62 988 62 1003.5 55 c 128,-1,48
 1019 48 1019 48 1036 40 c 1,49,50
 1070 20 1070 20 1070 5 c 0,51,52
 1070 -20 1070 -20 1030 -20 c 2,53,-1
 708 -20 l 2,54,55
 679 -20 679 -20 661 4 c 1,56,57
 655 14 655 14 655 22 c 0,58,59
 655 37 655 37 674 50 c 0,60,61
 679 53 679 53 680 61 c 1,62,-1
 680 62 l 2,63,64
 680 71 680 71 671 84 c 2,65,-1
 501 331 l 1,66,-1
 300 87 l 1,67,68
 285 66 285 66 285 55 c 2,69,-1
 285 52 l 2,70,71
 285 44 285 44 288 39 c 1,72,73
 291 31 291 31 291 26 c 0,74,75
 291 14 291 14 283 4 c 1,76,77
 267 -20 267 -20 242 -20 c 2,78,-1
 34 -20 l 2,79,80
 -1 -20 -1 -20 -1 5 c 0,81,82
 -1 15 -1 15 7 25 c 0,83,84
 25 47 25 47 68 58 c 128,-1,85
 111 69 111 69 142 108 c 2,0,-1
EndSplineSet
Validated: 1
EndChar

StartChar: y
Encoding: 121 121 92
Width: 1036
GlyphClass: 2
Flags: W
LayerCount: 2
Fore
SplineSet
143 794 m 2,0,1
 129 826 129 826 102 844 c 0,2,3
 79 859 79 859 48 871.5 c 128,-1,4
 17 884 17 884 9 906 c 0,5,6
 5 915 5 915 5 922 c 0,7,8
 5 951 5 951 43 951 c 2,9,-1
 371 951 l 2,10,11
 408 951 408 951 421 920 c 0,12,13
 425 913 425 913 425 905 c 0,14,15
 425 882 425 882 396 868 c 0,16,17
 382 861 382 861 376 844 c 0,18,19
 374 838 374 838 374 830 c 0,20,21
 374 821 374 821 379 811 c 2,22,-1
 617 229 l 1,23,-1
 823 723 l 2,24,25
 831 741 831 741 831 758 c 0,26,27
 831 787 831 787 807 815 c 2,28,-1
 763 868 l 1,29,-1
 867 949 l 1,30,31
 879 962 879 962 896 962 c 0,32,33
 915 962 915 962 931 946 c 2,34,-1
 987 889 l 2,35,36
 1009 866 1009 866 1009 833 c 0,37,38
 1009 816 1009 816 1002 794 c 0,39,40
 986 746 986 746 954 681 c 1,41,-1
 460 -421 l 1,42,43
 429 -487 429 -487 405 -532 c 1,44,45
 374 -586 374 -586 321 -586 c 2,46,-1
 317 -586 l 1,47,-1
 235 -583 l 1,48,49
 194 -576 194 -576 194 -544 c 1,50,-1
 187 -411 l 1,51,-1
 263 -409 l 2,52,53
 314 -407 314 -407 336 -363 c 2,54,-1
 492 -39 l 1,55,56
 495 -39 495 -39 495 -37 c 0,57,58
 495 -33 495 -33 488 -25 c 0,59,60
 482 -19 482 -19 477 -4.5 c 128,-1,61
 472 10 472 10 470 15 c 2,62,-1
 143 794 l 2,0,1
EndSplineSet
Validated: 1
EndChar

StartChar: z
Encoding: 122 122 93
Width: 1019
GlyphClass: 2
Flags: W
LayerCount: 2
Fore
SplineSet
953 869 m 2,0,-1
 339 99 l 1,1,-1
 727 99 l 1,2,3
 767 101 767 101 797.5 129.5 c 128,-1,4
 828 158 828 158 870 217 c 1,5,6
 903 261 903 261 924 261 c 0,7,8
 967 261 967 261 967 223 c 2,9,-1
 967 65 l 2,10,11
 967 6 967 6 945.5 -7 c 128,-1,12
 924 -20 924 -20 845 -20 c 2,13,-1
 160 -21 l 1,14,15
 83 -20 83 -20 55 -11 c 1,16,17
 26 -4 26 -4 26 21 c 0,18,19
 26 38 26 38 46 62 c 2,20,-1
 654 841 l 1,21,-1
 347 841 l 2,22,23
 307 841 307 841 279.5 812.5 c 128,-1,24
 252 784 252 784 211 726 c 1,25,26
 178 683 178 683 157 683 c 0,27,28
 113 683 113 683 113 720 c 2,29,-1
 113 879 l 2,30,31
 113 933 113 933 137 949 c 128,-1,32
 161 965 161 965 236 965 c 2,33,-1
 858 965 l 2,34,35
 972 965 972 965 972 913 c 0,36,37
 972 893 972 893 953 869 c 2,0,-1
EndSplineSet
Validated: 1
EndChar

StartChar: lcub
Encoding: 123 123 94
Width: 1024
GlyphClass: 2
Flags: W
LayerCount: 2
Fore
SplineSet
156 593 m 0,0,1
 126 595 126 595 114 614 c 1,2,3
 105 625 105 625 105 643 c 0,4,5
 105 648 105 648 106 655 c 0,6,7
 112 687 112 687 155 693 c 1,8,9
 297 705 297 705 346 758 c 0,10,11
 375 790 375 790 385 847.5 c 128,-1,12
 395 905 395 905 395 961 c 2,13,-1
 395 1173 l 2,14,15
 395 1246 395 1246 410 1326 c 128,-1,16
 425 1406 425 1406 477 1456 c 0,17,18
 558 1536 558 1536 774 1536 c 0,19,20
 807 1536 807 1536 823 1517 c 1,21,22
 837 1497 837 1497 837 1482 c 0,23,24
 837 1446 837 1446 782 1446 c 0,25,26
 662 1444 662 1444 622 1399 c 1,27,28
 595 1371 595 1371 587 1313.5 c 128,-1,29
 579 1256 579 1256 579 1204 c 2,30,-1
 579 1061 l 2,31,32
 579 983 579 983 568 892 c 128,-1,33
 557 801 557 801 519 746 c 0,34,35
 456 656 456 656 388 642 c 1,36,37
 455 628 455 628 519 539 c 1,38,39
 557 483 557 483 568 392.5 c 128,-1,40
 579 302 579 302 579 223 c 2,41,-1
 579 80 l 2,42,43
 579 -67 579 -67 622 -114 c 0,44,45
 663 -158 663 -158 782 -160 c 0,46,47
 816 -160 816 -160 828 -190 c 0,48,49
 831 -199 831 -199 831 -207 c 0,50,51
 831 -220 831 -220 821 -234 c 1,52,53
 806 -251 806 -251 774 -251 c 0,54,55
 560 -251 560 -251 477 -171 c 0,56,57
 425 -121 425 -121 410 -41.5 c 128,-1,58
 395 38 395 38 395 112 c 2,59,-1
 395 323 l 2,60,61
 395 379 395 379 384.5 437.5 c 128,-1,62
 374 496 374 496 345 529 c 1,63,64
 315 560 315 560 261.5 574.5 c 128,-1,65
 208 589 208 589 156 593 c 0,0,1
EndSplineSet
Validated: 1
EndChar

StartChar: verbar
Encoding: 124 124 95
Width: 1024
GlyphClass: 2
Flags: W
LayerCount: 2
Fore
SplineSet
425 1510 m 1,0,-1
 616 1510 l 1,1,-1
 616 -247 l 1,2,-1
 425 -247 l 1,3,-1
 425 1510 l 1,0,-1
EndSplineSet
Validated: 1
EndChar

StartChar: rcub
Encoding: 125 125 96
Width: 1024
GlyphClass: 2
Flags: W
LayerCount: 2
Fore
SplineSet
781 593 m 0,0,1
 728 589 728 589 674 574.5 c 128,-1,2
 620 560 620 560 591 529 c 0,3,4
 561 496 561 496 551 437.5 c 128,-1,5
 541 379 541 379 541 323 c 2,6,-1
 541 112 l 2,7,8
 541 38 541 38 525.5 -41.5 c 128,-1,9
 510 -121 510 -121 460 -171 c 1,10,11
 374 -251 374 -251 162 -251 c 0,12,13
 130 -251 130 -251 117 -236 c 256,14,15
 104 -221 104 -221 104 -206 c 0,16,17
 104 -199 104 -199 107 -190 c 0,18,19
 119 -160 119 -160 154 -160 c 0,20,21
 274 -158 274 -158 315 -114 c 0,22,23
 358 -67 358 -67 358 80 c 2,24,-1
 358 223 l 2,25,26
 358 302 358 302 369 392.5 c 128,-1,27
 380 483 380 483 418 538 c 0,28,29
 481 629 481 629 547 642 c 1,30,31
 479 656 479 656 418 745 c 0,32,33
 379 801 379 801 368.5 892 c 128,-1,34
 358 983 358 983 358 1061 c 2,35,-1
 358 1204 l 2,36,37
 358 1256 358 1256 349 1313.5 c 128,-1,38
 340 1371 340 1371 314 1399 c 0,39,40
 273 1444 273 1444 154 1446 c 0,41,42
 99 1446 99 1446 99 1482 c 0,43,44
 99 1497 99 1497 113 1517 c 0,45,46
 126 1536 126 1536 162 1536 c 0,47,48
 377 1536 377 1536 460 1456 c 0,49,50
 511 1406 511 1406 526 1326 c 128,-1,51
 541 1246 541 1246 541 1173 c 2,52,-1
 541 961 l 2,53,54
 541 905 541 905 551 847.5 c 128,-1,55
 561 790 561 790 590 758 c 0,56,57
 638 705 638 705 782 693 c 1,58,59
 823 687 823 687 831 654 c 1,60,-1
 831 643 l 2,61,62
 831 625 831 625 821 614 c 1,63,64
 808 595 808 595 781 593 c 0,0,1
EndSplineSet
Validated: 1
EndChar

StartChar: tld
Encoding: 126 126 97
Width: 1024
GlyphClass: 2
Flags: W
LayerCount: 2
Fore
SplineSet
986 722 m 0,0,1
 923 605 923 605 866 552 c 0,2,3
 798 490 798 490 722 490 c 0,4,5
 601 490 601 490 459 578 c 0,6,7
 391 620 391 620 332 620 c 0,8,9
 288 620 288 620 248 595 c 0,10,11
 236 587 236 587 220 577 c 128,-1,12
 204 567 204 567 186 551 c 0,13,14
 153 520 153 520 128 482 c 0,15,16
 114 461 114 461 89 461 c 0,17,18
 73 461 73 461 57 471 c 1,19,20
 33 483 33 483 33 506 c 0,21,22
 33 520 33 520 44 538 c 0,23,24
 91 610 91 610 143 691.5 c 128,-1,25
 195 773 195 773 312 773 c 0,26,27
 447 773 447 773 583 681 c 0,28,29
 645 639 645 639 704 639 c 0,30,31
 755 639 755 639 806 670 c 1,32,33
 856 699 856 699 894 769 c 0,34,35
 908 793 908 793 938 793 c 0,36,37
 946 793 946 793 951 791 c 1,38,39
 985 786 985 786 991 755 c 0,40,41
 992 750 992 750 992 745 c 0,42,43
 992 735 992 735 986 722 c 0,0,1
EndSplineSet
Validated: 1
EndChar

StartChar: iexcl
Encoding: 161 161 98
Width: 569
GlyphClass: 2
Flags: W
LayerCount: 2
Fore
SplineSet
319 519 m 1,0,-1
 389 -435 l 1,1,-1
 389 -444 l 2,2,3
 389 -529 389 -529 290 -529 c 2,4,-1
 227 -529 l 2,5,6
 129 -529 129 -529 129 -446 c 2,7,-1
 129 -435 l 1,8,-1
 199 519 l 1,9,10
 199 563 199 563 248 563 c 2,11,-1
 269 563 l 2,12,13
 319 563 319 563 319 519 c 1,0,-1
259 644 m 256,14,15
 124 644 124 644 124 751 c 2,16,-1
 124 833 l 2,17,18
 124 940 124 940 259 940 c 256,19,20
 394 940 394 940 394 833 c 2,21,-1
 394 751 l 2,22,23
 394 644 394 644 259 644 c 256,14,15
EndSplineSet
Validated: 1
EndChar

StartChar: cent
Encoding: 162 162 99
Width: 1024
GlyphClass: 2
Flags: W
LayerCount: 2
Fore
SplineSet
647 976 m 1,0,1
 799 976 799 976 952 877 c 1,2,-1
 934 698 l 1,3,4
 929 667 929 667 896 667 c 2,5,-1
 892 667 l 1,6,7
 864 670 864 670 851 701 c 1,8,9
 814 780 814 780 755 817 c 1,10,11
 703 847 703 847 647 850 c 1,12,-1
 648 92 l 1,13,14
 730 92 730 92 833 148 c 0,15,16
 897 183 897 183 925 183 c 0,17,18
 942 183 942 183 953 172 c 1,19,20
 960 162 960 162 960 151 c 0,21,22
 960 134 960 134 945 106 c 0,23,24
 927 72 927 72 907 54 c 0,25,26
 851 4 851 4 774 -17.5 c 128,-1,27
 697 -39 697 -39 647 -41 c 1,28,-1
 647 -232 l 1,29,-1
 513 -232 l 1,30,-1
 513 -38 l 1,31,32
 360 -24 360 -24 243 82.5 c 128,-1,33
 126 189 126 189 109 373 c 0,34,35
 105 417 105 417 105 460 c 0,36,37
 105 515 105 515 112 566 c 0,38,39
 126 658 126 658 183 749 c 0,40,41
 298 933 298 933 513 966 c 1,42,-1
 513 1135 l 1,43,-1
 647 1135 l 1,44,-1
 647 976 l 1,0,1
513 837 m 1,45,46
 478 830 478 830 440 794 c 0,47,48
 390 745 390 745 367 678 c 0,49,50
 342 607 342 607 342 519 c 0,51,52
 342 491 342 491 345 460 c 0,53,54
 355 317 355 317 422 226 c 0,55,56
 481 146 481 146 513 131 c 1,57,-1
 513 837 l 1,45,46
EndSplineSet
Validated: 1
EndChar

StartChar: pound
Encoding: 163 163 100
Width: 1024
GlyphClass: 2
Flags: W
LayerCount: 2
Fore
SplineSet
97 108 m 0,0,1
 97 49 97 49 135 49 c 0,2,3
 174 49 174 49 193 87.5 c 128,-1,4
 212 126 212 126 223 159 c 1,5,6
 201 181 201 181 174 181 c 0,7,8
 97 181 97 181 97 108 c 0,0,1
64 804 m 2,9,-1
 213 804 l 1,10,11
 207 861 207 861 207 928 c 0,12,13
 207 986 207 986 213 1035 c 0,14,15
 226 1157 226 1157 272 1245 c 0,16,17
 385 1463 385 1463 638 1463 c 0,18,19
 715 1463 715 1463 787.5 1424.5 c 128,-1,20
 860 1386 860 1386 896 1315 c 0,21,22
 913 1280 913 1280 916 1238 c 1,23,-1
 916 1230 l 2,24,25
 916 1188 916 1188 884 1156 c 0,26,27
 851 1123 851 1123 811 1123 c 0,28,29
 776 1123 776 1123 742 1151 c 1,30,31
 709 1175 709 1175 702.5 1223 c 128,-1,32
 696 1271 696 1271 692 1300 c 0,33,34
 683 1354 683 1354 623 1363 c 0,35,36
 607 1365 607 1365 593 1365 c 0,37,38
 549 1365 549 1365 519 1340 c 0,39,40
 463 1292 463 1292 447.5 1223.5 c 128,-1,41
 432 1155 432 1155 432 1079 c 0,42,43
 432 1005 432 1005 438.5 931.5 c 128,-1,44
 445 858 445 858 449 804 c 1,45,-1
 687 804 l 2,46,47
 727 804 727 804 727 769 c 2,48,-1
 727 699 l 2,49,50
 727 664 727 664 687 664 c 2,51,-1
 458 664 l 1,52,53
 459 650 459 650 459 615 c 256,54,55
 459 580 459 580 457 544 c 0,56,57
 451 461 451 461 432 386.5 c 128,-1,58
 413 312 413 312 400 249 c 1,59,60
 436 236 436 236 489 218 c 128,-1,61
 542 200 542 200 597 186 c 0,62,63
 655 172 655 172 703 172 c 0,64,65
 741 172 741 172 774 181 c 0,66,67
 841 199 841 199 881 260 c 0,68,69
 892 276 892 276 896 305 c 128,-1,70
 900 334 900 334 950 334 c 0,71,72
 995 334 995 334 995 291 c 0,73,74
 995 255 995 255 983 224 c 128,-1,75
 971 193 971 193 960 164 c 0,76,77
 921 64 921 64 834 2 c 1,78,79
 755 -51 755 -51 667 -51 c 0,80,81
 655 -51 655 -51 643 -50 c 0,82,83
 545 -42 545 -42 462 14 c 0,84,85
 443 27 443 27 388 62 c 2,86,-1
 335 95 l 1,87,88
 293 31 293 31 222 -25 c 1,89,90
 185 -52 185 -52 140 -52 c 0,91,92
 115 -52 115 -52 90 -43 c 0,93,94
 20 -20 20 -20 -6 39 c 0,95,96
 -16 62 -16 62 -16 90 c 0,97,98
 -16 116 -16 116 -6 147 c 1,99,100
 12 211 12 211 50 242 c 0,101,102
 106 286 106 286 157 286 c 2,103,-1
 164 286 l 1,104,105
 207 283 207 283 239 281 c 1,106,107
 243 310 243 310 243 357 c 2,108,-1
 243 387 l 1,109,110
 240 448 240 448 238 510 c 1,111,112
 234 584 234 584 226 664 c 1,113,-1
 64 664 l 2,114,115
 24 664 24 664 24 699 c 2,116,-1
 24 769 l 2,117,118
 24 804 24 804 64 804 c 2,9,-1
EndSplineSet
Validated: 1
EndChar

StartChar: curren
Encoding: 164 164 101
Width: 1024
GlyphClass: 2
Flags: W
LayerCount: 2
Fore
SplineSet
513 712 m 0,0,1
 418 712 418 712 349.5 643 c 128,-1,2
 281 574 281 574 281 475 c 256,3,4
 281 376 281 376 349.5 307.5 c 128,-1,5
 418 239 418 239 513 239 c 0,6,7
 606 239 606 239 675 307.5 c 128,-1,8
 744 376 744 376 744 475 c 256,9,10
 744 574 744 574 675 643 c 128,-1,11
 606 712 606 712 513 712 c 0,0,1
513 842 m 256,12,13
 639 842 639 842 720 780 c 1,14,-1
 849 909 l 2,15,16
 861 921 861 921 878 921 c 0,17,18
 897 921 897 921 907 908 c 1,19,-1
 954 862 l 1,20,21
 963 851 963 851 963 840 c 0,22,23
 963 828 963 828 951 816 c 2,24,-1
 818 684 l 1,25,26
 884 598 884 598 884 476 c 0,27,28
 884 352 884 352 818 268 c 1,29,-1
 953 135 l 1,30,31
 963 123 963 123 963 112 c 256,32,33
 963 101 963 101 954 90 c 1,34,-1
 906 44 l 1,35,36
 894 31 894 31 877 31 c 0,37,38
 859 31 859 31 847 45 c 1,39,-1
 720 172 l 1,40,41
 640 111 640 111 513 111 c 256,42,43
 386 111 386 111 306 172 c 1,44,-1
 178 43 l 2,45,46
 166 31 166 31 149 31 c 256,47,48
 132 31 132 31 121 42 c 2,49,-1
 75 88 l 2,50,51
 63 100 63 100 63 112 c 256,52,53
 63 124 63 124 76 137 c 2,54,-1
 208 269 l 1,55,56
 143 354 143 354 143 476 c 0,57,58
 143 597 143 597 208 683 c 1,59,-1
 75 817 l 1,60,61
 63 827 63 827 63 840 c 0,62,63
 63 852 63 852 75 864 c 2,64,-1
 121 910 l 2,65,66
 132 921 132 921 149 921 c 256,67,68
 166 921 166 921 178 909 c 2,69,-1
 306 780 l 1,70,71
 387 842 387 842 513 842 c 256,12,13
EndSplineSet
Validated: 1
EndChar

StartChar: yen
Encoding: 165 165 102
Width: 1366
GlyphClass: 2
Flags: W
LayerCount: 2
Fore
SplineSet
522 741 m 1,0,-1
 218 1249 l 1,1,2
 198 1279 198 1279 149 1309 c 1,3,4
 123 1322 123 1322 97 1332 c 128,-1,5
 71 1342 71 1342 53 1353 c 0,6,7
 38 1361 38 1361 29 1373 c 1,8,9
 22 1384 22 1384 22 1394 c 2,10,-1
 22 1399 l 1,11,12
 26 1424 26 1424 57 1424 c 2,13,-1
 396 1424 l 2,14,15
 415 1424 415 1424 431 1414 c 1,16,17
 445 1404 445 1404 454 1392 c 1,18,19
 460 1382 460 1382 460 1373 c 0,20,21
 460 1360 460 1360 449 1347 c 0,22,23
 442 1338 442 1338 434 1329.5 c 128,-1,24
 426 1321 426 1321 425 1313 c 1,25,-1
 425 1308 l 2,26,27
 425 1291 425 1291 438 1272 c 2,28,-1
 755 771 l 1,29,30
 796 827 796 827 864 933.5 c 128,-1,31
 932 1040 932 1040 990 1133 c 0,32,33
 1016 1175 1016 1175 1021 1202 c 1,34,-1
 1021 1211 l 2,35,36
 1021 1237 1021 1237 1000 1281 c 2,37,-1
 958 1365 l 1,38,-1
 1120 1436 l 2,39,40
 1133 1441 1133 1441 1145 1441 c 0,41,42
 1173 1441 1173 1441 1191 1414 c 1,43,-1
 1252 1312 l 2,44,45
 1265 1289 1265 1289 1265 1265 c 0,46,47
 1265 1225 1265 1225 1228 1184 c 0,48,49
 1177 1128 1177 1128 1115 1044 c 0,50,51
 1060 970 1060 970 1003 883.5 c 128,-1,52
 946 797 946 797 908 741 c 1,53,-1
 1164 741 l 1,54,-1
 1164 622 l 1,55,-1
 834 622 l 1,56,57
 830 610 830 610 826.5 572.5 c 128,-1,58
 823 535 823 535 823 520 c 1,59,-1
 1164 520 l 1,60,-1
 1164 401 l 1,61,-1
 823 401 l 1,62,-1
 823 146 l 2,63,64
 823 94 823 94 873 76.5 c 128,-1,65
 923 59 923 59 923 21 c 0,66,67
 923 -20 923 -20 877 -20 c 2,68,-1
 538 -20 l 2,69,70
 492 -20 492 -20 492 21 c 0,71,72
 492 59 492 59 542 76.5 c 128,-1,73
 592 94 592 94 592 146 c 0,74,75
 592 324 592 324 592.5 336.5 c 128,-1,76
 593 349 593 349 593 401 c 1,77,-1
 290 401 l 1,78,-1
 290 520 l 1,79,-1
 593 520 l 1,80,-1
 593 534 l 1,81,82
 592 552 592 552 592 573 c 0,83,84
 592 617 592 617 590 622 c 1,85,-1
 290 622 l 1,86,-1
 290 741 l 1,87,-1
 522 741 l 1,0,-1
EndSplineSet
Validated: 1
EndChar

StartChar: brvbar
Encoding: 166 166 103
Width: 1024
GlyphClass: 2
Flags: W
LayerCount: 2
Fore
SplineSet
315 1510 m 1,0,-1
 497 1510 l 1,1,-1
 497 793 l 1,2,-1
 315 793 l 1,3,-1
 315 1510 l 1,0,-1
315 -243 m 1,4,-1
 315 473 l 1,5,-1
 497 473 l 1,6,-1
 497 -243 l 1,7,-1
 315 -243 l 1,4,-1
EndSplineSet
Validated: 1
EndChar

StartChar: sect
Encoding: 167 167 104
Width: 1024
GlyphClass: 2
Flags: W
LayerCount: 2
Fore
SplineSet
497 -345 m 0,0,1
 566 -340 566 -340 629.5 -308.5 c 128,-1,2
 693 -277 693 -277 732 -215 c 0,3,4
 772 -150 772 -150 772 -58 c 2,5,-1
 772 -47 l 1,6,7
 769 47 769 47 701 96 c 0,8,9
 669 120 669 120 624 133 c 0,10,11
 528 159 528 159 425.5 170.5 c 128,-1,12
 323 182 323 182 226 229 c 1,13,14
 137 271 137 271 94 351 c 128,-1,15
 51 431 51 431 51 524 c 0,16,17
 51 699 51 699 156 800 c 1,18,19
 51 881 51 881 51 1051 c 0,20,21
 51 1231 51 1231 177 1348 c 1,22,23
 310 1470 310 1470 508 1470 c 0,24,25
 523 1470 523 1470 538 1469 c 0,26,27
 751 1460 751 1460 913 1356 c 1,28,-1
 889 1151 l 2,29,30
 885 1115 885 1115 849 1115 c 0,31,32
 841 1115 841 1115 837 1116 c 0,33,34
 811 1118 811 1118 796 1156 c 1,35,36
 760 1234 760 1234 689 1288 c 128,-1,37
 618 1342 618 1342 540 1346 c 1,38,-1
 526 1346 l 2,39,40
 448 1346 448 1346 387 1318 c 0,41,42
 350 1300 350 1300 325 1274 c 0,43,44
 302 1251 302 1251 287 1215 c 1,45,46
 271 1183 271 1183 265 1149 c 1,47,48
 259 1121 259 1121 259 1094 c 0,49,50
 259 1061 259 1061 268 1034 c 0,51,52
 285 978 285 978 328 948 c 1,53,54
 356 926 356 926 396 915 c 0,55,56
 419 909 419 909 451 904 c 128,-1,57
 483 899 483 899 520 893 c 0,58,59
 572 884 572 884 631.5 874.5 c 128,-1,60
 691 865 691 865 749 849 c 1,61,62
 850 815 850 815 898 763 c 0,63,64
 933 725 933 725 957 674 c 1,65,66
 983 610 983 610 983 534 c 0,67,68
 983 365 983 365 881 254 c 1,69,70
 883 253 883 253 898 237 c 0,71,72
 934 196 934 196 957 147 c 1,73,74
 983 83 983 83 983 7 c 0,75,76
 983 -196 983 -196 815 -335 c 1,77,78
 729 -404 729 -404 622 -440 c 0,79,80
 543 -467 543 -467 442 -473 c 0,81,82
 422 -474 422 -474 402 -474 c 0,83,84
 267 -474 267 -474 132 -432 c 1,85,-1
 42 -178 l 2,86,87
 39 -170 39 -170 39 -163 c 0,88,89
 39 -147 39 -147 49 -135 c 1,90,91
 61 -113 61 -113 87 -113 c 2,92,-1
 91 -113 l 1,93,94
 117 -116 117 -116 136 -152 c 1,95,96
 193 -273 193 -273 276 -313 c 1,97,98
 344 -347 344 -347 450 -347 c 0,99,100
 473 -347 473 -347 497 -345 c 0,0,1
733 312 m 1,101,102
 772 375 772 375 772 468 c 2,103,-1
 772 479 l 1,104,105
 769 574 769 574 702 623 c 1,106,107
 666 647 666 647 624 660 c 1,108,109
 543 681 543 681 456.5 692 c 128,-1,110
 370 703 370 703 305 725 c 1,111,112
 299 718 299 718 287 689 c 1,113,114
 271 658 271 658 265 622 c 1,115,116
 259 594 259 594 259 567 c 0,117,118
 259 534 259 534 268 507 c 0,119,120
 286 450 286 450 328 422 c 1,121,122
 355 399 355 399 396 389 c 0,123,124
 431 380 431 380 520 366 c 0,125,126
 572 357 572 357 631.5 347.5 c 128,-1,127
 691 338 691 338 733 312 c 1,101,102
EndSplineSet
Validated: 1
EndChar

StartChar: uml
Encoding: 168 168 105
Width: 682
GlyphClass: 2
Flags: W
LayerCount: 2
Fore
SplineSet
554 1145 m 0,0,1
 495 1145 495 1145 458 1185 c 1,2,3
 420 1220 420 1220 420 1274 c 0,4,5
 420 1403 420 1403 554 1403 c 0,6,7
 613 1403 613 1403 650 1366 c 0,8,9
 689 1327 689 1327 689 1274 c 0,10,11
 689 1222 689 1222 650 1183 c 0,12,13
 612 1145 612 1145 554 1145 c 0,0,1
130 1145 m 0,14,15
 72 1145 72 1145 34 1183 c 0,16,17
 -11 1228 -11 1228 -11 1274 c 0,18,19
 -11 1319 -11 1319 32 1363 c 0,20,21
 72 1403 72 1403 130 1403 c 256,22,23
 188 1403 188 1403 226 1365 c 0,24,25
 264 1328 264 1328 264 1274 c 0,26,27
 264 1222 264 1222 225 1183 c 0,28,29
 187 1145 187 1145 130 1145 c 0,14,15
EndSplineSet
Validated: 1
EndChar

StartChar: copy
Encoding: 169 169 106
Width: 1532
GlyphClass: 2
Flags: W
LayerCount: 2
Fore
SplineSet
767 1472 m 256,0,1
 1088 1472 1088 1472 1313.5 1247.5 c 128,-1,2
 1539 1023 1539 1023 1539 708 c 0,3,4
 1539 392 1539 392 1313.5 168 c 128,-1,5
 1088 -56 1088 -56 767 -56 c 256,6,7
 446 -56 446 -56 220.5 168 c 128,-1,8
 -5 392 -5 392 -5 708 c 0,9,10
 -5 1023 -5 1023 220.5 1247.5 c 128,-1,11
 446 1472 446 1472 767 1472 c 256,0,1
767 1352 m 256,12,13
 503 1352 503 1352 314.5 1164 c 128,-1,14
 126 976 126 976 126 708 c 0,15,16
 126 439 126 439 314.5 251.5 c 128,-1,17
 503 64 503 64 767 64 c 256,18,19
 1031 64 1031 64 1220 251.5 c 128,-1,20
 1409 439 1409 439 1409 708 c 0,21,22
 1409 976 1409 976 1220 1164 c 128,-1,23
 1031 1352 1031 1352 767 1352 c 256,12,13
829 1148 m 1,24,-1
 844 1148 l 2,25,26
 994 1148 994 1148 1131 1062 c 1,27,-1
 1115 908 l 1,28,29
 1115 878 1115 878 1079 878 c 2,30,-1
 1076 878 l 2,31,32
 1052 878 1052 878 1038 908 c 0,33,34
 1006 976 1006 976 956 1007 c 0,35,36
 909 1035 909 1035 837 1035 c 2,37,-1
 818 1035 l 1,38,39
 735 1031 735 1031 691 988 c 0,40,41
 651 950 651 950 629 889 c 0,42,43
 608 828 608 828 608 753 c 0,44,45
 608 729 608 729 610 703 c 0,46,47
 619 580 619 580 675 503 c 1,48,49
 750 404 750 404 838 392 c 1,50,51
 852 389 852 389 867 389 c 0,52,53
 936 389 936 389 1023 436 c 1,54,55
 1079 468 1079 468 1104 468 c 0,56,57
 1120 468 1120 468 1128 460 c 0,58,59
 1138 450 1138 450 1138 438 c 0,60,61
 1138 422 1138 422 1124 398 c 1,62,63
 1110 368 1110 368 1091 353 c 1,64,65
 1037 303 1037 303 960 285 c 0,66,67
 890 268 890 268 824 268 c 2,68,-1
 817 268 l 2,69,70
 647 268 647 268 531.5 362 c 128,-1,71
 416 456 416 456 400 628 c 0,72,73
 396 667 396 667 396 705 c 0,74,75
 396 751 396 751 402 794 c 0,76,77
 414 873 414 873 464 952 c 0,78,79
 581 1139 581 1139 829 1148 c 1,24,-1
EndSplineSet
Validated: 1
EndChar

StartChar: ordf
Encoding: 170 170 107
Width: 686
GlyphClass: 2
Flags: W
LayerCount: 2
Fore
SplineSet
462 869 m 1,0,-1
 332 820 l 2,1,2
 307 811 307 811 291 811 c 0,3,4
 273 811 273 811 264 812 c 0,5,6
 167 815 167 815 100 889 c 1,7,8
 35 959 35 959 25 1060 c 0,9,10
 23 1083 23 1083 23 1106 c 0,11,12
 23 1208 23 1208 69 1280 c 0,13,14
 88 1310 88 1310 126 1340 c 0,15,16
 142 1353 142 1353 164 1360 c 1,17,18
 213 1379 213 1379 261 1397 c 128,-1,19
 309 1415 309 1415 355 1432 c 0,20,21
 370 1438 370 1438 389 1438 c 1,22,23
 434 1435 434 1435 491 1416 c 0,24,25
 503 1412 503 1412 525 1403 c 1,26,27
 557 1429 557 1429 579 1429 c 0,28,29
 593 1429 593 1429 599 1423 c 1,30,31
 619 1413 619 1413 619 1396 c 0,32,33
 619 1359 619 1359 616 1334 c 128,-1,34
 613 1309 613 1309 612 1273 c 0,35,36
 611 1256 611 1256 611 1210 c 2,37,-1
 612 926 l 2,38,39
 612 904 612 904 641 895 c 128,-1,40
 670 886 670 886 670 858 c 0,41,42
 670 826 670 826 633 826 c 2,43,-1
 497 827 l 2,44,45
 463 827 463 827 463 854 c 1,46,-1
 462 869 l 1,0,-1
76 751 m 2,47,-1
 617 751 l 2,48,49
 653 751 653 751 653 720 c 2,50,-1
 653 667 l 2,51,52
 653 635 653 635 617 635 c 2,53,-1
 76 635 l 2,54,55
 39 635 39 635 39 667 c 2,56,-1
 39 720 l 2,57,58
 39 751 39 751 76 751 c 2,47,-1
362 913 m 0,59,60
 374 914 374 914 386 918 c 0,61,62
 428 934 428 934 462 947 c 1,63,-1
 461 1299 l 1,64,65
 410 1346 410 1346 350 1349 c 0,66,67
 343 1349 343 1349 336 1346 c 0,68,69
 313 1338 313 1338 291.5 1330 c 128,-1,70
 270 1322 270 1322 249 1314 c 0,71,72
 241 1311 241 1311 234 1304 c 0,73,74
 202 1270 202 1270 190 1218 c 0,75,76
 181 1178 181 1178 181 1140 c 0,77,78
 181 1125 181 1125 182 1111 c 0,79,80
 188 1032 188 1032 225 980 c 0,81,82
 261 931 261 931 312 917 c 0,83,84
 330 912 330 912 348 912 c 0,85,86
 355 912 355 912 362 913 c 0,59,60
EndSplineSet
Validated: 1
EndChar

StartChar: laquo
Encoding: 171 171 108
Width: 1024
GlyphClass: 2
Flags: W
LayerCount: 2
Fore
SplineSet
84 603 m 1,0,1
 72 613 72 613 72 627 c 0,2,3
 72 639 72 639 82 651 c 0,4,5
 143 724 143 724 250.5 823.5 c 128,-1,6
 358 923 358 923 432 1000 c 0,7,8
 443 1011 443 1011 459 1011 c 0,9,10
 466 1011 466 1011 477 1007 c 1,11,-1
 520 977 l 1,12,13
 529 965 529 965 529 957 c 0,14,15
 529 951 529 951 525 944 c 1,16,-1
 277 629 l 1,17,-1
 524 313 l 1,18,19
 531 307 531 307 531 297 c 0,20,21
 531 284 531 284 517 275 c 2,22,-1
 480 250 l 2,23,24
 470 243 470 243 459 243 c 0,25,26
 441 243 441 243 432 256 c 1,27,28
 347 338 347 338 257.5 426.5 c 128,-1,29
 168 515 168 515 84 603 c 1,0,1
505 603 m 1,30,31
 494 612 494 612 494 626 c 0,32,33
 494 637 494 637 502 650 c 1,34,35
 564 724 564 724 671.5 823.5 c 128,-1,36
 779 923 779 923 853 1000 c 0,37,38
 865 1012 865 1012 880 1012 c 256,39,40
 895 1012 895 1012 903 1004 c 1,41,-1
 940 978 l 1,42,43
 951 967 951 967 951 957 c 0,44,45
 951 948 951 948 944 942 c 1,46,-1
 699 629 l 1,47,-1
 948 311 l 1,48,49
 952 304 952 304 952 299 c 0,50,51
 952 284 952 284 938 275 c 2,52,-1
 903 251 l 1,53,54
 895 243 895 243 880 243 c 256,55,56
 865 243 865 243 854 255 c 0,57,58
 769 339 769 339 679 427 c 128,-1,59
 589 515 589 515 505 603 c 1,30,31
EndSplineSet
Validated: 1
EndChar

StartChar: not
Encoding: 172 172 109
Width: 1024
GlyphClass: 2
Flags: W
LayerCount: 2
Fore
SplineSet
1023 321 m 1,0,-1
 856 321 l 1,1,-1
 856 755 l 1,2,-1
 5 755 l 1,3,-1
 5 907 l 1,4,-1
 1023 907 l 1,5,-1
 1023 321 l 1,0,-1
EndSplineSet
Validated: 1
EndChar

StartChar: shy
Encoding: 173 173 110
Width: 670
GlyphClass: 2
Flags: W
LayerCount: 2
Fore
SplineSet
156 389 m 2,0,1
 91 389 91 389 91 437 c 2,2,-1
 91 520 l 2,3,4
 91 569 91 569 157 569 c 2,5,-1
 513 569 l 2,6,7
 579 569 579 569 579 520 c 2,8,-1
 579 437 l 2,9,10
 579 389 579 389 514 389 c 2,11,-1
 156 389 l 2,0,1
EndSplineSet
Validated: 1
EndChar

StartChar: reg
Encoding: 174 174 111
Width: 1530
GlyphClass: 2
Flags: W
LayerCount: 2
Fore
SplineSet
886 671 m 1,0,-1
 1131 350 l 1,1,2
 1139 343 1139 343 1158 342 c 1,3,4
 1196 335 1196 335 1196 308 c 2,5,-1
 1196 306 l 1,6,7
 1193 275 1193 275 1159 275 c 2,8,-1
 1002 275 l 2,9,10
 977 275 977 275 863.5 435.5 c 128,-1,11
 750 596 750 596 693 668 c 1,12,-1
 638 668 l 1,13,-1
 638 381 l 2,14,15
 638 356 638 356 667.5 345.5 c 128,-1,16
 697 335 697 335 697 308 c 0,17,18
 697 275 697 275 659 275 c 2,19,-1
 460 275 l 2,20,21
 423 275 423 275 423 308 c 0,22,23
 423 335 423 335 452.5 345.5 c 128,-1,24
 482 356 482 356 482 381 c 2,25,-1
 482 1034 l 2,26,27
 482 1059 482 1059 452.5 1069.5 c 128,-1,28
 423 1080 423 1080 423 1108 c 0,29,30
 423 1140 423 1140 460 1140 c 2,31,-1
 807 1141 l 2,32,33
 873 1141 873 1141 945 1117.5 c 128,-1,34
 1017 1094 1017 1094 1058 1024 c 1,35,36
 1087 972 1087 972 1089 896 c 1,37,38
 1087 824 1087 824 1047 767 c 0,39,40
 1014 720 1014 720 956 695.5 c 128,-1,41
 898 671 898 671 886 671 c 1,0,-1
767 1472 m 256,42,43
 1088 1472 1088 1472 1313.5 1247.5 c 128,-1,44
 1539 1023 1539 1023 1539 708 c 0,45,46
 1539 392 1539 392 1313.5 168 c 128,-1,47
 1088 -56 1088 -56 767 -56 c 256,48,49
 446 -56 446 -56 220.5 168 c 128,-1,50
 -5 392 -5 392 -5 708 c 0,51,52
 -5 1023 -5 1023 220.5 1247.5 c 128,-1,53
 446 1472 446 1472 767 1472 c 256,42,43
638 1052 m 1,54,-1
 638 749 l 1,55,-1
 749 749 l 2,56,57
 836 749 836 749 884 795 c 0,58,59
 925 834 925 834 925 902 c 0,60,61
 925 967 925 967 882 1009 c 0,62,63
 837 1052 837 1052 761 1052 c 2,64,-1
 638 1052 l 1,54,-1
767 1352 m 256,65,66
 503 1352 503 1352 314.5 1164 c 128,-1,67
 126 976 126 976 126 708 c 0,68,69
 126 439 126 439 314.5 251.5 c 128,-1,70
 503 64 503 64 767 64 c 256,71,72
 1031 64 1031 64 1220 251.5 c 128,-1,73
 1409 439 1409 439 1409 708 c 0,74,75
 1409 976 1409 976 1220 1164 c 128,-1,76
 1031 1352 1031 1352 767 1352 c 256,65,66
EndSplineSet
Validated: 1
EndChar

StartChar: macr
Encoding: 175 175 112
Width: 680
GlyphClass: 2
Flags: W
LayerCount: 2
Fore
SplineSet
51 1367 m 2,0,-1
 650 1367 l 2,1,2
 686 1367 686 1367 686 1337 c 2,3,-1
 686 1251 l 2,4,5
 686 1220 686 1220 650 1220 c 2,6,-1
 51 1220 l 2,7,8
 15 1220 15 1220 15 1251 c 2,9,-1
 15 1337 l 2,10,11
 15 1367 15 1367 51 1367 c 2,0,-1
EndSplineSet
Validated: 1
EndChar

StartChar: deg
Encoding: 176 176 113
Width: 819
GlyphClass: 2
Flags: W
LayerCount: 2
Fore
SplineSet
406 1407 m 0,0,1
 546 1407 546 1407 643 1310 c 128,-1,2
 740 1213 740 1213 740 1078 c 256,3,4
 740 943 740 943 643 846 c 128,-1,5
 546 749 546 749 406 749 c 0,6,7
 265 749 265 749 168.5 846 c 128,-1,8
 72 943 72 943 72 1078 c 256,9,10
 72 1213 72 1213 168.5 1310 c 128,-1,11
 265 1407 265 1407 406 1407 c 0,0,1
406 1285 m 0,12,13
 324 1285 324 1285 264.5 1224.5 c 128,-1,14
 205 1164 205 1164 205 1078 c 0,15,16
 205 991 205 991 264.5 931.5 c 128,-1,17
 324 872 324 872 406 872 c 0,18,19
 487 872 487 872 547 931.5 c 128,-1,20
 607 991 607 991 607 1078 c 0,21,22
 607 1164 607 1164 547 1224.5 c 128,-1,23
 487 1285 487 1285 406 1285 c 0,12,13
EndSplineSet
Validated: 1
EndChar

StartChar: plusmn
Encoding: 177 177 114
Width: 1024
GlyphClass: 2
Flags: W
LayerCount: 2
Fore
SplineSet
200 826 m 2,0,-1
 454 826 l 1,1,-1
 454 1086 l 2,2,3
 454 1142 454 1142 506 1142 c 2,4,-1
 558 1142 l 2,5,6
 610 1142 610 1142 610 1086 c 2,7,-1
 610 826 l 1,8,-1
 864 826 l 2,9,10
 926 826 926 826 926 780 c 2,11,-1
 926 727 l 2,12,13
 926 681 926 681 864 681 c 2,14,-1
 610 681 l 1,15,-1
 610 422 l 2,16,17
 610 365 610 365 558 365 c 2,18,-1
 506 365 l 2,19,20
 454 365 454 365 454 422 c 2,21,-1
 454 681 l 1,22,-1
 200 681 l 2,23,24
 138 681 138 681 138 727 c 2,25,-1
 138 780 l 2,26,27
 138 826 138 826 200 826 c 2,0,-1
200 258 m 2,28,-1
 864 258 l 2,29,30
 926 258 926 258 926 211 c 2,31,-1
 926 159 l 2,32,33
 926 112 926 112 864 112 c 2,34,-1
 200 112 l 2,35,36
 138 112 138 112 138 159 c 2,37,-1
 138 211 l 2,38,39
 138 258 138 258 200 258 c 2,28,-1
EndSplineSet
Validated: 1
EndChar

StartChar: sup2
Encoding: 178 178 115
Width: 735
GlyphClass: 2
Flags: W
LayerCount: 2
Fore
SplineSet
83 431 m 1,0,-1
 83 502 l 2,1,2
 83 563 83 563 120 609 c 0,3,4
 153 651 153 651 226 730 c 1,5,6
 268 771 268 771 309.5 817 c 128,-1,7
 351 863 351 863 389 908 c 0,8,9
 440 968 440 968 467 1036 c 0,10,11
 485 1080 485 1080 485 1117 c 0,12,13
 485 1151 485 1151 470 1178 c 0,14,15
 439 1236 439 1236 384 1257 c 0,16,17
 352 1269 352 1269 316 1269 c 0,18,19
 277 1269 277 1269 260 1262 c 0,20,21
 195 1235 195 1235 155 1188 c 0,22,23
 111 1139 111 1139 91 1096 c 1,24,-1
 77 1232 l 1,25,26
 82 1251 82 1251 92 1269 c 0,27,28
 162 1384 162 1384 299 1403 c 0,29,30
 328 1407 328 1407 356 1407 c 0,31,32
 450 1407 450 1407 535 1359 c 0,33,34
 647 1295 647 1295 649 1153 c 1,35,-1
 649 1149 l 2,36,37
 649 964 649 964 483 820 c 1,38,39
 324 680 324 680 269 587 c 1,40,-1
 468 587 l 2,41,42
 550 587 550 587 652 625 c 1,43,-1
 652 469 l 1,44,45
 599 434 599 434 552.5 432.5 c 128,-1,46
 506 431 506 431 468 431 c 2,47,-1
 83 431 l 1,0,-1
EndSplineSet
Validated: 1
EndChar

StartChar: sup3
Encoding: 179 179 116
Width: 735
GlyphClass: 2
Flags: W
LayerCount: 2
Fore
SplineSet
490 468 m 1,0,1
 415 415 415 415 301 402 c 0,2,3
 283 400 283 400 266 400 c 0,4,5
 172 400 172 400 96 460 c 1,6,-1
 90 689 l 1,7,8
 174 529 174 529 257 509 c 0,9,10
 289 501 289 501 318 501 c 0,11,12
 364 501 364 501 403 521 c 0,13,14
 463 553 463 553 484 611 c 0,15,16
 496 644 496 644 496 678 c 0,17,18
 496 707 496 707 487 734 c 0,19,20
 468 795 468 795 408.5 839 c 128,-1,21
 349 883 349 883 223 885 c 1,22,-1
 220 937 l 1,23,24
 281 956 281 956 334 979.5 c 128,-1,25
 387 1003 387 1003 415 1051 c 0,26,27
 438 1089 438 1089 438 1127 c 0,28,29
 438 1139 438 1139 436 1150 c 0,30,31
 427 1200 427 1200 396 1233 c 0,32,33
 361 1269 361 1269 307 1275 c 1,34,-1
 295 1275 l 2,35,36
 245 1275 245 1275 199 1231 c 0,37,38
 176 1209 176 1209 136 1114 c 1,39,-1
 112 1284 l 1,40,41
 223 1404 223 1404 363 1404 c 1,42,43
 530 1402 530 1402 586 1270 c 1,44,45
 601 1232 601 1232 601 1196 c 0,46,47
 601 1111 601 1111 507 1017 c 0,48,49
 491 1001 491 1001 486 997 c 1,50,51
 559 961 559 961 605 882 c 1,52,53
 644 813 644 813 644 740 c 0,54,55
 644 730 644 730 643 719 c 0,56,57
 630 571 630 571 490 468 c 1,0,1
EndSplineSet
Validated: 1
EndChar

StartChar: acute
Encoding: 180 180 117
Width: 682
GlyphClass: 2
Flags: W
LayerCount: 2
Fore
SplineSet
225 1108 m 2,0,1
 175 1077 175 1077 141 1077 c 0,2,3
 133 1077 133 1077 129 1079 c 1,4,5
 101 1082 101 1082 101 1106 c 0,6,7
 101 1126 101 1126 142 1168 c 2,8,-1
 262 1292 l 2,9,10
 286 1317 286 1317 351.5 1385 c 128,-1,11
 417 1453 417 1453 444 1470 c 0,12,13
 471 1486 471 1486 500 1486 c 0,14,15
 523 1486 523 1486 547 1476 c 0,16,17
 599 1453 599 1453 599 1393 c 0,18,19
 599 1359 599 1359 575 1334.5 c 128,-1,20
 551 1310 551 1310 525 1294 c 2,21,-1
 225 1108 l 2,0,1
EndSplineSet
Validated: 1
EndChar

StartChar: micro
Encoding: 181 181 118
Width: 1325
GlyphClass: 2
Flags: W
LayerCount: 2
Fore
SplineSet
865 752 m 2,0,1
 865 802 865 802 814 820 c 128,-1,2
 763 838 763 838 763 877 c 0,3,4
 763 918 763 918 808 918 c 1,5,6
 860 920 860 920 917 934 c 1,7,8
 985 949 985 949 1095 989 c 1,9,-1
 1095 142 l 2,10,11
 1095 91 1095 91 1146.5 75.5 c 128,-1,12
 1198 60 1198 60 1198 21 c 0,13,14
 1198 -20 1198 -20 1152 -20 c 2,15,-1
 864 -20 l 1,16,-1
 864 55 l 1,17,-1
 693 -12 l 2,18,19
 627 -37 627 -37 563 -37 c 0,20,21
 545 -37 545 -37 528 -35 c 0,22,23
 447 -26 447 -26 386 8 c 0,24,25
 314 47 314 47 302 47 c 1,26,-1
 305 23 l 1,27,-1
 352 -531 l 1,28,-1
 352 -534 l 2,29,30
 352 -573 352 -573 307 -573 c 2,31,-1
 215 -573 l 2,32,33
 170 -573 170 -573 170 -532 c 2,34,-1
 170 804 l 1,35,36
 155 819 155 819 121.5 833 c 128,-1,37
 88 847 88 847 88 877 c 0,38,39
 88 918 88 918 133 918 c 1,40,41
 188 921 188 921 243 935 c 1,42,43
 278 942 278 942 310 953 c 128,-1,44
 342 964 342 964 413 988 c 1,45,-1
 413 424 l 2,46,47
 413 252 413 252 489 160 c 1,48,49
 548 87 548 87 633 87 c 0,50,51
 679 87 679 87 734 107 c 2,52,-1
 865 156 l 1,53,-1
 865 752 l 2,0,1
EndSplineSet
Validated: 1
EndChar

StartChar: para
Encoding: 182 182 119
Width: 1266
GlyphClass: 2
Flags: W
LayerCount: 2
Fore
SplineSet
702 1317 m 1,0,-1
 702 -214 l 1,1,-1
 912 -214 l 1,2,-1
 912 1317 l 1,3,-1
 702 1317 l 1,0,-1
504 767 m 1,4,5
 486 761 486 761 433 761 c 0,6,7
 297 761 297 761 203.5 859 c 128,-1,8
 110 957 110 957 110 1093 c 0,9,10
 110 1228 110 1228 203.5 1325.5 c 128,-1,11
 297 1423 297 1423 432 1424 c 1,12,-1
 1181 1424 l 2,13,14
 1232 1424 1232 1424 1232 1379 c 0,15,16
 1232 1335 1232 1335 1171 1313 c 128,-1,17
 1110 1291 1110 1291 1110 1226 c 2,18,-1
 1110 -122 l 2,19,20
 1110 -187 1110 -187 1171 -209 c 128,-1,21
 1232 -231 1232 -231 1232 -275 c 0,22,23
 1232 -320 1232 -320 1181 -320 c 2,24,-1
 433 -320 l 2,25,26
 382 -320 382 -320 382 -275 c 0,27,28
 382 -231 382 -231 443 -209 c 128,-1,29
 504 -187 504 -187 504 -122 c 2,30,-1
 504 767 l 1,4,5
EndSplineSet
Validated: 1
EndChar

StartChar: middot
Encoding: 183 183 120
Width: 512
GlyphClass: 2
Flags: W
LayerCount: 2
Fore
SplineSet
255 476 m 256,0,1
 192 476 192 476 150 518 c 128,-1,2
 108 560 108 560 108 618 c 0,3,4
 108 675 108 675 150 717.5 c 128,-1,5
 192 760 192 760 255 760 c 256,6,7
 318 760 318 760 360 717.5 c 128,-1,8
 402 675 402 675 402 618 c 0,9,10
 402 560 402 560 360 518 c 128,-1,11
 318 476 318 476 255 476 c 256,0,1
EndSplineSet
Validated: 1
EndChar

StartChar: cedil
Encoding: 184 184 121
Width: 1011
GlyphClass: 2
Flags: W
LayerCount: 2
Fore
SplineSet
370 15 m 1,0,-1
 474 15 l 1,1,2
 460 -29 460 -29 460 -46 c 0,3,4
 460 -71 460 -71 476 -86 c 0,5,6
 511 -119 511 -119 550 -152 c 0,7,8
 614 -206 614 -206 614 -289 c 2,9,-1
 614 -298 l 1,10,11
 609 -398 609 -398 467 -409 c 1,12,-1
 451 -409 l 2,13,14
 388 -409 388 -409 291 -376 c 1,15,-1
 261 -242 l 1,16,17
 356 -308 356 -308 391 -308 c 0,18,19
 416 -308 416 -308 440 -292 c 0,20,21
 461 -278 461 -278 461 -258 c 0,22,23
 461 -228 461 -228 416 -184 c 0,24,25
 382 -152 382 -152 355 -108 c 0,26,27
 341 -87 341 -87 341 -61 c 0,28,29
 341 -30 341 -30 370 15 c 1,0,-1
EndSplineSet
Validated: 1
EndChar

StartChar: sup1
Encoding: 185 185 122
Width: 668
GlyphClass: 2
Flags: W
LayerCount: 2
Fore
SplineSet
232 431 m 2,0,1
 194 431 194 431 194 464 c 0,2,3
 194 493 194 493 226 504.5 c 128,-1,4
 258 516 258 516 258 545 c 2,5,-1
 258 1238 l 1,6,-1
 127 1238 l 1,7,-1
 127 1289 l 2,8,9
 127 1330 127 1330 275 1370 c 0,10,11
 308 1379 308 1379 340 1387.5 c 128,-1,12
 372 1396 372 1396 425 1412 c 1,13,-1
 425 545 l 2,14,15
 425 516 425 516 457 504.5 c 128,-1,16
 489 493 489 493 489 464 c 0,17,18
 489 431 489 431 451 431 c 2,19,-1
 232 431 l 2,0,1
EndSplineSet
Validated: 1
EndChar

StartChar: ordm
Encoding: 186 186 123
Width: 682
GlyphClass: 2
Flags: W
LayerCount: 2
Fore
SplineSet
338 1449 m 0,0,1
 475 1449 475 1449 570.5 1351.5 c 128,-1,2
 666 1254 666 1254 666 1119 c 0,3,4
 666 983 666 983 570.5 885.5 c 128,-1,5
 475 788 475 788 338 788 c 0,6,7
 200 788 200 788 104.5 885.5 c 128,-1,8
 9 983 9 983 9 1119 c 0,9,10
 9 1254 9 1254 104.5 1351.5 c 128,-1,11
 200 1449 200 1449 338 1449 c 0,0,1
77 750 m 2,12,-1
 600 750 l 2,13,14
 637 750 637 750 637 718 c 2,15,-1
 637 660 l 2,16,17
 637 627 637 627 600 627 c 2,18,-1
 77 627 l 2,19,20
 40 627 40 627 40 660 c 2,21,-1
 40 718 l 2,22,23
 40 750 40 750 77 750 c 2,12,-1
325 1365 m 256,24,25
 262 1365 262 1365 219 1298 c 0,26,27
 177 1232 177 1232 177 1142 c 0,28,29
 177 1132 177 1132 178 1120 c 0,30,31
 183 1014 183 1014 236 943.5 c 128,-1,32
 289 873 289 873 353 873 c 0,33,34
 414 873 414 873 458 940 c 0,35,36
 501 1005 501 1005 501 1096 c 0,37,38
 501 1106 501 1106 500 1118 c 0,39,40
 494 1223 494 1223 441 1294 c 128,-1,41
 388 1365 388 1365 325 1365 c 256,24,25
EndSplineSet
Validated: 1
EndChar

StartChar: raquo
Encoding: 187 187 124
Width: 1024
GlyphClass: 2
Flags: W
LayerCount: 2
Fore
SplineSet
941 603 m 1,0,1
 856 515 856 515 766.5 427 c 128,-1,2
 677 339 677 339 592 255 c 0,3,4
 581 243 581 243 566 243 c 256,5,6
 551 243 551 243 543 251 c 1,7,-1
 508 275 l 2,8,9
 494 284 494 284 494 297 c 0,10,11
 494 307 494 307 501 313 c 1,12,-1
 748 629 l 1,13,-1
 502 942 l 1,14,15
 495 948 495 948 495 957 c 0,16,17
 495 967 495 967 506 978 c 1,18,-1
 546 1006 l 1,19,20
 556 1011 556 1011 566 1011 c 0,21,22
 579 1011 579 1011 591 1001 c 1,23,24
 667 923 667 923 774 823.5 c 128,-1,25
 881 724 881 724 943 651 c 0,26,27
 953 639 953 639 953 627 c 0,28,29
 953 613 953 613 941 603 c 1,0,1
520 603 m 1,30,31
 435 515 435 515 345.5 427 c 128,-1,32
 256 339 256 339 171 255 c 0,33,34
 160 243 160 243 145 243 c 256,35,36
 130 243 130 243 122 251 c 1,37,-1
 87 275 l 2,38,39
 73 284 73 284 73 298 c 0,40,41
 73 304 73 304 77 311 c 1,42,-1
 327 629 l 1,43,-1
 81 942 l 1,44,45
 74 948 74 948 74 957 c 0,46,47
 74 967 74 967 85 978 c 1,48,-1
 122 1004 l 1,49,50
 130 1012 130 1012 145 1012 c 256,51,52
 160 1012 160 1012 172 1000 c 0,53,54
 246 923 246 923 353 823.5 c 128,-1,55
 460 724 460 724 523 650 c 1,56,57
 531 637 531 637 531 626 c 0,58,59
 531 612 531 612 520 603 c 1,30,31
EndSplineSet
Validated: 1
EndChar

StartChar: frac14
Encoding: 188 188 125
Width: 1350
GlyphClass: 2
Flags: W
LayerCount: 2
Fore
SplineSet
1162 1420 m 1,0,-1
 1332 1420 l 1,1,-1
 145 -20 l 1,2,-1
 -26 -20 l 1,3,-1
 1162 1420 l 1,0,-1
1216 683 m 1,4,-1
 1216 282 l 1,5,-1
 1310 282 l 1,6,-1
 1310 175 l 1,7,-1
 1216 175 l 1,8,-1
 1216 86 l 2,9,10
 1216 66 1216 66 1263.5 51.5 c 128,-1,11
 1311 37 1311 37 1311 10 c 0,12,13
 1311 -20 1311 -20 1275 -20 c 2,14,-1
 1015 -20 l 2,15,16
 980 -20 980 -20 980 10 c 0,17,18
 980 37 980 37 1028 51 c 128,-1,19
 1076 65 1076 65 1076 84 c 2,20,-1
 1077 175 l 1,21,-1
 806 175 l 1,22,-1
 806 255 l 1,23,-1
 1087 683 l 1,24,-1
 1216 683 l 1,4,-1
1079 282 m 1,25,-1
 1079 509 l 1,26,-1
 932 282 l 1,27,-1
 1079 282 l 1,25,-1
417 1428 m 1,28,-1
 417 814 l 2,29,30
 417 794 417 794 464 779.5 c 128,-1,31
 511 765 511 765 511 738 c 0,32,33
 511 707 511 707 475 707 c 2,34,-1
 215 707 l 2,35,36
 180 707 180 707 180 738 c 0,37,38
 180 765 180 765 227 779.5 c 128,-1,39
 274 794 274 794 274 813 c 2,40,-1
 274 1293 l 2,41,42
 274 1301 274 1301 234 1305 c 0,43,44
 169 1310 169 1310 169 1335 c 0,45,46
 169 1363 169 1363 197 1368 c 1,47,-1
 417 1428 l 1,28,-1
EndSplineSet
Validated: 1
EndChar

StartChar: frac12
Encoding: 189 189 126
Width: 1312
GlyphClass: 2
Flags: W
LayerCount: 2
Fore
SplineSet
1129 1382 m 1,0,-1
 1296 1382 l 1,1,-1
 141 -20 l 1,2,-1
 -27 -20 l 1,3,-1
 1129 1382 l 1,0,-1
260 697 m 2,4,5
 225 697 225 697 225 726 c 0,6,7
 225 751 225 751 248 759 c 128,-1,8
 271 767 271 767 271 784 c 2,9,-1
 271 1270 l 1,10,-1
 178 1270 l 1,11,-1
 178 1312 l 2,12,13
 178 1345 178 1345 288 1376 c 0,14,15
 312 1382 312 1382 334 1388 c 128,-1,16
 356 1394 356 1394 403 1407 c 1,17,-1
 403 784 l 2,18,19
 403 767 403 767 426 759 c 128,-1,20
 449 751 449 751 449 726 c 0,21,22
 449 697 449 697 415 697 c 2,23,-1
 260 697 l 2,4,5
840 -14 m 1,24,-1
 840 40 l 2,25,26
 840 87 840 87 866 119.5 c 128,-1,27
 892 152 892 152 945 209 c 1,28,29
 1000 264 1000 264 1061 337 c 0,30,31
 1096 378 1096 378 1116 427 c 0,32,33
 1130 463 1130 463 1130 492 c 0,34,35
 1130 553 1130 553 1061 579 c 1,36,37
 1030 589 1030 589 1004 589 c 0,38,39
 944 589 944 589 901 527 c 1,40,41
 884 504 884 504 856 444 c 1,42,-1
 836 554 l 1,43,-1
 839 575 l 1,44,45
 847 593 l 1,46,47
 899 680 899 680 1001 694 c 0,48,49
 1023 697 1023 697 1043 697 c 0,50,51
 1113 697 1113 697 1176 661 c 0,52,53
 1259 614 1259 614 1260 509 c 1,54,-1
 1260 507 l 2,55,56
 1260 372 1260 372 1139 267 c 1,57,58
 1026 167 1026 167 992 109 c 1,59,-1
 1124 109 l 2,60,61
 1179 109 1179 109 1262 141 c 1,62,-1
 1262 16 l 1,63,64
 1220 -12 1220 -12 1185 -13 c 128,-1,65
 1150 -14 1150 -14 1124 -14 c 2,66,-1
 840 -14 l 1,24,-1
EndSplineSet
Validated: 1
EndChar

StartChar: frac34
Encoding: 190 190 127
Width: 1312
GlyphClass: 2
Flags: W
LayerCount: 2
Fore
SplineSet
1129 1382 m 1,0,-1
 1296 1382 l 1,1,-1
 141 -20 l 1,2,-1
 -27 -20 l 1,3,-1
 1129 1382 l 1,0,-1
411 719 m 1,4,5
 359 683 359 683 270 670 c 0,6,7
 256 668 256 668 244 668 c 0,8,9
 172 668 172 668 112 716 c 1,10,-1
 108 868 l 1,11,12
 137 781 137 781 238 758 c 0,13,14
 260 753 260 753 280 753 c 0,15,16
 312 753 312 753 339 767 c 0,17,18
 382 789 382 789 395 829 c 0,19,20
 403 854 403 854 403 876 c 0,21,22
 403 896 403 896 397 915 c 0,23,24
 384 958 384 958 342 989 c 128,-1,25
 300 1020 300 1020 204 1023 c 1,26,-1
 204 1069 l 1,27,28
 251 1083 251 1083 288.5 1100 c 128,-1,29
 326 1117 326 1117 345 1150 c 0,30,31
 364 1181 364 1181 364 1209 c 0,32,33
 364 1244 364 1244 332 1277 c 0,34,35
 316 1293 316 1293 269 1305 c 0,36,37
 265 1306 265 1306 263 1306 c 0,38,39
 218 1306 218 1306 185 1277.5 c 128,-1,40
 152 1249 152 1249 140 1184 c 1,41,-1
 124 1319 l 1,42,43
 208 1410 208 1410 314 1410 c 1,44,45
 443 1408 443 1408 482 1308 c 0,46,47
 493 1280 493 1280 493 1253 c 0,48,49
 493 1198 493 1198 423 1118 c 0,50,51
 416 1110 416 1110 408 1105 c 0,52,53
 405 1103 405 1103 405 1102 c 1,54,55
 406 1102 406 1102 415 1109 c 1,56,57
 525 1054 525 1054 525 926 c 0,58,59
 525 917 525 917 524 906 c 0,60,61
 514 796 514 796 411 719 c 1,4,5
1183 664 m 1,62,-1
 1183 275 l 1,63,-1
 1275 275 l 1,64,-1
 1275 170 l 1,65,-1
 1183 170 l 1,66,-1
 1183 83 l 2,67,68
 1183 64 1183 64 1229 50 c 128,-1,69
 1275 36 1275 36 1275 10 c 0,70,71
 1275 -20 1275 -20 1240 -20 c 2,72,-1
 987 -20 l 2,73,74
 952 -20 952 -20 952 10 c 0,75,76
 952 36 952 36 999 49.5 c 128,-1,77
 1046 63 1046 63 1046 82 c 2,78,-1
 1046 170 l 1,79,-1
 783 170 l 1,80,-1
 783 248 l 1,81,-1
 1056 664 l 1,82,-1
 1183 664 l 1,62,-1
1048 275 m 1,83,-1
 1048 493 l 1,84,-1
 907 275 l 1,85,-1
 1048 275 l 1,83,-1
EndSplineSet
Validated: 1
EndChar

StartChar: iquest
Encoding: 191 191 128
Width: 800
GlyphClass: 2
Flags: W
LayerCount: 2
Fore
SplineSet
436 395 m 1,0,-1
 439 229 l 2,1,2
 440 164 440 164 457 135 c 1,3,4
 471 106 471 106 526 73 c 1,5,6
 532 67 532 67 542 61.5 c 128,-1,7
 552 56 552 56 565 48 c 0,8,9
 737 -57 737 -57 737 -225 c 0,10,11
 737 -361 737 -361 645 -439 c 1,12,13
 554 -518 554 -518 393 -518 c 0,14,15
 237 -518 237 -518 147 -438 c 0,16,17
 55 -355 55 -355 55 -219 c 0,18,19
 55 -182 55 -182 77 -163 c 1,20,21
 100 -145 100 -145 144 -145 c 0,22,23
 185 -145 185 -145 210 -162 c 0,24,25
 235 -180 235 -180 238 -210 c 0,26,27
 248 -332 248 -332 280 -378 c 1,28,29
 308 -416 308 -416 370 -416 c 0,30,31
 444 -416 444 -416 480 -373 c 0,32,33
 519 -326 519 -326 519 -225 c 0,34,35
 519 -133 519 -133 477 -65 c 1,36,37
 434 1 434 1 310 88 c 1,38,-1
 310 394 l 2,39,40
 310 447 310 447 321 479 c 0,41,42
 336 520 336 520 372 520 c 0,43,44
 410 520 410 520 424 480 c 0,45,46
 434 450 434 450 436 395 c 1,0,-1
357 604 m 2,47,48
 258 604 258 604 258 698 c 2,49,-1
 258 761 l 2,50,51
 258 855 258 855 357 855 c 2,52,-1
 420 855 l 2,53,54
 519 855 519 855 519 761 c 2,55,-1
 519 698 l 2,56,57
 519 604 519 604 420 604 c 2,58,-1
 357 604 l 2,47,48
EndSplineSet
Validated: 1
EndChar

StartChar: Agrave
Encoding: 192 192 129
Width: 1593
GlyphClass: 2
Flags: W
LayerCount: 2
Fore
SplineSet
856 1447 m 1,0,1
 912 1315 912 1315 985.5 1144 c 128,-1,2
 1059 973 1059 973 1137.5 792 c 128,-1,3
 1216 611 1216 611 1289.5 440 c 128,-1,4
 1363 269 1363 269 1414 152 c 0,5,6
 1427 120 1427 120 1465 94 c 1,7,8
 1486 81 1486 81 1508.5 71 c 128,-1,9
 1531 61 1531 61 1547 50 c 0,10,11
 1562 39 1562 39 1567 28 c 0,12,13
 1571 21 1571 21 1571 13 c 0,14,15
 1571 6 1571 6 1566 -3 c 0,16,17
 1558 -20 1558 -20 1532 -20 c 2,18,-1
 1194 -20 l 2,19,20
 1176 -20 1176 -20 1160 -9 c 0,21,22
 1143 3 1143 3 1140 14 c 1,23,24
 1137 19 1137 19 1137 27 c 0,25,26
 1137 44 1137 44 1155 59 c 0,27,28
 1165 68 1165 68 1176 76.5 c 128,-1,29
 1187 85 1187 85 1191 97 c 0,30,31
 1193 103 1193 103 1193 110 c 0,32,33
 1193 124 1193 124 1186 141 c 2,34,-1
 1044 469 l 1,35,-1
 497 469 l 1,36,37
 467 397 467 397 431.5 311.5 c 128,-1,38
 396 226 396 226 360 141 c 0,39,40
 352 123 352 123 351 109 c 0,41,42
 350 103 350 103 350 97 c 0,43,44
 350 89 350 89 352 82 c 0,45,46
 355 72 355 72 361.5 64 c 128,-1,47
 368 56 368 56 373 42 c 1,48,49
 374 32 374 32 374 28 c 0,50,51
 374 21 374 21 371 15 c 0,52,53
 359 -20 359 -20 325 -20 c 2,54,-1
 67 -20 l 2,55,56
 42 -20 42 -20 28 1 c 1,57,58
 28 3 28 3 26 7 c 1,59,60
 26 15 26 15 29 26 c 1,61,62
 39 48 39 48 75 64 c 0,63,64
 89 71 89 71 106 79 c 128,-1,65
 123 87 123 87 139 98 c 0,66,67
 171 121 171 121 185 153 c 2,68,-1
 758 1447 l 1,69,-1
 856 1447 l 1,0,1
925 1565 m 2,70,-1
 625 1751 l 2,71,72
 599 1767 599 1767 575 1791.5 c 128,-1,73
 551 1816 551 1816 551 1851 c 0,74,75
 551 1911 551 1911 605 1934 c 0,76,77
 627 1943 627 1943 650 1943 c 0,78,79
 679 1943 679 1943 706 1927 c 0,80,81
 733 1910 733 1910 798 1842 c 128,-1,82
 863 1774 863 1774 888 1749 c 2,83,-1
 1008 1625 l 2,84,85
 1048 1583 1048 1583 1048 1563 c 0,86,87
 1048 1539 1048 1539 1022 1536 c 1,88,89
 1017 1534 1017 1534 1009 1534 c 0,90,91
 975 1534 975 1534 925 1565 c 2,70,-1
992 590 m 1,92,-1
 766 1117 l 1,93,94
 726 1020 726 1020 662.5 868 c 128,-1,95
 599 716 599 716 547 590 c 1,96,-1
 992 590 l 1,92,-1
EndSplineSet
Validated: 1
EndChar

StartChar: Aacute
Encoding: 193 193 130
Width: 1593
GlyphClass: 2
Flags: W
LayerCount: 2
Fore
SplineSet
856 1447 m 1,0,1
 912 1315 912 1315 985.5 1144 c 128,-1,2
 1059 973 1059 973 1137.5 792 c 128,-1,3
 1216 611 1216 611 1289.5 440 c 128,-1,4
 1363 269 1363 269 1414 152 c 0,5,6
 1427 120 1427 120 1465 94 c 1,7,8
 1486 81 1486 81 1508.5 71 c 128,-1,9
 1531 61 1531 61 1547 50 c 0,10,11
 1562 39 1562 39 1567 28 c 0,12,13
 1571 21 1571 21 1571 13 c 0,14,15
 1571 6 1571 6 1566 -3 c 0,16,17
 1558 -20 1558 -20 1532 -20 c 2,18,-1
 1194 -20 l 2,19,20
 1176 -20 1176 -20 1160 -9 c 0,21,22
 1143 3 1143 3 1140 14 c 1,23,24
 1137 19 1137 19 1137 27 c 0,25,26
 1137 44 1137 44 1155 59 c 0,27,28
 1165 68 1165 68 1176 76.5 c 128,-1,29
 1187 85 1187 85 1191 97 c 0,30,31
 1193 103 1193 103 1193 110 c 0,32,33
 1193 124 1193 124 1186 141 c 2,34,-1
 1044 469 l 1,35,-1
 497 469 l 1,36,37
 467 397 467 397 431.5 311.5 c 128,-1,38
 396 226 396 226 360 141 c 0,39,40
 352 123 352 123 351 109 c 0,41,42
 350 103 350 103 350 97 c 0,43,44
 350 89 350 89 352 82 c 0,45,46
 355 72 355 72 361.5 64 c 128,-1,47
 368 56 368 56 373 42 c 1,48,49
 374 32 374 32 374 28 c 0,50,51
 374 21 374 21 371 15 c 0,52,53
 359 -20 359 -20 325 -20 c 2,54,-1
 67 -20 l 2,55,56
 42 -20 42 -20 28 1 c 1,57,58
 28 3 28 3 26 7 c 1,59,60
 26 15 26 15 29 26 c 1,61,62
 39 48 39 48 75 64 c 0,63,64
 89 71 89 71 106 79 c 128,-1,65
 123 87 123 87 139 98 c 0,66,67
 171 121 171 121 185 153 c 2,68,-1
 758 1447 l 1,69,-1
 856 1447 l 1,0,1
672 1565 m 2,70,71
 622 1534 622 1534 588 1534 c 0,72,73
 580 1534 580 1534 576 1536 c 1,74,75
 548 1539 548 1539 548 1563 c 0,76,77
 548 1583 548 1583 589 1625 c 2,78,-1
 709 1749 l 2,79,80
 733 1774 733 1774 798.5 1842 c 128,-1,81
 864 1910 864 1910 891 1927 c 0,82,83
 918 1943 918 1943 947 1943 c 0,84,85
 970 1943 970 1943 993 1934 c 0,86,87
 1046 1911 1046 1911 1046 1851 c 0,88,89
 1046 1816 1046 1816 1022 1791.5 c 128,-1,90
 998 1767 998 1767 972 1751 c 2,91,-1
 672 1565 l 2,70,71
992 590 m 1,92,-1
 766 1117 l 1,93,94
 726 1020 726 1020 662.5 868 c 128,-1,95
 599 716 599 716 547 590 c 1,96,-1
 992 590 l 1,92,-1
EndSplineSet
Validated: 1
EndChar

StartChar: Acirc
Encoding: 194 194 131
Width: 1593
GlyphClass: 2
Flags: W
LayerCount: 2
Fore
SplineSet
856 1447 m 1,0,1
 912 1315 912 1315 985.5 1144 c 128,-1,2
 1059 973 1059 973 1137.5 792 c 128,-1,3
 1216 611 1216 611 1289.5 440 c 128,-1,4
 1363 269 1363 269 1414 152 c 0,5,6
 1427 120 1427 120 1465 94 c 1,7,8
 1486 81 1486 81 1508.5 71 c 128,-1,9
 1531 61 1531 61 1547 50 c 0,10,11
 1562 39 1562 39 1567 28 c 0,12,13
 1571 21 1571 21 1571 13 c 0,14,15
 1571 6 1571 6 1566 -3 c 0,16,17
 1558 -20 1558 -20 1532 -20 c 2,18,-1
 1194 -20 l 2,19,20
 1176 -20 1176 -20 1160 -9 c 0,21,22
 1143 3 1143 3 1140 14 c 1,23,24
 1137 19 1137 19 1137 27 c 0,25,26
 1137 44 1137 44 1155 59 c 0,27,28
 1165 68 1165 68 1176 76.5 c 128,-1,29
 1187 85 1187 85 1191 97 c 0,30,31
 1193 103 1193 103 1193 110 c 0,32,33
 1193 124 1193 124 1186 141 c 2,34,-1
 1044 469 l 1,35,-1
 497 469 l 1,36,37
 467 397 467 397 431.5 311.5 c 128,-1,38
 396 226 396 226 360 141 c 0,39,40
 352 123 352 123 351 109 c 0,41,42
 350 103 350 103 350 97 c 0,43,44
 350 89 350 89 352 82 c 0,45,46
 355 72 355 72 361.5 64 c 128,-1,47
 368 56 368 56 373 42 c 1,48,49
 374 32 374 32 374 28 c 0,50,51
 374 21 374 21 371 15 c 0,52,53
 359 -20 359 -20 325 -20 c 2,54,-1
 67 -20 l 2,55,56
 42 -20 42 -20 28 1 c 1,57,58
 28 3 28 3 26 7 c 1,59,60
 26 15 26 15 29 26 c 1,61,62
 39 48 39 48 75 64 c 0,63,64
 89 71 89 71 106 79 c 128,-1,65
 123 87 123 87 139 98 c 0,66,67
 171 121 171 121 185 153 c 2,68,-1
 758 1447 l 1,69,-1
 856 1447 l 1,0,1
485 1536 m 1,70,-1
 740 1923 l 1,71,-1
 886 1923 l 1,72,-1
 1142 1536 l 1,73,-1
 1033 1536 l 1,74,-1
 814 1734 l 1,75,-1
 594 1536 l 1,76,-1
 485 1536 l 1,70,-1
992 590 m 1,77,-1
 766 1117 l 1,78,79
 726 1020 726 1020 662.5 868 c 128,-1,80
 599 716 599 716 547 590 c 1,81,-1
 992 590 l 1,77,-1
EndSplineSet
Validated: 1
EndChar

StartChar: Atilde
Encoding: 195 195 132
Width: 1593
GlyphClass: 2
Flags: W
LayerCount: 2
Fore
SplineSet
856 1447 m 1,0,1
 912 1315 912 1315 985.5 1144 c 128,-1,2
 1059 973 1059 973 1137.5 792 c 128,-1,3
 1216 611 1216 611 1289.5 440 c 128,-1,4
 1363 269 1363 269 1414 152 c 0,5,6
 1427 120 1427 120 1465 94 c 1,7,8
 1486 81 1486 81 1508.5 71 c 128,-1,9
 1531 61 1531 61 1547 50 c 0,10,11
 1562 39 1562 39 1567 28 c 0,12,13
 1571 21 1571 21 1571 13 c 0,14,15
 1571 6 1571 6 1566 -3 c 0,16,17
 1558 -20 1558 -20 1532 -20 c 2,18,-1
 1194 -20 l 2,19,20
 1176 -20 1176 -20 1160 -9 c 0,21,22
 1143 3 1143 3 1140 14 c 1,23,24
 1137 19 1137 19 1137 27 c 0,25,26
 1137 44 1137 44 1155 59 c 0,27,28
 1165 68 1165 68 1176 76.5 c 128,-1,29
 1187 85 1187 85 1191 97 c 0,30,31
 1193 103 1193 103 1193 110 c 0,32,33
 1193 124 1193 124 1186 141 c 2,34,-1
 1044 469 l 1,35,-1
 497 469 l 1,36,37
 467 397 467 397 431.5 311.5 c 128,-1,38
 396 226 396 226 360 141 c 0,39,40
 352 123 352 123 351 109 c 0,41,42
 350 103 350 103 350 97 c 0,43,44
 350 89 350 89 352 82 c 0,45,46
 355 72 355 72 361.5 64 c 128,-1,47
 368 56 368 56 373 42 c 1,48,49
 374 32 374 32 374 28 c 0,50,51
 374 21 374 21 371 15 c 0,52,53
 359 -20 359 -20 325 -20 c 2,54,-1
 67 -20 l 2,55,56
 42 -20 42 -20 28 1 c 1,57,58
 28 3 28 3 26 7 c 1,59,60
 26 15 26 15 29 26 c 1,61,62
 39 48 39 48 75 64 c 0,63,64
 89 71 89 71 106 79 c 128,-1,65
 123 87 123 87 139 98 c 0,66,67
 171 121 171 121 185 153 c 2,68,-1
 758 1447 l 1,69,-1
 856 1447 l 1,0,1
1137 1806 m 1,70,71
 1093 1688 1093 1688 1053 1635 c 0,72,73
 1004 1571 1004 1571 944 1571 c 0,74,75
 855 1571 855 1571 754 1662 c 1,76,77
 708 1701 708 1701 673 1701 c 0,78,79
 647 1701 647 1701 621 1679 c 0,80,81
 613 1671 613 1671 602 1661 c 128,-1,82
 591 1651 591 1651 578 1635 c 1,83,84
 554 1602 554 1602 537 1565 c 0,85,86
 526 1542 526 1542 501 1542 c 0,87,88
 485 1542 485 1542 471 1554 c 0,89,90
 455 1567 455 1567 455 1587 c 0,91,92
 455 1600 455 1600 462 1617 c 0,93,94
 495 1689 495 1689 532 1771.5 c 128,-1,95
 569 1854 569 1854 659 1854 c 0,96,97
 758 1854 758 1854 855 1760 c 0,98,99
 896 1720 896 1720 932 1720 c 0,100,101
 962 1720 962 1720 995 1749 c 1,102,103
 1030 1776 1030 1776 1057 1848 c 1,104,105
 1068 1874 1068 1874 1095 1874 c 0,106,107
 1102 1874 1102 1874 1108 1872 c 0,108,109
 1135 1865 1135 1865 1140 1833 c 1,110,-1
 1140 1827 l 2,111,112
 1140 1817 1140 1817 1137 1806 c 1,70,71
992 590 m 1,113,-1
 766 1117 l 1,114,115
 726 1020 726 1020 662.5 868 c 128,-1,116
 599 716 599 716 547 590 c 1,117,-1
 992 590 l 1,113,-1
EndSplineSet
Validated: 1
EndChar

StartChar: Auml
Encoding: 196 196 133
Width: 1593
GlyphClass: 2
Flags: W
LayerCount: 2
Fore
SplineSet
856 1447 m 1,0,1
 912 1315 912 1315 985.5 1144 c 128,-1,2
 1059 973 1059 973 1137.5 792 c 128,-1,3
 1216 611 1216 611 1289.5 440 c 128,-1,4
 1363 269 1363 269 1414 152 c 0,5,6
 1427 120 1427 120 1465 94 c 1,7,8
 1486 81 1486 81 1508.5 71 c 128,-1,9
 1531 61 1531 61 1547 50 c 0,10,11
 1562 39 1562 39 1567 28 c 0,12,13
 1571 21 1571 21 1571 13 c 0,14,15
 1571 6 1571 6 1566 -3 c 0,16,17
 1558 -20 1558 -20 1532 -20 c 2,18,-1
 1194 -20 l 2,19,20
 1176 -20 1176 -20 1160 -9 c 0,21,22
 1143 3 1143 3 1140 14 c 1,23,24
 1137 19 1137 19 1137 27 c 0,25,26
 1137 44 1137 44 1155 59 c 0,27,28
 1165 68 1165 68 1176 76.5 c 128,-1,29
 1187 85 1187 85 1191 97 c 0,30,31
 1193 103 1193 103 1193 110 c 0,32,33
 1193 124 1193 124 1186 141 c 2,34,-1
 1044 469 l 1,35,-1
 497 469 l 1,36,37
 467 397 467 397 431.5 311.5 c 128,-1,38
 396 226 396 226 360 141 c 0,39,40
 352 123 352 123 351 109 c 0,41,42
 350 103 350 103 350 97 c 0,43,44
 350 89 350 89 352 82 c 0,45,46
 355 72 355 72 361.5 64 c 128,-1,47
 368 56 368 56 373 42 c 1,48,49
 374 32 374 32 374 28 c 0,50,51
 374 21 374 21 371 15 c 0,52,53
 359 -20 359 -20 325 -20 c 2,54,-1
 67 -20 l 2,55,56
 42 -20 42 -20 28 1 c 1,57,58
 28 3 28 3 26 7 c 1,59,60
 26 15 26 15 29 26 c 1,61,62
 39 48 39 48 75 64 c 0,63,64
 89 71 89 71 106 79 c 128,-1,65
 123 87 123 87 139 98 c 0,66,67
 171 121 171 121 185 153 c 2,68,-1
 758 1447 l 1,69,-1
 856 1447 l 1,0,1
866 1708 m 0,70,71
 866 1754 866 1754 901.5 1791 c 128,-1,72
 937 1828 937 1828 989 1828 c 0,73,74
 1073 1828 1073 1828 1106 1752 c 1,75,76
 1116 1726 1116 1726 1116 1702 c 0,77,78
 1116 1659 1116 1659 1079 1622 c 0,79,80
 1044 1587 1044 1587 1002 1587 c 1,81,82
 1001 1586 1001 1586 988 1586 c 0,83,84
 935 1586 935 1586 899 1624 c 1,85,86
 866 1657 866 1657 866 1708 c 0,70,71
512 1708 m 0,87,88
 512 1786 512 1786 587 1818 c 0,89,90
 613 1829 613 1829 638 1829 c 0,91,92
 687 1829 687 1829 724 1792 c 0,93,94
 762 1754 762 1754 762 1710 c 0,95,96
 762 1687 762 1687 753 1663 c 1,97,98
 721 1587 721 1587 636 1587 c 0,99,100
 512 1587 512 1587 512 1708 c 0,87,88
992 590 m 1,101,-1
 766 1117 l 1,102,103
 726 1020 726 1020 662.5 868 c 128,-1,104
 599 716 599 716 547 590 c 1,105,-1
 992 590 l 1,101,-1
EndSplineSet
Validated: 1
EndChar

StartChar: Aring
Encoding: 197 197 134
Width: 1593
GlyphClass: 2
Flags: W
LayerCount: 2
Fore
SplineSet
856 1447 m 1,0,1
 912 1315 912 1315 985.5 1144 c 128,-1,2
 1059 973 1059 973 1137.5 792 c 128,-1,3
 1216 611 1216 611 1289.5 440 c 128,-1,4
 1363 269 1363 269 1414 152 c 0,5,6
 1427 120 1427 120 1465 94 c 1,7,8
 1486 81 1486 81 1508.5 71 c 128,-1,9
 1531 61 1531 61 1547 50 c 0,10,11
 1562 39 1562 39 1567 28 c 0,12,13
 1571 21 1571 21 1571 13 c 0,14,15
 1571 6 1571 6 1566 -3 c 0,16,17
 1558 -20 1558 -20 1532 -20 c 2,18,-1
 1194 -20 l 2,19,20
 1176 -20 1176 -20 1160 -9 c 0,21,22
 1143 3 1143 3 1140 14 c 1,23,24
 1137 19 1137 19 1137 27 c 0,25,26
 1137 44 1137 44 1155 59 c 0,27,28
 1165 68 1165 68 1176 76.5 c 128,-1,29
 1187 85 1187 85 1191 97 c 0,30,31
 1193 103 1193 103 1193 110 c 0,32,33
 1193 124 1193 124 1186 141 c 2,34,-1
 1044 469 l 1,35,-1
 497 469 l 1,36,37
 467 397 467 397 431.5 311.5 c 128,-1,38
 396 226 396 226 360 141 c 0,39,40
 352 123 352 123 351 109 c 0,41,42
 350 103 350 103 350 97 c 0,43,44
 350 89 350 89 352 82 c 0,45,46
 355 72 355 72 361.5 64 c 128,-1,47
 368 56 368 56 373 42 c 1,48,49
 374 32 374 32 374 28 c 0,50,51
 374 21 374 21 371 15 c 0,52,53
 359 -20 359 -20 325 -20 c 2,54,-1
 67 -20 l 2,55,56
 42 -20 42 -20 28 1 c 1,57,58
 28 3 28 3 26 7 c 1,59,60
 26 15 26 15 29 26 c 1,61,62
 39 48 39 48 75 64 c 0,63,64
 89 71 89 71 106 79 c 128,-1,65
 123 87 123 87 139 98 c 0,66,67
 171 121 171 121 185 153 c 2,68,-1
 758 1447 l 1,69,-1
 856 1447 l 1,0,1
799 1940 m 0,70,71
 891 1940 891 1940 955 1874.5 c 128,-1,72
 1019 1809 1019 1809 1019 1720 c 0,73,74
 1019 1630 1019 1630 955 1565.5 c 128,-1,75
 891 1501 891 1501 799 1501 c 0,76,77
 706 1501 706 1501 642 1565.5 c 128,-1,78
 578 1630 578 1630 578 1720 c 0,79,80
 578 1809 578 1809 642 1874.5 c 128,-1,81
 706 1940 706 1940 799 1940 c 0,70,71
791 1872 m 0,82,83
 755 1872 755 1872 730 1833 c 1,84,85
 705 1792 705 1792 705 1736 c 2,86,-1
 705 1720 l 1,87,88
 708 1655 708 1655 740 1612 c 128,-1,89
 772 1569 772 1569 808 1569 c 0,90,91
 842 1569 842 1569 868 1608 c 1,92,93
 894 1650 894 1650 894 1708 c 2,94,-1
 894 1720 l 1,95,96
 890 1785 890 1785 858 1828.5 c 128,-1,97
 826 1872 826 1872 791 1872 c 0,82,83
992 590 m 1,98,-1
 766 1117 l 1,99,100
 726 1020 726 1020 662.5 868 c 128,-1,101
 599 716 599 716 547 590 c 1,102,-1
 992 590 l 1,98,-1
EndSplineSet
Validated: 1
EndChar

StartChar: AElig
Encoding: 198 198 135
Width: 1933
GlyphClass: 2
Flags: W
LayerCount: 2
Fore
SplineSet
1114 114 m 1,0,-1
 1517 114 l 2,1,2
 1596 114 1596 114 1656.5 181 c 128,-1,3
 1717 248 1717 248 1750 288 c 0,4,5
 1776 319 1776 319 1799 319 c 0,6,7
 1845 319 1845 319 1845 278 c 0,8,9
 1845 263 1845 263 1842 253 c 2,10,-1
 1765 -20 l 1,11,-1
 826 -20 l 2,12,13
 783 -20 783 -20 783 21 c 0,14,15
 783 59 783 59 833 76.5 c 128,-1,16
 883 94 883 94 883 146 c 2,17,-1
 883 469 l 1,18,-1
 419 469 l 1,19,20
 378 395 378 395 329.5 309.5 c 128,-1,21
 281 224 281 224 233 139 c 0,22,23
 225 125 225 125 219 106 c 0,24,25
 216 97 216 97 216 88 c 0,26,27
 216 84 216 84 217 81 c 0,28,29
 218 70 218 70 223 62 c 128,-1,30
 228 54 228 54 230 43 c 1,31,32
 232 38 232 38 232 33 c 0,33,34
 232 29 232 29 230 22 c 1,35,-1
 227 18 l 2,36,37
 227 17 227 17 228 18 c 1,38,-1
 228 17 l 1,39,40
 209 -20 209 -20 178 -20 c 2,41,-1
 -79 -20 l 2,42,43
 -107 -20 -107 -20 -118 2 c 1,44,-1
 -118 11 l 2,45,46
 -118 19 -118 19 -113 30 c 1,47,48
 -100 46 -100 46 -65 64 c 0,49,50
 -48 72 -48 72 -30.5 80 c 128,-1,51
 -13 88 -13 88 5 99 c 0,52,53
 40 122 40 122 60 154 c 2,54,-1
 749 1323 l 1,55,56
 737 1326 737 1326 696.5 1338.5 c 128,-1,57
 656 1351 656 1351 656 1383 c 0,58,59
 656 1424 656 1424 702 1424 c 2,60,-1
 1782 1424 l 1,61,-1
 1782 1147 l 2,62,63
 1782 1106 1782 1106 1736 1106 c 0,64,65
 1711 1106 1711 1106 1677 1156 c 1,66,67
 1628 1224 1628 1224 1596 1257.5 c 128,-1,68
 1564 1291 1564 1291 1517 1291 c 2,69,-1
 1114 1291 l 1,70,-1
 1114 788 l 1,71,-1
 1318 788 l 2,72,73
 1364 788 1364 788 1384 839.5 c 128,-1,74
 1404 891 1404 891 1448 891 c 0,75,76
 1493 891 1493 891 1493 850 c 2,77,-1
 1493 596 l 2,78,79
 1493 555 1493 555 1448 555 c 0,80,81
 1405 555 1405 555 1382 606 c 128,-1,82
 1359 657 1359 657 1312 657 c 2,83,-1
 1114 657 l 1,84,-1
 1114 114 l 1,0,-1
886 590 m 1,85,-1
 886 1283 l 1,86,87
 817 1165 817 1165 687 939.5 c 128,-1,88
 557 714 557 714 487 590 c 1,89,-1
 886 590 l 1,85,-1
EndSplineSet
Validated: 1
EndChar

StartChar: Ccedil
Encoding: 199 199 136
Width: 1400
GlyphClass: 2
Flags: W
LayerCount: 2
Fore
SplineSet
538 -42 m 1,0,-1
 642 -42 l 1,1,2
 628 -86 628 -86 628 -103 c 0,3,4
 628 -128 628 -128 644 -143 c 0,5,6
 679 -176 679 -176 718 -209 c 0,7,8
 782 -263 782 -263 782 -346 c 2,9,-1
 782 -355 l 1,10,11
 777 -455 777 -455 635 -466 c 1,12,-1
 619 -466 l 2,13,14
 556 -466 556 -466 459 -433 c 1,15,-1
 429 -299 l 1,16,17
 524 -365 524 -365 559 -365 c 0,18,19
 584 -365 584 -365 608 -349 c 0,20,21
 629 -335 629 -335 629 -315 c 0,22,23
 629 -285 629 -285 584 -241 c 0,24,25
 550 -209 550 -209 523 -165 c 0,26,27
 509 -144 509 -144 509 -118 c 0,28,29
 509 -87 509 -87 538 -42 c 1,0,-1
848 -57 m 0,30,31
 531 -57 531 -57 286.5 145 c 128,-1,32
 42 347 42 347 42 701 c 0,33,34
 42 1046 42 1046 279.5 1255.5 c 128,-1,35
 517 1465 517 1465 848 1465 c 0,36,37
 966 1465 966 1465 1099.5 1438.5 c 128,-1,38
 1233 1412 1233 1412 1365 1328 c 1,39,-1
 1340 1106 l 1,40,41
 1332 1071 1332 1071 1295 1071 c 2,42,-1
 1291 1071 l 1,43,44
 1263 1073 1263 1073 1243 1112 c 1,45,46
 1181 1244 1181 1244 1091 1287 c 128,-1,47
 1001 1330 1001 1330 848 1330 c 0,48,49
 636 1330 636 1330 469 1181.5 c 128,-1,50
 302 1033 302 1033 302 701 c 0,51,52
 302 489 302 489 459 292.5 c 128,-1,53
 616 96 616 96 849 85 c 0,54,55
 873 84 873 84 894 84 c 0,56,57
 1015 84 1015 84 1093 120 c 1,58,59
 1181 162 1181 162 1243 295 c 1,60,61
 1262 331 1262 331 1290 336 c 1,62,-1
 1297 336 l 2,63,64
 1334 336 1334 336 1340 300 c 1,65,-1
 1343 272 l 1,66,-1
 1252 17 l 1,67,68
 1143 -28 1143 -28 1041 -42.5 c 128,-1,69
 939 -57 939 -57 848 -57 c 0,30,31
EndSplineSet
Validated: 1
EndChar

StartChar: Egrave
Encoding: 200 200 137
Width: 1251
GlyphClass: 2
Flags: W
LayerCount: 2
Fore
SplineSet
461 114 m 1,0,-1
 863 114 l 2,1,2
 943 114 943 114 1003.5 181 c 128,-1,3
 1064 248 1064 248 1097 288 c 0,4,5
 1123 319 1123 319 1146 319 c 0,6,7
 1192 319 1192 319 1192 278 c 0,8,9
 1192 263 1192 263 1189 253 c 2,10,-1
 1112 -20 l 1,11,-1
 173 -20 l 2,12,13
 130 -20 130 -20 130 21 c 0,14,15
 130 59 130 59 180 76.5 c 128,-1,16
 230 94 230 94 230 146 c 2,17,-1
 230 1257 l 2,18,19
 230 1309 230 1309 180 1326.5 c 128,-1,20
 130 1344 130 1344 130 1383 c 0,21,22
 130 1424 130 1424 176 1424 c 2,23,-1
 1129 1424 l 1,24,-1
 1129 1147 l 2,25,26
 1129 1106 1129 1106 1083 1106 c 0,27,28
 1058 1106 1058 1106 1024 1156 c 1,29,30
 975 1224 975 1224 943 1257.5 c 128,-1,31
 911 1291 911 1291 863 1291 c 2,32,-1
 461 1291 l 1,33,-1
 461 788 l 1,34,-1
 665 788 l 2,35,36
 711 788 711 788 731 839.5 c 128,-1,37
 751 891 751 891 795 891 c 0,38,39
 840 891 840 891 840 850 c 2,40,-1
 840 596 l 2,41,42
 840 555 840 555 795 555 c 0,43,44
 752 555 752 555 729 606 c 128,-1,45
 706 657 706 657 659 657 c 2,46,-1
 461 657 l 1,47,-1
 461 114 l 1,0,-1
788 1565 m 2,48,-1
 488 1751 l 2,49,50
 462 1767 462 1767 437.5 1791.5 c 128,-1,51
 413 1816 413 1816 413 1851 c 0,52,53
 413 1911 413 1911 467 1934 c 0,54,55
 489 1943 489 1943 512 1943 c 0,56,57
 541 1943 541 1943 568 1927 c 0,58,59
 595 1910 595 1910 660.5 1842 c 128,-1,60
 726 1774 726 1774 751 1749 c 2,61,-1
 870 1625 l 2,62,63
 911 1583 911 1583 911 1562 c 0,64,65
 911 1539 911 1539 883 1536 c 1,66,67
 879 1534 879 1534 871 1534 c 0,68,69
 838 1534 838 1534 788 1565 c 2,48,-1
EndSplineSet
Validated: 1
EndChar

StartChar: Eacute
Encoding: 201 201 138
Width: 1251
GlyphClass: 2
Flags: W
LayerCount: 2
Fore
SplineSet
461 114 m 1,0,-1
 863 114 l 2,1,2
 943 114 943 114 1003.5 181 c 128,-1,3
 1064 248 1064 248 1097 288 c 0,4,5
 1123 319 1123 319 1146 319 c 0,6,7
 1192 319 1192 319 1192 278 c 0,8,9
 1192 263 1192 263 1189 253 c 2,10,-1
 1112 -20 l 1,11,-1
 173 -20 l 2,12,13
 130 -20 130 -20 130 21 c 0,14,15
 130 59 130 59 180 76.5 c 128,-1,16
 230 94 230 94 230 146 c 2,17,-1
 230 1257 l 2,18,19
 230 1309 230 1309 180 1326.5 c 128,-1,20
 130 1344 130 1344 130 1383 c 0,21,22
 130 1424 130 1424 176 1424 c 2,23,-1
 1129 1424 l 1,24,-1
 1129 1147 l 2,25,26
 1129 1106 1129 1106 1083 1106 c 0,27,28
 1058 1106 1058 1106 1024 1156 c 1,29,30
 975 1224 975 1224 943 1257.5 c 128,-1,31
 911 1291 911 1291 863 1291 c 2,32,-1
 461 1291 l 1,33,-1
 461 788 l 1,34,-1
 665 788 l 2,35,36
 711 788 711 788 731 839.5 c 128,-1,37
 751 891 751 891 795 891 c 0,38,39
 840 891 840 891 840 850 c 2,40,-1
 840 596 l 2,41,42
 840 555 840 555 795 555 c 0,43,44
 752 555 752 555 729 606 c 128,-1,45
 706 657 706 657 659 657 c 2,46,-1
 461 657 l 1,47,-1
 461 114 l 1,0,-1
534 1565 m 2,48,49
 484 1534 484 1534 450 1534 c 0,50,51
 440 1534 440 1534 437 1536 c 1,52,53
 411 1539 411 1539 411 1562 c 0,54,55
 411 1583 411 1583 452 1625 c 2,56,-1
 573 1751 l 2,57,58
 595 1774 595 1774 660.5 1842 c 128,-1,59
 726 1910 726 1910 753 1927 c 0,60,61
 780 1943 780 1943 810 1943 c 0,62,63
 832 1943 832 1943 855 1934 c 0,64,65
 909 1911 909 1911 909 1851 c 0,66,67
 909 1816 909 1816 884.5 1791.5 c 128,-1,68
 860 1767 860 1767 834 1751 c 2,69,-1
 534 1565 l 2,48,49
EndSplineSet
Validated: 1
EndChar

StartChar: Ecirc
Encoding: 202 202 139
Width: 1251
GlyphClass: 2
Flags: W
LayerCount: 2
Fore
SplineSet
461 114 m 1,0,-1
 863 114 l 2,1,2
 943 114 943 114 1003.5 181 c 128,-1,3
 1064 248 1064 248 1097 288 c 0,4,5
 1123 319 1123 319 1146 319 c 0,6,7
 1192 319 1192 319 1192 278 c 0,8,9
 1192 263 1192 263 1189 253 c 2,10,-1
 1112 -20 l 1,11,-1
 173 -20 l 2,12,13
 130 -20 130 -20 130 21 c 0,14,15
 130 59 130 59 180 76.5 c 128,-1,16
 230 94 230 94 230 146 c 2,17,-1
 230 1257 l 2,18,19
 230 1309 230 1309 180 1326.5 c 128,-1,20
 130 1344 130 1344 130 1383 c 0,21,22
 130 1424 130 1424 176 1424 c 2,23,-1
 1129 1424 l 1,24,-1
 1129 1147 l 2,25,26
 1129 1106 1129 1106 1083 1106 c 0,27,28
 1058 1106 1058 1106 1024 1156 c 1,29,30
 975 1224 975 1224 943 1257.5 c 128,-1,31
 911 1291 911 1291 863 1291 c 2,32,-1
 461 1291 l 1,33,-1
 461 788 l 1,34,-1
 665 788 l 2,35,36
 711 788 711 788 731 839.5 c 128,-1,37
 751 891 751 891 795 891 c 0,38,39
 840 891 840 891 840 850 c 2,40,-1
 840 596 l 2,41,42
 840 555 840 555 795 555 c 0,43,44
 752 555 752 555 729 606 c 128,-1,45
 706 657 706 657 659 657 c 2,46,-1
 461 657 l 1,47,-1
 461 114 l 1,0,-1
332 1536 m 1,48,-1
 588 1923 l 1,49,-1
 734 1923 l 1,50,-1
 989 1536 l 1,51,-1
 880 1536 l 1,52,-1
 661 1734 l 1,53,-1
 442 1536 l 1,54,-1
 332 1536 l 1,48,-1
EndSplineSet
Validated: 1
EndChar

StartChar: Euml
Encoding: 203 203 140
Width: 1251
GlyphClass: 2
Flags: W
LayerCount: 2
Fore
SplineSet
461 114 m 1,0,-1
 863 114 l 2,1,2
 943 114 943 114 1003.5 181 c 128,-1,3
 1064 248 1064 248 1097 288 c 0,4,5
 1123 319 1123 319 1146 319 c 0,6,7
 1192 319 1192 319 1192 278 c 0,8,9
 1192 263 1192 263 1189 253 c 2,10,-1
 1112 -20 l 1,11,-1
 173 -20 l 2,12,13
 130 -20 130 -20 130 21 c 0,14,15
 130 59 130 59 180 76.5 c 128,-1,16
 230 94 230 94 230 146 c 2,17,-1
 230 1257 l 2,18,19
 230 1309 230 1309 180 1326.5 c 128,-1,20
 130 1344 130 1344 130 1383 c 0,21,22
 130 1424 130 1424 176 1424 c 2,23,-1
 1129 1424 l 1,24,-1
 1129 1147 l 2,25,26
 1129 1106 1129 1106 1083 1106 c 0,27,28
 1058 1106 1058 1106 1024 1156 c 1,29,30
 975 1224 975 1224 943 1257.5 c 128,-1,31
 911 1291 911 1291 863 1291 c 2,32,-1
 461 1291 l 1,33,-1
 461 788 l 1,34,-1
 665 788 l 2,35,36
 711 788 711 788 731 839.5 c 128,-1,37
 751 891 751 891 795 891 c 0,38,39
 840 891 840 891 840 850 c 2,40,-1
 840 596 l 2,41,42
 840 555 840 555 795 555 c 0,43,44
 752 555 752 555 729 606 c 128,-1,45
 706 657 706 657 659 657 c 2,46,-1
 461 657 l 1,47,-1
 461 114 l 1,0,-1
713 1708 m 0,48,49
 713 1754 713 1754 748.5 1791 c 128,-1,50
 784 1828 784 1828 837 1828 c 0,51,52
 921 1828 921 1828 953 1752 c 0,53,54
 963 1726 963 1726 963 1702 c 0,55,56
 963 1659 963 1659 928 1624 c 0,57,58
 885 1581 885 1581 837 1581 c 256,59,60
 789 1581 789 1581 748 1622 c 0,61,62
 713 1657 713 1657 713 1708 c 0,48,49
359 1708 m 0,63,64
 359 1786 359 1786 434 1818 c 0,65,66
 460 1829 460 1829 486 1829 c 0,67,68
 535 1829 535 1829 572 1792 c 0,69,70
 610 1754 610 1754 610 1710 c 0,71,72
 610 1687 610 1687 600 1663 c 0,73,74
 569 1587 569 1587 483 1587 c 0,75,76
 359 1587 359 1587 359 1708 c 0,63,64
EndSplineSet
Validated: 1
EndChar

StartChar: Igrave
Encoding: 204 204 141
Width: 690
GlyphClass: 2
Flags: W
LayerCount: 2
Fore
SplineSet
460 1257 m 2,0,-1
 460 147 l 2,1,2
 460 94 460 94 510 76.5 c 128,-1,3
 560 59 560 59 560 21 c 0,4,5
 560 -20 560 -20 514 -20 c 2,6,-1
 175 -20 l 2,7,8
 130 -20 130 -20 130 21 c 0,9,10
 130 59 130 59 180 76.5 c 128,-1,11
 230 94 230 94 230 146 c 2,12,-1
 230 1257 l 2,13,14
 230 1309 230 1309 180 1326.5 c 128,-1,15
 130 1344 130 1344 130 1383 c 0,16,17
 130 1424 130 1424 176 1424 c 2,18,-1
 514 1424 l 2,19,20
 560 1424 560 1424 560 1383 c 0,21,22
 560 1344 560 1344 510 1326.5 c 128,-1,23
 460 1309 460 1309 460 1257 c 2,0,-1
472 1565 m 2,24,-1
 172 1751 l 2,25,26
 146 1767 146 1767 121.5 1791.5 c 128,-1,27
 97 1816 97 1816 97 1851 c 0,28,29
 97 1911 97 1911 151 1934 c 0,30,31
 173 1943 173 1943 196 1943 c 0,32,33
 225 1943 225 1943 252 1927 c 0,34,35
 279 1910 279 1910 344.5 1842 c 128,-1,36
 410 1774 410 1774 435 1749 c 2,37,-1
 554 1625 l 2,38,39
 595 1583 595 1583 595 1562 c 0,40,41
 595 1539 595 1539 567 1536 c 1,42,43
 563 1534 563 1534 555 1534 c 0,44,45
 522 1534 522 1534 472 1565 c 2,24,-1
EndSplineSet
Validated: 1
EndChar

StartChar: Iacute
Encoding: 205 205 142
Width: 690
GlyphClass: 2
Flags: W
LayerCount: 2
Fore
SplineSet
460 1257 m 2,0,-1
 460 147 l 2,1,2
 460 94 460 94 510 76.5 c 128,-1,3
 560 59 560 59 560 21 c 0,4,5
 560 -20 560 -20 514 -20 c 2,6,-1
 175 -20 l 2,7,8
 130 -20 130 -20 130 21 c 0,9,10
 130 59 130 59 180 76.5 c 128,-1,11
 230 94 230 94 230 146 c 2,12,-1
 230 1257 l 2,13,14
 230 1309 230 1309 180 1326.5 c 128,-1,15
 130 1344 130 1344 130 1383 c 0,16,17
 130 1424 130 1424 176 1424 c 2,18,-1
 514 1424 l 2,19,20
 560 1424 560 1424 560 1383 c 0,21,22
 560 1344 560 1344 510 1326.5 c 128,-1,23
 460 1309 460 1309 460 1257 c 2,0,-1
218 1565 m 2,24,25
 168 1534 168 1534 134 1534 c 0,26,27
 124 1534 124 1534 121 1536 c 1,28,29
 95 1539 95 1539 95 1563 c 0,30,31
 95 1583 95 1583 135 1625 c 2,32,-1
 255 1749 l 2,33,34
 279 1774 279 1774 344.5 1842 c 128,-1,35
 410 1910 410 1910 437 1927 c 0,36,37
 464 1943 464 1943 494 1943 c 0,38,39
 516 1943 516 1943 539 1934 c 0,40,41
 593 1911 593 1911 593 1851 c 0,42,43
 593 1816 593 1816 568.5 1791.5 c 128,-1,44
 544 1767 544 1767 518 1751 c 2,45,-1
 218 1565 l 2,24,25
EndSplineSet
Validated: 1
EndChar

StartChar: Icirc
Encoding: 206 206 143
Width: 690
GlyphClass: 2
Flags: W
LayerCount: 2
Fore
SplineSet
460 1257 m 2,0,-1
 460 147 l 2,1,2
 460 94 460 94 510 76.5 c 128,-1,3
 560 59 560 59 560 21 c 0,4,5
 560 -20 560 -20 514 -20 c 2,6,-1
 175 -20 l 2,7,8
 130 -20 130 -20 130 21 c 0,9,10
 130 59 130 59 180 76.5 c 128,-1,11
 230 94 230 94 230 146 c 2,12,-1
 230 1257 l 2,13,14
 230 1309 230 1309 180 1326.5 c 128,-1,15
 130 1344 130 1344 130 1383 c 0,16,17
 130 1424 130 1424 176 1424 c 2,18,-1
 514 1424 l 2,19,20
 560 1424 560 1424 560 1383 c 0,21,22
 560 1344 560 1344 510 1326.5 c 128,-1,23
 460 1309 460 1309 460 1257 c 2,0,-1
17 1536 m 1,24,-1
 272 1923 l 1,25,-1
 418 1923 l 1,26,-1
 673 1536 l 1,27,-1
 564 1536 l 1,28,-1
 345 1734 l 1,29,-1
 126 1536 l 1,30,-1
 17 1536 l 1,24,-1
EndSplineSet
Validated: 1
EndChar

StartChar: Iuml
Encoding: 207 207 144
Width: 690
GlyphClass: 2
Flags: W
LayerCount: 2
Fore
SplineSet
460 1257 m 2,0,-1
 460 147 l 2,1,2
 460 94 460 94 510 76.5 c 128,-1,3
 560 59 560 59 560 21 c 0,4,5
 560 -20 560 -20 514 -20 c 2,6,-1
 175 -20 l 2,7,8
 130 -20 130 -20 130 21 c 0,9,10
 130 59 130 59 180 76.5 c 128,-1,11
 230 94 230 94 230 146 c 2,12,-1
 230 1257 l 2,13,14
 230 1309 230 1309 180 1326.5 c 128,-1,15
 130 1344 130 1344 130 1383 c 0,16,17
 130 1424 130 1424 176 1424 c 2,18,-1
 514 1424 l 2,19,20
 560 1424 560 1424 560 1383 c 0,21,22
 560 1344 560 1344 510 1326.5 c 128,-1,23
 460 1309 460 1309 460 1257 c 2,0,-1
397 1708 m 0,24,25
 397 1754 397 1754 432.5 1791 c 128,-1,26
 468 1828 468 1828 521 1828 c 0,27,28
 605 1828 605 1828 637 1752 c 0,29,30
 647 1726 647 1726 647 1703 c 0,31,32
 647 1659 647 1659 610 1622 c 0,33,34
 569 1581 569 1581 521 1581 c 0,35,36
 474 1581 474 1581 431 1624 c 0,37,38
 397 1657 397 1657 397 1708 c 0,24,25
43 1708 m 0,39,40
 43 1786 43 1786 118 1818 c 0,41,42
 144 1829 144 1829 170 1829 c 0,43,44
 219 1829 219 1829 256 1792 c 0,45,46
 294 1754 294 1754 294 1710 c 0,47,48
 294 1687 294 1687 284 1663 c 0,49,50
 253 1587 253 1587 167 1587 c 0,51,52
 43 1587 43 1587 43 1708 c 0,39,40
EndSplineSet
Validated: 1
EndChar

StartChar: ETH
Encoding: 208 208 145
Width: 1585
GlyphClass: 2
Flags: W
LayerCount: 2
Fore
SplineSet
1525 792 m 0,0,1
 1527 758 1527 758 1527 727 c 0,2,3
 1527 558 1527 558 1464 422 c 0,4,5
 1388 260 1388 260 1252 155 c 0,6,7
 1021 -23 1021 -23 689 -27 c 1,8,-1
 609 -27 l 2,9,10
 551 -27 551 -27 500 -26 c 1,11,-1
 383 -26 l 2,12,13
 299 -26 299 -26 256 -23 c 1,14,-1
 233 -23 l 2,15,16
 194 -23 194 -23 130 -29 c 1,17,18
 83 -29 83 -29 83 13 c 0,19,20
 83 51 83 51 133 69 c 128,-1,21
 183 87 183 87 183 139 c 2,22,-1
 183 665 l 1,23,-1
 46 665 l 2,24,25
 0 665 0 665 0 704 c 2,26,-1
 0 743 l 2,27,28
 0 783 0 783 46 783 c 2,29,-1
 183 783 l 1,30,-1
 183 1262 l 2,31,32
 183 1313 183 1313 133 1330.5 c 128,-1,33
 83 1348 83 1348 83 1387 c 0,34,35
 83 1428 83 1428 129 1428 c 1,36,37
 171 1427 171 1427 214 1427 c 0,38,39
 256 1427 256 1427 299 1428 c 0,40,41
 385 1431 385 1431 468 1433 c 1,42,-1
 527 1433 l 2,43,44
 681 1433 681 1433 837 1425 c 1,45,46
 1025 1414 1025 1414 1177 1349 c 1,47,48
 1321 1285 1321 1285 1415.5 1154 c 128,-1,49
 1510 1023 1510 1023 1525 792 c 0,0,1
426 783 m 1,50,-1
 716 783 l 2,51,52
 761 783 761 783 761 743 c 2,53,-1
 761 704 l 2,54,55
 761 665 761 665 716 665 c 2,56,-1
 426 665 l 1,57,-1
 429 115 l 1,58,59
 534 95 534 95 642 95 c 0,60,61
 837 95 837 95 981 171 c 0,62,63
 1115 241 1115 241 1193 388 c 0,64,65
 1265 524 1265 524 1265 736 c 2,66,-1
 1265 769 l 1,67,68
 1261 927 1261 927 1209.5 1033 c 128,-1,69
 1158 1139 1158 1139 1074 1201 c 0,70,71
 951 1293 951 1293 775 1309 c 0,72,73
 714 1314 714 1314 651 1314 c 0,74,75
 530 1314 530 1314 424 1297 c 1,76,-1
 426 783 l 1,50,-1
EndSplineSet
Validated: 1
EndChar

StartChar: Ntilde
Encoding: 209 209 146
Width: 1644
GlyphClass: 2
Flags: W
LayerCount: 2
Fore
SplineSet
1344 271 m 1,0,-1
 1344 1257 l 2,1,2
 1344 1308 1344 1308 1294.5 1326 c 128,-1,3
 1245 1344 1245 1344 1245 1383 c 0,4,5
 1245 1424 1245 1424 1290 1424 c 2,6,-1
 1545 1424 l 2,7,8
 1591 1424 1591 1424 1591 1383 c 0,9,10
 1591 1344 1591 1344 1541 1326 c 128,-1,11
 1491 1308 1491 1308 1491 1257 c 2,12,-1
 1490 -70 l 1,13,-1
 1272 -17 l 1,14,-1
 355 1121 l 1,15,-1
 355 146 l 2,16,17
 355 94 355 94 405 76.5 c 128,-1,18
 455 59 455 59 455 21 c 0,19,20
 455 -20 455 -20 409 -20 c 2,21,-1
 155 -20 l 2,22,23
 109 -20 109 -20 109 21 c 0,24,25
 109 59 109 59 159 76.5 c 128,-1,26
 209 94 209 94 209 146 c 2,27,-1
 209 1257 l 2,28,29
 209 1308 209 1308 159 1326 c 128,-1,30
 109 1344 109 1344 109 1383 c 0,31,32
 109 1424 109 1424 155 1424 c 2,33,-1
 426 1424 l 1,34,-1
 1344 271 l 1,0,-1
1188 1805 m 0,35,36
 1144 1688 1144 1688 1104 1635 c 0,37,38
 1055 1571 1055 1571 996 1571 c 0,39,40
 906 1571 906 1571 805 1662 c 1,41,42
 759 1701 759 1701 724 1701 c 0,43,44
 699 1701 699 1701 673 1679 c 0,45,46
 664 1671 664 1671 653 1661 c 128,-1,47
 642 1651 642 1651 630 1635 c 0,48,49
 607 1604 607 1604 588 1565 c 0,50,51
 577 1542 577 1542 552 1542 c 0,52,53
 536 1542 536 1542 522 1554 c 0,54,55
 506 1567 506 1567 506 1587 c 0,56,57
 506 1600 506 1600 513 1617 c 0,58,59
 546 1689 546 1689 583 1771.5 c 128,-1,60
 620 1854 620 1854 710 1854 c 0,61,62
 810 1854 810 1854 907 1760 c 0,63,64
 948 1720 948 1720 983 1720 c 0,65,66
 1013 1720 1013 1720 1047 1749 c 0,67,68
 1081 1777 1081 1777 1108 1848 c 1,69,70
 1119 1874 1119 1874 1147 1874 c 0,71,72
 1156 1874 1156 1874 1161 1871 c 1,73,74
 1187 1866 1187 1866 1192 1833 c 1,75,-1
 1192 1827 l 2,76,77
 1192 1815 1192 1815 1188 1805 c 0,35,36
EndSplineSet
Validated: 1
EndChar

StartChar: Ograve
Encoding: 210 210 147
Width: 1610
GlyphClass: 2
Flags: W
LayerCount: 2
Fore
SplineSet
808 1338 m 0,0,1
 516 1337 516 1337 399 1152 c 128,-1,2
 282 967 282 967 282 702 c 256,3,4
 282 437 282 437 429.5 252.5 c 128,-1,5
 577 68 577 68 808 66 c 1,6,-1
 813 66 l 2,7,8
 1038 66 1038 66 1185 260 c 1,9,10
 1333 457 1333 457 1333 696 c 2,11,-1
 1333 702 l 1,12,13
 1331 946 1331 946 1208 1142 c 128,-1,14
 1085 1338 1085 1338 808 1338 c 0,0,1
936 1565 m 2,15,-1
 636 1751 l 2,16,17
 610 1767 610 1767 585.5 1791.5 c 128,-1,18
 561 1816 561 1816 561 1851 c 0,19,20
 561 1911 561 1911 615 1934 c 0,21,22
 637 1943 637 1943 660 1943 c 0,23,24
 689 1943 689 1943 716 1927 c 0,25,26
 743 1910 743 1910 808.5 1842 c 128,-1,27
 874 1774 874 1774 899 1749 c 2,28,-1
 1018 1625 l 2,29,30
 1059 1583 1059 1583 1059 1562 c 0,31,32
 1059 1539 1059 1539 1031 1536 c 1,33,34
 1027 1534 1027 1534 1019 1534 c 0,35,36
 986 1534 986 1534 936 1565 c 2,15,-1
808 1466 m 1,37,-1
 818 1466 l 2,38,39
 1152 1466 1152 1466 1382 1261 c 0,40,41
 1595 1070 1595 1070 1595 760 c 0,42,43
 1595 732 1595 732 1593 704 c 0,44,45
 1572 353 1572 353 1347.5 158 c 128,-1,46
 1123 -37 1123 -37 807 -55 c 0,47,48
 784 -56 784 -56 760 -56 c 0,49,50
 471 -56 471 -56 249 143 c 0,51,52
 23 345 23 345 23 669 c 0,53,54
 23 687 23 687 24 706 c 0,55,56
 36 1053 36 1053 251 1257.5 c 128,-1,57
 466 1462 466 1462 808 1466 c 1,37,-1
EndSplineSet
Validated: 1
EndChar

StartChar: Oacute
Encoding: 211 211 148
Width: 1610
GlyphClass: 2
Flags: W
LayerCount: 2
Fore
SplineSet
808 1338 m 0,0,1
 516 1337 516 1337 399 1152 c 128,-1,2
 282 967 282 967 282 702 c 256,3,4
 282 437 282 437 429.5 252.5 c 128,-1,5
 577 68 577 68 808 66 c 1,6,-1
 813 66 l 2,7,8
 1038 66 1038 66 1185 260 c 1,9,10
 1333 457 1333 457 1333 696 c 2,11,-1
 1333 702 l 1,12,13
 1331 946 1331 946 1208 1142 c 128,-1,14
 1085 1338 1085 1338 808 1338 c 0,0,1
682 1565 m 2,15,16
 632 1534 632 1534 598 1534 c 0,17,18
 588 1534 588 1534 585 1536 c 1,19,20
 559 1539 559 1539 559 1562 c 0,21,22
 559 1583 559 1583 600 1625 c 2,23,-1
 721 1751 l 2,24,25
 743 1774 743 1774 808.5 1842 c 128,-1,26
 874 1910 874 1910 904 1928 c 0,27,28
 929 1943 929 1943 958 1943 c 0,29,30
 981 1943 981 1943 1004 1934 c 0,31,32
 1057 1911 1057 1911 1057 1851 c 0,33,34
 1057 1816 1057 1816 1032.5 1791.5 c 128,-1,35
 1008 1767 1008 1767 982 1751 c 2,36,-1
 682 1565 l 2,15,16
808 1466 m 1,37,-1
 818 1466 l 2,38,39
 1152 1466 1152 1466 1382 1261 c 0,40,41
 1595 1070 1595 1070 1595 760 c 0,42,43
 1595 732 1595 732 1593 704 c 0,44,45
 1572 353 1572 353 1347.5 158 c 128,-1,46
 1123 -37 1123 -37 807 -55 c 0,47,48
 784 -56 784 -56 760 -56 c 0,49,50
 471 -56 471 -56 249 143 c 0,51,52
 23 345 23 345 23 669 c 0,53,54
 23 687 23 687 24 706 c 0,55,56
 36 1053 36 1053 251 1257.5 c 128,-1,57
 466 1462 466 1462 808 1466 c 1,37,-1
EndSplineSet
Validated: 1
EndChar

StartChar: Ocirc
Encoding: 212 212 149
Width: 1610
GlyphClass: 2
Flags: W
LayerCount: 2
Fore
SplineSet
808 1338 m 0,0,1
 516 1337 516 1337 399 1152 c 128,-1,2
 282 967 282 967 282 702 c 256,3,4
 282 437 282 437 429.5 252.5 c 128,-1,5
 577 68 577 68 808 66 c 1,6,-1
 813 66 l 2,7,8
 1038 66 1038 66 1185 260 c 1,9,10
 1333 457 1333 457 1333 696 c 2,11,-1
 1333 702 l 1,12,13
 1331 946 1331 946 1208 1142 c 128,-1,14
 1085 1338 1085 1338 808 1338 c 0,0,1
481 1536 m 1,15,-1
 736 1923 l 1,16,-1
 882 1923 l 1,17,-1
 1137 1536 l 1,18,-1
 1028 1536 l 1,19,-1
 809 1734 l 1,20,-1
 590 1536 l 1,21,-1
 481 1536 l 1,15,-1
808 1466 m 1,22,-1
 818 1466 l 2,23,24
 1152 1466 1152 1466 1382 1261 c 0,25,26
 1595 1070 1595 1070 1595 760 c 0,27,28
 1595 732 1595 732 1593 704 c 0,29,30
 1572 353 1572 353 1347.5 158 c 128,-1,31
 1123 -37 1123 -37 807 -55 c 0,32,33
 784 -56 784 -56 760 -56 c 0,34,35
 471 -56 471 -56 249 143 c 0,36,37
 23 345 23 345 23 669 c 0,38,39
 23 687 23 687 24 706 c 0,40,41
 36 1053 36 1053 251 1257.5 c 128,-1,42
 466 1462 466 1462 808 1466 c 1,22,-1
EndSplineSet
Validated: 1
EndChar

StartChar: Otilde
Encoding: 213 213 150
Width: 1610
GlyphClass: 2
Flags: W
LayerCount: 2
Fore
SplineSet
808 1338 m 0,0,1
 516 1337 516 1337 399 1152 c 128,-1,2
 282 967 282 967 282 702 c 256,3,4
 282 437 282 437 429.5 252.5 c 128,-1,5
 577 68 577 68 808 66 c 1,6,-1
 813 66 l 2,7,8
 1038 66 1038 66 1185 260 c 1,9,10
 1333 457 1333 457 1333 696 c 2,11,-1
 1333 702 l 1,12,13
 1331 946 1331 946 1208 1142 c 128,-1,14
 1085 1338 1085 1338 808 1338 c 0,0,1
1147 1805 m 0,15,16
 1106 1692 1106 1692 1063 1635 c 0,17,18
 1014 1571 1014 1571 955 1571 c 0,19,20
 865 1571 865 1571 764 1662 c 1,21,22
 718 1701 718 1701 683 1701 c 0,23,24
 658 1701 658 1701 632 1679 c 0,25,26
 623 1671 623 1671 612 1661 c 128,-1,27
 601 1651 601 1651 589 1635 c 0,28,29
 565 1604 565 1604 549 1565 c 1,30,31
 537 1542 537 1542 512 1542 c 0,32,33
 496 1542 496 1542 482 1554 c 0,34,35
 466 1567 466 1567 466 1587 c 0,36,37
 466 1600 466 1600 473 1617 c 0,38,39
 506 1688 506 1688 542.5 1771 c 128,-1,40
 579 1854 579 1854 669 1854 c 0,41,42
 769 1854 769 1854 866 1760 c 0,43,44
 907 1720 907 1720 942 1720 c 0,45,46
 972 1720 972 1720 1006 1749 c 1,47,48
 1040 1776 1040 1776 1068 1847 c 1,49,50
 1077 1874 1077 1874 1106 1874 c 0,51,52
 1115 1874 1115 1874 1120 1871 c 1,53,54
 1146 1866 1146 1866 1151 1833 c 1,55,-1
 1151 1827 l 2,56,57
 1151 1815 1151 1815 1147 1805 c 0,15,16
808 1466 m 1,58,-1
 818 1466 l 2,59,60
 1152 1466 1152 1466 1382 1261 c 0,61,62
 1595 1070 1595 1070 1595 760 c 0,63,64
 1595 732 1595 732 1593 704 c 0,65,66
 1572 353 1572 353 1347.5 158 c 128,-1,67
 1123 -37 1123 -37 807 -55 c 0,68,69
 784 -56 784 -56 760 -56 c 0,70,71
 471 -56 471 -56 249 143 c 0,72,73
 23 345 23 345 23 669 c 0,74,75
 23 687 23 687 24 706 c 0,76,77
 36 1053 36 1053 251 1257.5 c 128,-1,78
 466 1462 466 1462 808 1466 c 1,58,-1
EndSplineSet
Validated: 1
EndChar

StartChar: Ouml
Encoding: 214 214 151
Width: 1610
GlyphClass: 2
Flags: W
LayerCount: 2
Fore
SplineSet
808 1338 m 0,0,1
 516 1337 516 1337 399 1152 c 128,-1,2
 282 967 282 967 282 702 c 256,3,4
 282 437 282 437 429.5 252.5 c 128,-1,5
 577 68 577 68 808 66 c 1,6,-1
 813 66 l 2,7,8
 1038 66 1038 66 1185 260 c 1,9,10
 1333 457 1333 457 1333 696 c 2,11,-1
 1333 702 l 1,12,13
 1331 946 1331 946 1208 1142 c 128,-1,14
 1085 1338 1085 1338 808 1338 c 0,0,1
861 1708 m 0,15,16
 861 1754 861 1754 896.5 1791 c 128,-1,17
 932 1828 932 1828 985 1828 c 0,18,19
 1069 1828 1069 1828 1101 1752 c 0,20,21
 1111 1726 1111 1726 1111 1703 c 0,22,23
 1111 1659 1111 1659 1074 1622 c 0,24,25
 1033 1581 1033 1581 985 1581 c 0,26,27
 938 1581 938 1581 895 1624 c 0,28,29
 861 1657 861 1657 861 1708 c 0,15,16
508 1708 m 0,30,31
 508 1786 508 1786 583 1818 c 0,32,33
 609 1829 609 1829 634 1829 c 0,34,35
 683 1829 683 1829 720 1792 c 0,36,37
 758 1754 758 1754 758 1710 c 0,38,39
 758 1687 758 1687 748 1663 c 0,40,41
 717 1587 717 1587 631 1587 c 0,42,43
 508 1587 508 1587 508 1708 c 0,30,31
808 1466 m 1,44,-1
 818 1466 l 2,45,46
 1152 1466 1152 1466 1382 1261 c 0,47,48
 1595 1070 1595 1070 1595 760 c 0,49,50
 1595 732 1595 732 1593 704 c 0,51,52
 1572 353 1572 353 1347.5 158 c 128,-1,53
 1123 -37 1123 -37 807 -55 c 0,54,55
 784 -56 784 -56 760 -56 c 0,56,57
 471 -56 471 -56 249 143 c 0,58,59
 23 345 23 345 23 669 c 0,60,61
 23 687 23 687 24 706 c 0,62,63
 36 1053 36 1053 251 1257.5 c 128,-1,64
 466 1462 466 1462 808 1466 c 1,44,-1
EndSplineSet
Validated: 1
EndChar

StartChar: times
Encoding: 215 215 152
Width: 1024
GlyphClass: 2
Flags: W
LayerCount: 2
Fore
SplineSet
354 917 m 1,0,-1
 532 738 l 1,1,-1
 712 918 l 2,2,3
 733 939 733 939 757 939 c 0,4,5
 778 939 778 939 792 925 c 2,6,-1
 829 888 l 2,7,8
 844 873 844 873 844 857 c 0,9,10
 844 837 844 837 822 815 c 2,11,-1
 639 632 l 1,12,-1
 824 446 l 1,13,14
 844 424 844 424 844 406 c 0,15,16
 844 389 844 389 830 377 c 1,17,-1
 794 340 l 2,18,19
 778 324 778 324 757 324 c 0,20,21
 733 324 733 324 710 348 c 2,22,-1
 532 525 l 1,23,-1
 353 346 l 2,24,25
 331 324 331 324 306 324 c 0,26,27
 284 324 284 324 270 340 c 1,28,-1
 233 378 l 2,29,30
 220 391 220 391 220 407 c 0,31,32
 220 426 220 426 242 448 c 2,33,-1
 426 632 l 1,34,-1
 241 816 l 2,35,36
 220 836 220 836 220 856 c 0,37,38
 220 873 220 873 235 888 c 2,39,-1
 272 925 l 2,40,41
 286 939 286 939 307 939 c 0,42,43
 330 939 330 939 354 917 c 1,0,-1
EndSplineSet
Validated: 1
EndChar

StartChar: Oslash
Encoding: 216 216 153
Width: 1610
GlyphClass: 2
Flags: W
LayerCount: 2
Fore
SplineSet
808 1338 m 0,0,1
 516 1337 516 1337 399 1152 c 128,-1,2
 282 967 282 967 282 702 c 0,3,4
 282 479 282 479 372 336 c 1,5,-1
 1215 1134 l 1,6,7
 1160 1220 1160 1220 1058 1279 c 128,-1,8
 956 1338 956 1338 808 1338 c 0,0,1
1280 1011 m 1,9,-1
 451 227 l 1,10,11
 589 67 589 67 808 66 c 1,12,-1
 813 66 l 2,13,14
 1038 66 1038 66 1185 260 c 1,15,16
 1333 457 1333 457 1333 696 c 2,17,-1
 1333 702 l 1,18,19
 1331 896 1331 896 1280 1011 c 1,9,-1
1641 1352 m 2,20,-1
 1458 1179 l 1,21,22
 1594 1005 1594 1005 1594 753 c 0,23,24
 1594 729 1594 729 1593 704 c 0,25,26
 1572 353 1572 353 1347.5 158 c 128,-1,27
 1123 -37 1123 -37 807 -55 c 0,28,29
 783 -56 783 -56 758 -56 c 0,30,31
 495 -56 495 -56 309 92 c 1,32,-1
 169 -40 l 2,33,34
 154 -53 154 -53 137 -53 c 0,35,36
 117 -53 117 -53 104 -38 c 1,37,-1
 69 -2 l 1,38,39
 58 11 58 11 58 23 c 0,40,41
 58 37 58 37 70 49 c 2,42,-1
 210 182 l 1,43,44
 125 269 125 269 72 405 c 1,45,46
 23 527 23 527 23 672 c 0,47,48
 23 688 23 688 24 706 c 0,49,50
 36 1053 36 1053 251 1257.5 c 128,-1,51
 466 1462 466 1462 808 1466 c 1,52,-1
 818 1466 l 2,53,54
 1163 1466 1163 1466 1367 1277 c 1,55,-1
 1543 1443 l 2,56,57
 1557 1455 1557 1455 1573 1455 c 0,58,59
 1591 1455 1591 1455 1606 1442 c 1,60,-1
 1641 1404 l 1,61,62
 1654 1393 1654 1393 1654 1378 c 0,63,64
 1654 1365 1654 1365 1641 1352 c 2,20,-1
EndSplineSet
Validated: 1
EndChar

StartChar: Ugrave
Encoding: 217 217 154
Width: 1554
GlyphClass: 2
Flags: W
LayerCount: 2
Fore
SplineSet
209 588 m 2,0,-1
 209 1258 l 2,1,2
 209 1309 209 1309 159 1326.5 c 128,-1,3
 109 1344 109 1344 109 1383 c 0,4,5
 109 1424 109 1424 155 1424 c 2,6,-1
 494 1424 l 2,7,8
 539 1424 539 1424 539 1383 c 0,9,10
 539 1344 539 1344 490 1327.5 c 128,-1,11
 441 1311 441 1311 441 1260 c 2,12,-1
 441 721 l 2,13,14
 441 569 441 569 451 452.5 c 128,-1,15
 461 336 461 336 501 258 c 0,16,17
 539 183 539 183 617.5 144.5 c 128,-1,18
 696 106 696 106 839 106 c 0,19,20
 1086 106 1086 106 1173 301 c 1,21,22
 1239 443 1239 443 1239 721 c 2,23,-1
 1239 1257 l 2,24,25
 1239 1308 1239 1308 1189 1326 c 128,-1,26
 1139 1344 1139 1344 1139 1383 c 0,27,28
 1139 1424 1139 1424 1185 1424 c 2,29,-1
 1440 1424 l 2,30,31
 1485 1424 1485 1424 1485 1383 c 0,32,33
 1485 1344 1485 1344 1435.5 1326 c 128,-1,34
 1386 1308 1386 1308 1386 1257 c 2,35,-1
 1386 588 l 1,36,37
 1385 437 1385 437 1358 311 c 128,-1,38
 1331 185 1331 185 1257 97 c 1,39,40
 1122 -59 1122 -59 839 -59 c 0,41,42
 664 -59 664 -59 538 -25.5 c 128,-1,43
 412 8 412 8 335 98 c 0,44,45
 209 244 209 244 209 588 c 2,0,-1
924 1565 m 2,46,-1
 624 1751 l 2,47,48
 598 1767 598 1767 573.5 1791.5 c 128,-1,49
 549 1816 549 1816 549 1851 c 0,50,51
 549 1911 549 1911 603 1934 c 0,52,53
 625 1943 625 1943 648 1943 c 0,54,55
 677 1943 677 1943 704 1927 c 0,56,57
 731 1910 731 1910 796.5 1842 c 128,-1,58
 862 1774 862 1774 887 1749 c 2,59,-1
 1007 1625 l 2,60,61
 1047 1583 1047 1583 1047 1563 c 0,62,63
 1047 1539 1047 1539 1019 1536 c 1,64,65
 1015 1534 1015 1534 1007 1534 c 0,66,67
 974 1534 974 1534 924 1565 c 2,46,-1
EndSplineSet
Validated: 1
EndChar

StartChar: Uacute
Encoding: 218 218 155
Width: 1554
GlyphClass: 2
Flags: W
LayerCount: 2
Fore
SplineSet
209 588 m 2,0,-1
 209 1258 l 2,1,2
 209 1309 209 1309 159 1326.5 c 128,-1,3
 109 1344 109 1344 109 1383 c 0,4,5
 109 1424 109 1424 155 1424 c 2,6,-1
 494 1424 l 2,7,8
 539 1424 539 1424 539 1383 c 0,9,10
 539 1344 539 1344 490 1327.5 c 128,-1,11
 441 1311 441 1311 441 1260 c 2,12,-1
 441 721 l 2,13,14
 441 569 441 569 451 452.5 c 128,-1,15
 461 336 461 336 501 258 c 0,16,17
 539 183 539 183 617.5 144.5 c 128,-1,18
 696 106 696 106 839 106 c 0,19,20
 1086 106 1086 106 1173 301 c 1,21,22
 1239 443 1239 443 1239 721 c 2,23,-1
 1239 1257 l 2,24,25
 1239 1308 1239 1308 1189 1326 c 128,-1,26
 1139 1344 1139 1344 1139 1383 c 0,27,28
 1139 1424 1139 1424 1185 1424 c 2,29,-1
 1440 1424 l 2,30,31
 1485 1424 1485 1424 1485 1383 c 0,32,33
 1485 1344 1485 1344 1435.5 1326 c 128,-1,34
 1386 1308 1386 1308 1386 1257 c 2,35,-1
 1386 588 l 1,36,37
 1385 437 1385 437 1358 311 c 128,-1,38
 1331 185 1331 185 1257 97 c 1,39,40
 1122 -59 1122 -59 839 -59 c 0,41,42
 664 -59 664 -59 538 -25.5 c 128,-1,43
 412 8 412 8 335 98 c 0,44,45
 209 244 209 244 209 588 c 2,0,-1
670 1565 m 2,46,47
 620 1534 620 1534 586 1534 c 0,48,49
 576 1534 576 1534 573 1536 c 1,50,51
 547 1539 547 1539 547 1562 c 0,52,53
 547 1583 547 1583 588 1625 c 2,54,-1
 709 1751 l 2,55,56
 731 1774 731 1774 797 1842 c 128,-1,57
 863 1910 863 1910 890 1927 c 0,58,59
 917 1943 917 1943 946 1943 c 0,60,61
 969 1943 969 1943 992 1934 c 0,62,63
 1045 1911 1045 1911 1045 1851 c 0,64,65
 1045 1816 1045 1816 1020.5 1791.5 c 128,-1,66
 996 1767 996 1767 970 1751 c 2,67,-1
 670 1565 l 2,46,47
EndSplineSet
Validated: 1
EndChar

StartChar: Ucirc
Encoding: 219 219 156
Width: 1554
GlyphClass: 2
Flags: W
LayerCount: 2
Fore
SplineSet
209 588 m 2,0,-1
 209 1258 l 2,1,2
 209 1309 209 1309 159 1326.5 c 128,-1,3
 109 1344 109 1344 109 1383 c 0,4,5
 109 1424 109 1424 155 1424 c 2,6,-1
 494 1424 l 2,7,8
 539 1424 539 1424 539 1383 c 0,9,10
 539 1344 539 1344 490 1327.5 c 128,-1,11
 441 1311 441 1311 441 1260 c 2,12,-1
 441 721 l 2,13,14
 441 569 441 569 451 452.5 c 128,-1,15
 461 336 461 336 501 258 c 0,16,17
 539 183 539 183 617.5 144.5 c 128,-1,18
 696 106 696 106 839 106 c 0,19,20
 1086 106 1086 106 1173 301 c 1,21,22
 1239 443 1239 443 1239 721 c 2,23,-1
 1239 1257 l 2,24,25
 1239 1308 1239 1308 1189 1326 c 128,-1,26
 1139 1344 1139 1344 1139 1383 c 0,27,28
 1139 1424 1139 1424 1185 1424 c 2,29,-1
 1440 1424 l 2,30,31
 1485 1424 1485 1424 1485 1383 c 0,32,33
 1485 1344 1485 1344 1435.5 1326 c 128,-1,34
 1386 1308 1386 1308 1386 1257 c 2,35,-1
 1386 588 l 1,36,37
 1385 437 1385 437 1358 311 c 128,-1,38
 1331 185 1331 185 1257 97 c 1,39,40
 1122 -59 1122 -59 839 -59 c 0,41,42
 664 -59 664 -59 538 -25.5 c 128,-1,43
 412 8 412 8 335 98 c 0,44,45
 209 244 209 244 209 588 c 2,0,-1
469 1536 m 1,46,-1
 724 1923 l 1,47,-1
 870 1923 l 1,48,-1
 1126 1536 l 1,49,-1
 1016 1536 l 1,50,-1
 797 1734 l 1,51,-1
 578 1536 l 1,52,-1
 469 1536 l 1,46,-1
EndSplineSet
Validated: 1
EndChar

StartChar: Uuml
Encoding: 220 220 157
Width: 1554
GlyphClass: 2
Flags: W
LayerCount: 2
Fore
SplineSet
209 588 m 2,0,-1
 209 1258 l 2,1,2
 209 1309 209 1309 159 1326.5 c 128,-1,3
 109 1344 109 1344 109 1383 c 0,4,5
 109 1424 109 1424 155 1424 c 2,6,-1
 494 1424 l 2,7,8
 539 1424 539 1424 539 1383 c 0,9,10
 539 1344 539 1344 490 1327.5 c 128,-1,11
 441 1311 441 1311 441 1260 c 2,12,-1
 441 721 l 2,13,14
 441 569 441 569 451 452.5 c 128,-1,15
 461 336 461 336 501 258 c 0,16,17
 539 183 539 183 617.5 144.5 c 128,-1,18
 696 106 696 106 839 106 c 0,19,20
 1086 106 1086 106 1173 301 c 1,21,22
 1239 443 1239 443 1239 721 c 2,23,-1
 1239 1257 l 2,24,25
 1239 1308 1239 1308 1189 1326 c 128,-1,26
 1139 1344 1139 1344 1139 1383 c 0,27,28
 1139 1424 1139 1424 1185 1424 c 2,29,-1
 1440 1424 l 2,30,31
 1485 1424 1485 1424 1485 1383 c 0,32,33
 1485 1344 1485 1344 1435.5 1326 c 128,-1,34
 1386 1308 1386 1308 1386 1257 c 2,35,-1
 1386 588 l 1,36,37
 1385 437 1385 437 1358 311 c 128,-1,38
 1331 185 1331 185 1257 97 c 1,39,40
 1122 -59 1122 -59 839 -59 c 0,41,42
 664 -59 664 -59 538 -25.5 c 128,-1,43
 412 8 412 8 335 98 c 0,44,45
 209 244 209 244 209 588 c 2,0,-1
849 1708 m 0,46,47
 849 1754 849 1754 884.5 1791 c 128,-1,48
 920 1828 920 1828 973 1828 c 0,49,50
 1057 1828 1057 1828 1089 1752 c 0,51,52
 1099 1726 1099 1726 1099 1702 c 0,53,54
 1099 1659 1099 1659 1064 1624 c 0,55,56
 1021 1581 1021 1581 973 1581 c 256,57,58
 925 1581 925 1581 884 1622 c 0,59,60
 849 1657 849 1657 849 1708 c 0,46,47
496 1708 m 0,61,62
 496 1786 496 1786 571 1818 c 0,63,64
 597 1829 597 1829 622 1829 c 0,65,66
 671 1829 671 1829 708 1792 c 0,67,68
 746 1754 746 1754 746 1710 c 0,69,70
 746 1687 746 1687 737 1663 c 1,71,72
 705 1587 705 1587 620 1587 c 0,73,74
 496 1587 496 1587 496 1708 c 0,61,62
EndSplineSet
Validated: 1
EndChar

StartChar: Yacute
Encoding: 221 221 158
Width: 1366
GlyphClass: 2
Flags: W
LayerCount: 2
Fore
SplineSet
566 669 m 2,0,-1
 218 1249 l 1,1,2
 198 1279 198 1279 149 1309 c 1,3,4
 123 1322 123 1322 97 1332 c 128,-1,5
 71 1342 71 1342 53 1353 c 0,6,7
 38 1361 38 1361 29 1373 c 1,8,9
 22 1384 22 1384 22 1394 c 2,10,-1
 22 1399 l 1,11,12
 26 1424 26 1424 57 1424 c 2,13,-1
 396 1424 l 2,14,15
 415 1424 415 1424 431 1414 c 1,16,17
 445 1404 445 1404 454 1392 c 1,18,19
 460 1382 460 1382 460 1373 c 0,20,21
 460 1360 460 1360 449 1347 c 0,22,23
 442 1338 442 1338 434 1329.5 c 128,-1,24
 426 1321 426 1321 425 1313 c 1,25,-1
 425 1308 l 2,26,27
 425 1291 425 1291 438 1272 c 2,28,-1
 753 773 l 1,29,-1
 990 1133 l 2,30,31
 1017 1174 1017 1174 1021 1203 c 0,32,33
 1022 1206 1022 1206 1022 1210 c 0,34,35
 1022 1236 1022 1236 1001 1279 c 2,36,-1
 958 1365 l 1,37,-1
 1120 1436 l 2,38,39
 1133 1441 1133 1441 1145 1441 c 0,40,41
 1173 1441 1173 1441 1191 1414 c 1,42,-1
 1252 1312 l 2,43,44
 1265 1289 1265 1289 1265 1266 c 0,45,46
 1265 1225 1265 1225 1226 1185 c 0,47,48
 1174 1130 1174 1130 1115 1045 c 2,49,-1
 849 657 l 2,50,51
 833 633 833 633 828 586.5 c 128,-1,52
 823 540 823 540 823 497 c 2,53,-1
 823 146 l 2,54,55
 823 94 823 94 873 76.5 c 128,-1,56
 923 59 923 59 923 21 c 0,57,58
 923 -20 923 -20 877 -20 c 2,59,-1
 538 -20 l 2,60,61
 492 -20 492 -20 492 21 c 0,62,63
 492 59 492 59 542 76.5 c 128,-1,64
 592 94 592 94 592 146 c 2,65,-1
 592 573 l 2,66,67
 592 627 592 627 566 669 c 2,0,-1
670 1565 m 2,68,69
 620 1534 620 1534 586 1534 c 0,70,71
 576 1534 576 1534 573 1536 c 1,72,73
 547 1539 547 1539 547 1562 c 0,74,75
 547 1583 547 1583 588 1625 c 2,76,-1
 709 1751 l 2,77,78
 731 1774 731 1774 797 1842 c 128,-1,79
 863 1910 863 1910 890 1927 c 0,80,81
 917 1943 917 1943 946 1943 c 0,82,83
 969 1943 969 1943 992 1934 c 0,84,85
 1045 1911 1045 1911 1045 1851 c 0,86,87
 1045 1816 1045 1816 1020.5 1791.5 c 128,-1,88
 996 1767 996 1767 970 1751 c 2,89,-1
 670 1565 l 2,68,69
EndSplineSet
Validated: 1
EndChar

StartChar: THORN
Encoding: 222 222 159
Width: 1151
GlyphClass: 2
Flags: W
LayerCount: 2
Fore
SplineSet
401 1257 m 2,0,-1
 401 1108 l 1,1,-1
 686 1108 l 2,2,3
 794 1108 794 1108 912.5 1069.5 c 128,-1,4
 1031 1031 1031 1031 1097 918 c 1,5,6
 1147 829 1147 829 1147 706 c 1,7,8
 1145 588 1145 588 1079 493 c 0,9,10
 1021 411 1021 411 915 371 c 128,-1,11
 809 331 809 331 722 331 c 2,12,-1
 401 331 l 1,13,-1
 401 146 l 2,14,15
 401 94 401 94 451 76.5 c 128,-1,16
 501 59 501 59 501 21 c 0,17,18
 501 -20 501 -20 455 -20 c 2,19,-1
 116 -20 l 2,20,21
 71 -20 71 -20 71 21 c 0,22,23
 71 59 71 59 121 76.5 c 128,-1,24
 171 94 171 94 171 146 c 2,25,-1
 171 1257 l 2,26,27
 171 1308 171 1308 121 1326 c 128,-1,28
 71 1344 71 1344 71 1383 c 0,29,30
 71 1424 71 1424 117 1424 c 2,31,-1
 455 1424 l 2,32,33
 501 1424 501 1424 501 1383 c 0,34,35
 501 1344 501 1344 451 1326 c 128,-1,36
 401 1308 401 1308 401 1257 c 2,0,-1
401 441 m 1,37,-1
 587 441 l 2,38,39
 652 441 652 441 717.5 459.5 c 128,-1,40
 783 478 783 478 830 525 c 1,41,42
 904 596 904 596 904 716 c 1,43,44
 902 832 902 832 827 907 c 1,45,46
 746 985 746 985 607 985 c 2,47,-1
 401 985 l 1,48,-1
 401 441 l 1,37,-1
EndSplineSet
Validated: 1
EndChar

StartChar: szlig
Encoding: 223 223 160
Width: 1258
GlyphClass: 2
Flags: W
LayerCount: 2
Fore
SplineSet
502 52 m 1,0,-1
 439 225 l 1,1,-1
 441 248 l 2,2,3
 443 282 443 282 484 282 c 2,4,-1
 489 282 l 1,5,6
 514 277 514 277 530 245 c 0,7,8
 574 151 574 151 634.5 113.5 c 128,-1,9
 695 76 695 76 788 73 c 1,10,-1
 800 73 l 2,11,12
 866 73 866 73 946 104 c 0,13,14
 1024 135 1024 135 1027 216 c 1,15,-1
 1027 222 l 2,16,17
 1027 316 1027 316 942 340 c 0,18,19
 836 370 836 370 756 393 c 1,20,21
 653 421 653 421 562 483 c 0,22,23
 467 547 467 547 467 672 c 2,24,-1
 467 675 l 2,25,26
 467 782 467 782 536.5 835.5 c 128,-1,27
 606 889 606 889 668 947 c 0,28,29
 728 1002 728 1002 740 1095 c 0,30,31
 742 1114 742 1114 742 1133 c 0,32,33
 742 1201 742 1201 707 1251 c 0,34,35
 667 1307 667 1307 580 1316 c 0,36,37
 569 1317 569 1317 558 1317 c 0,38,39
 490 1317 490 1317 453 1268 c 0,40,41
 422 1226 422 1226 417.5 1160 c 128,-1,42
 413 1094 413 1094 413 1027 c 2,43,-1
 413 146 l 2,44,45
 413 94 413 94 463 77 c 0,46,47
 490 67 490 67 502 52 c 1,0,-1
513 22 m 1,48,-1
 513 21 l 2,49,50
 513 -20 513 -20 467 -20 c 2,51,-1
 128 -20 l 2,52,53
 82 -20 82 -20 82 21 c 0,54,55
 82 59 82 59 132 76.5 c 128,-1,56
 182 94 182 94 182 146 c 2,57,-1
 182 1027 l 2,58,59
 182 1119 182 1119 205.5 1207.5 c 128,-1,60
 229 1296 229 1296 288 1362 c 1,61,62
 396 1486 396 1486 555 1486 c 0,63,64
 590 1486 590 1486 627 1480 c 0,65,66
 814 1447 814 1447 903 1272 c 0,67,68
 937 1204 937 1204 937 1140 c 0,69,70
 937 1040 937 1040 853 950 c 0,71,72
 797 890 797 890 736 847.5 c 128,-1,73
 675 805 675 805 663 748 c 0,74,75
 658 727 658 727 658 711 c 0,76,77
 658 659 658 659 702 638 c 0,78,79
 770 604 770 604 861 583 c 0,80,81
 993 554 993 554 1106 501.5 c 128,-1,82
 1219 449 1219 449 1229 281 c 1,83,-1
 1229 269 l 2,84,85
 1229 190 1229 190 1168 113 c 1,86,87
 1102 27 1102 27 977 -16 c 0,88,89
 900 -42 900 -42 807 -45 c 1,90,-1
 779 -45 l 2,91,92
 653 -45 653 -45 524 -8 c 1,93,-1
 513 22 l 1,48,-1
EndSplineSet
Validated: 1
EndChar

